{"glyphs":{"0":{"ha":972,"x_min":83,"x_max":889,"o":"m 486 -21 q 279 44 371 -21 q 135 226 188 110 q 83 486 83 342 q 135 747 83 631 q 279 928 188 863 q 486 993 371 993 q 693 928 601 993 q 837 747 785 863 q 889 486 889 631 q 837 226 889 342 q 693 44 785 110 q 486 -21 601 -21 m 486 7 q 678 69 593 7 q 813 240 764 131 q 861 486 861 349 q 813 733 861 624 q 678 903 764 842 q 486 965 593 965 q 294 903 379 965 q 160 733 208 842 q 111 486 111 624 q 160 240 111 349 q 294 69 208 131 q 486 7 379 7 z "},"1":{"ha":493,"x_min":28,"x_max":292,"o":"m 264 0 l 264 938 l 28 792 l 28 824 l 269 972 l 292 972 l 292 0 l 264 0 z "},"2":{"ha":829,"x_min":56,"x_max":822,"o":"m 68 0 l 68 29 l 519 344 q 621 424 576 385 q 697 507 665 464 q 578 435 649 461 q 421 410 507 410 q 233 447 317 410 q 103 551 150 485 q 56 700 56 617 q 103 850 56 783 q 233 955 150 917 q 421 993 317 993 q 608 956 525 993 q 739 851 692 918 q 786 700 786 785 q 758 571 786 635 q 681 451 731 507 q 567 344 632 394 q 552 333 560 339 q 536 322 544 328 l 114 28 l 822 28 l 822 0 l 68 0 m 421 438 q 594 472 518 438 q 715 565 671 506 q 758 700 758 625 q 715 837 758 776 q 595 931 672 897 q 421 965 518 965 q 247 931 324 965 q 127 837 171 897 q 83 700 83 776 q 127 565 83 625 q 247 472 171 506 q 421 438 324 438 z "},"3":{"ha":771,"x_min":28,"x_max":733,"o":"m 381 -21 q 200 17 281 -21 q 74 124 119 56 q 28 276 28 192 l 56 276 q 98 138 56 199 q 214 42 140 76 q 381 7 288 7 q 547 43 474 7 q 663 144 621 79 q 706 289 706 208 q 633 478 706 407 q 442 550 561 550 q 343 537 392 550 q 264 501 294 524 l 249 490 l 228 514 l 690 944 l 43 944 l 43 972 l 721 972 l 721 936 l 300 544 q 336 559 318 553 q 372 569 354 565 q 408 576 390 574 q 443 578 425 578 q 594 542 528 578 q 697 440 660 506 q 733 292 733 375 q 688 131 733 203 q 562 19 642 60 q 381 -21 482 -21 z "},"4":{"ha":878,"x_min":21,"x_max":871,"o":"m 603 0 l 603 276 l 21 276 l 21 304 l 594 972 l 631 972 l 631 304 l 871 304 l 871 276 l 631 276 l 631 0 l 603 0 m 57 304 l 603 304 l 603 940 l 57 304 z "},"5":{"ha":844,"x_min":56,"x_max":783,"o":"m 418 -21 q 238 14 317 -21 q 110 111 158 49 q 56 256 63 174 l 83 256 q 134 126 90 182 q 251 38 178 69 q 418 7 325 7 q 594 47 518 7 q 713 157 671 86 q 756 319 756 228 q 715 472 756 406 q 602 576 675 539 q 433 613 529 613 q 236 568 318 613 q 125 449 154 524 l 94 449 l 175 972 l 750 972 l 750 944 l 197 944 l 131 508 q 251 606 172 571 q 433 640 331 640 q 616 600 536 640 q 740 487 696 560 q 783 319 783 414 q 738 142 783 219 q 608 22 692 65 q 418 -21 525 -21 z "},"6":{"ha":919,"x_min":83,"x_max":850,"o":"m 481 -21 q 274 42 364 -21 q 133 220 183 106 q 83 486 83 335 q 134 751 83 636 q 277 930 185 867 q 492 993 369 993 q 652 960 579 993 q 772 870 725 928 q 829 739 818 813 l 800 739 q 698 902 783 839 q 492 965 613 965 q 292 906 378 965 q 158 738 206 846 q 111 486 111 629 q 113 422 111 453 q 119 360 115 390 q 186 503 135 440 q 315 599 238 565 q 486 633 393 633 q 673 590 590 633 q 803 471 756 547 q 850 299 850 394 q 800 138 850 211 q 665 22 750 64 q 481 -21 581 -21 m 481 7 q 652 46 574 7 q 776 152 731 85 q 822 299 822 219 q 779 456 822 386 q 659 566 736 526 q 486 606 582 606 q 312 566 390 606 q 188 460 233 526 q 143 315 143 393 q 186 178 143 250 q 306 56 229 106 q 481 7 383 7 z "},"7":{"ha":785,"x_min":14,"x_max":771,"o":"m 297 0 q 378 353 313 175 q 540 683 443 531 q 743 944 636 836 l 14 944 l 14 972 l 771 972 l 771 935 q 568 677 664 828 q 407 351 472 526 q 325 0 342 175 l 297 0 z "},"8":{"ha":931,"x_min":90,"x_max":840,"o":"m 465 -21 q 273 14 358 -21 q 139 109 188 49 q 90 246 90 169 q 162 405 90 338 q 351 496 233 472 q 224 545 279 511 q 138 627 168 579 q 107 732 107 675 q 153 863 107 804 q 281 953 200 921 q 465 986 363 986 q 649 953 568 986 q 777 863 731 921 q 824 732 824 804 q 793 627 824 675 q 707 545 763 579 q 579 496 651 511 q 769 405 697 472 q 840 246 840 338 q 792 109 840 169 q 658 14 743 49 q 465 -21 572 -21 m 465 7 q 644 38 564 7 q 768 123 724 68 q 813 244 813 178 q 768 366 813 311 q 644 451 724 421 q 465 482 564 482 q 287 451 367 482 q 163 366 207 421 q 118 244 118 311 q 163 123 118 178 q 287 38 207 68 q 465 7 367 7 m 465 510 q 635 539 560 510 q 753 619 711 568 q 796 735 796 671 q 753 849 796 799 q 635 929 711 900 q 465 958 560 958 q 295 929 371 958 q 177 849 219 900 q 135 735 135 799 q 177 619 135 671 q 295 539 219 568 q 465 510 371 510 z "},"9":{"ha":919,"x_min":69,"x_max":836,"o":"m 439 993 q 646 930 556 993 q 786 752 736 867 q 836 486 836 638 q 785 221 836 336 q 642 42 735 106 q 428 -21 550 -21 q 267 12 340 -21 q 148 102 194 44 q 90 233 101 160 l 119 233 q 222 70 136 133 q 428 7 307 7 q 628 67 542 7 q 761 235 714 126 q 808 486 808 343 q 806 551 808 519 q 800 613 804 582 q 733 469 785 532 q 604 373 682 407 q 433 339 526 339 q 247 382 329 339 q 117 501 164 425 q 69 674 69 578 q 119 835 69 761 q 254 951 169 908 q 439 993 339 993 m 439 965 q 267 926 346 965 q 143 820 189 888 q 97 674 97 753 q 140 516 97 586 q 260 406 183 446 q 433 367 338 367 q 608 406 529 367 q 731 513 686 446 q 776 657 776 579 q 733 794 776 722 q 613 916 690 867 q 439 965 536 965 z "},"\r":{"ha":347,"x_min":0,"x_max":0,"o":""}," ":{"ha":347,"x_min":0,"x_max":0,"o":""},"A":{"ha":922,"x_min":21,"x_max":901,"o":"m 21 0 l 443 972 l 479 972 l 901 0 l 871 0 l 732 319 l 189 319 l 50 0 l 21 0 m 200 346 l 721 346 l 461 946 l 461 946 l 200 346 z "},"Á":{"ha":922,"x_min":21,"x_max":901,"o":"m 21 0 l 443 972 l 479 972 l 901 0 l 871 0 l 732 319 l 189 319 l 50 0 l 21 0 m 200 346 l 721 346 l 461 946 l 461 946 l 200 346 m 461 1090 l 553 1313 l 583 1313 l 490 1090 l 461 1090 z "},"Ă":{"ha":922,"x_min":21,"x_max":901,"o":"m 21 0 l 443 972 l 479 972 l 901 0 l 871 0 l 732 319 l 189 319 l 50 0 l 21 0 m 200 346 l 721 346 l 461 946 l 461 946 l 200 346 m 461 1090 q 337 1117 390 1090 q 254 1190 283 1143 q 225 1301 225 1238 l 225 1313 l 253 1313 l 253 1301 q 308 1167 253 1217 q 461 1118 364 1118 q 614 1167 558 1118 q 669 1301 669 1217 l 669 1313 l 697 1313 l 697 1301 q 668 1190 697 1238 q 585 1117 639 1143 q 461 1090 532 1090 z "},"Â":{"ha":922,"x_min":21,"x_max":901,"o":"m 21 0 l 443 972 l 479 972 l 901 0 l 871 0 l 732 319 l 189 319 l 50 0 l 21 0 m 200 346 l 721 346 l 461 946 l 461 946 l 200 346 z "},"Ä":{"ha":922,"x_min":21,"x_max":901,"o":"m 21 0 l 443 972 l 479 972 l 901 0 l 871 0 l 732 319 l 189 319 l 50 0 l 21 0 m 200 346 l 721 346 l 461 946 l 461 946 l 200 346 m 369 1090 l 357 1313 l 394 1313 l 382 1090 l 369 1090 m 542 1090 l 529 1313 l 567 1313 l 554 1090 l 542 1090 z "},"À":{"ha":922,"x_min":21,"x_max":901,"o":"m 21 0 l 443 972 l 479 972 l 901 0 l 871 0 l 732 319 l 189 319 l 50 0 l 21 0 m 200 346 l 721 346 l 461 946 l 461 946 l 200 346 m 461 1090 l 432 1090 l 339 1313 l 369 1313 l 461 1090 z "},"Ā":{"ha":922,"x_min":21,"x_max":901,"o":"m 21 0 l 443 972 l 479 972 l 901 0 l 871 0 l 732 319 l 189 319 l 50 0 l 21 0 m 200 346 l 721 346 l 461 946 l 461 946 l 200 346 m 239 1222 l 683 1222 l 683 1194 l 239 1194 l 239 1222 z "},"Ą":{"ha":922,"x_min":21,"x_max":903,"o":"m 21 0 l 443 972 l 479 972 l 901 0 l 871 0 l 732 319 l 189 319 l 50 0 l 21 0 m 200 346 l 721 346 l 461 946 l 461 946 l 200 346 m 903 -118 l 811 -340 l 781 -340 l 874 -118 l 903 -118 z "},"Å":{"ha":922,"x_min":21,"x_max":901,"o":"m 21 0 l 443 972 l 479 972 l 901 0 l 871 0 l 732 319 l 189 319 l 50 0 l 21 0 m 200 346 l 721 346 l 461 946 l 461 946 l 200 346 m 461 1090 q 377 1113 415 1090 q 317 1173 339 1135 q 294 1257 294 1211 q 317 1341 294 1303 q 377 1401 339 1379 q 461 1424 415 1424 q 544 1401 506 1424 q 606 1340 583 1379 q 628 1257 628 1301 q 606 1174 628 1213 q 544 1113 583 1135 q 461 1090 506 1090 m 461 1118 q 531 1137 499 1118 q 581 1188 563 1156 q 600 1257 600 1219 q 581 1326 600 1294 q 531 1377 563 1358 q 461 1396 499 1396 q 391 1377 422 1396 q 341 1327 360 1358 q 322 1257 322 1296 q 341 1187 322 1218 q 391 1137 360 1156 q 461 1118 422 1118 z "},"Ã":{"ha":922,"x_min":21,"x_max":901,"o":"m 21 0 l 443 972 l 479 972 l 901 0 l 871 0 l 732 319 l 189 319 l 50 0 l 21 0 m 200 346 l 721 346 l 461 946 l 461 946 l 200 346 m 204 1158 q 240 1228 204 1199 q 322 1258 275 1258 q 390 1249 358 1258 q 465 1221 421 1239 q 540 1194 513 1203 q 600 1186 568 1186 q 663 1208 636 1186 q 690 1258 690 1231 l 718 1258 q 683 1188 718 1218 q 600 1158 647 1158 q 533 1168 564 1158 q 457 1196 501 1178 q 382 1222 410 1214 q 322 1231 354 1231 q 259 1208 286 1231 q 232 1158 232 1186 l 204 1158 z "},"Æ":{"ha":1408,"x_min":21,"x_max":1367,"o":"m 21 0 l 443 972 l 479 972 l 901 0 l 871 0 l 732 319 l 189 319 l 50 0 l 21 0 m 200 346 l 721 346 l 461 946 l 461 946 l 200 346 m 881 28 l 1367 28 l 1367 0 l 881 0 l 881 28 m 675 500 l 1178 500 l 1178 472 l 675 472 l 675 500 m 471 972 l 1297 972 l 1297 944 l 471 944 l 471 972 z "},"B":{"ha":968,"x_min":194,"x_max":878,"o":"m 194 0 l 194 972 l 522 972 q 753 906 669 972 q 838 722 838 839 q 789 576 838 635 q 647 493 740 517 l 647 488 q 819 408 760 469 q 878 250 878 346 q 840 116 878 172 q 731 30 801 60 q 563 0 660 0 l 194 0 m 563 28 q 774 87 699 28 q 850 250 850 146 q 773 413 850 354 q 563 472 696 472 l 222 472 l 222 28 l 563 28 m 522 500 q 734 559 658 500 q 810 722 810 618 q 734 885 810 826 q 522 944 658 944 l 222 944 l 222 500 l 522 500 z "},"C":{"ha":1150,"x_min":97,"x_max":1060,"o":"m 594 -21 q 338 44 451 -21 q 161 224 225 108 q 97 486 97 339 q 161 749 97 633 q 338 928 225 864 q 594 993 451 993 q 817 945 718 993 q 978 810 915 897 q 1060 604 1042 722 l 1032 604 q 955 795 1014 714 q 803 921 896 876 q 594 965 711 965 q 351 905 458 965 q 185 735 244 844 q 125 486 125 626 q 185 238 125 347 q 351 68 244 129 q 594 7 458 7 q 803 51 711 7 q 955 177 896 96 q 1032 368 1014 258 l 1060 368 q 978 163 1042 250 q 817 27 915 75 q 594 -21 718 -21 z "},"Ć":{"ha":1150,"x_min":97,"x_max":1060,"o":"m 594 -21 q 338 44 451 -21 q 161 224 225 108 q 97 486 97 339 q 161 749 97 633 q 338 928 225 864 q 594 993 451 993 q 817 945 718 993 q 978 810 915 897 q 1060 604 1042 722 l 1032 604 q 955 795 1014 714 q 803 921 896 876 q 594 965 711 965 q 351 905 458 965 q 185 735 244 844 q 125 486 125 626 q 185 238 125 347 q 351 68 244 129 q 594 7 458 7 q 803 51 711 7 q 955 177 896 96 q 1032 368 1014 258 l 1060 368 q 978 163 1042 250 q 817 27 915 75 q 594 -21 718 -21 m 594 1090 l 686 1313 l 717 1313 l 624 1090 l 594 1090 z "},"Č":{"ha":1150,"x_min":97,"x_max":1060,"o":"m 594 -21 q 338 44 451 -21 q 161 224 225 108 q 97 486 97 339 q 161 749 97 633 q 338 928 225 864 q 594 993 451 993 q 817 945 718 993 q 978 810 915 897 q 1060 604 1042 722 l 1032 604 q 955 795 1014 714 q 803 921 896 876 q 594 965 711 965 q 351 905 458 965 q 185 735 244 844 q 125 486 125 626 q 185 238 125 347 q 351 68 244 129 q 594 7 458 7 q 803 51 711 7 q 955 177 896 96 q 1032 368 1014 258 l 1060 368 q 978 163 1042 250 q 817 27 915 75 q 594 -21 718 -21 m 356 1313 l 396 1313 l 594 1118 l 794 1313 l 833 1313 l 606 1090 l 583 1090 l 356 1313 z "},"Ç":{"ha":1150,"x_min":97,"x_max":1060,"o":"m 594 -21 q 338 44 451 -21 q 161 224 225 108 q 97 486 97 339 q 161 749 97 633 q 338 928 225 864 q 594 993 451 993 q 817 945 718 993 q 978 810 915 897 q 1060 604 1042 722 l 1032 604 q 955 795 1014 714 q 803 921 896 876 q 594 965 711 965 q 351 905 458 965 q 185 735 244 844 q 125 486 125 626 q 185 238 125 347 q 351 68 244 129 q 594 7 458 7 q 803 51 711 7 q 955 177 896 96 q 1032 368 1014 258 l 1060 368 q 978 163 1042 250 q 817 27 915 75 q 594 -21 718 -21 m 608 -118 l 517 -340 l 486 -340 l 579 -118 l 608 -118 z "},"Ċ":{"ha":1150,"x_min":97,"x_max":1060,"o":"m 594 -21 q 338 44 451 -21 q 161 224 225 108 q 97 486 97 339 q 161 749 97 633 q 338 928 225 864 q 594 993 451 993 q 817 945 718 993 q 978 810 915 897 q 1060 604 1042 722 l 1032 604 q 955 795 1014 714 q 803 921 896 876 q 594 965 711 965 q 351 905 458 965 q 185 735 244 844 q 125 486 125 626 q 185 238 125 347 q 351 68 244 129 q 594 7 458 7 q 803 51 711 7 q 955 177 896 96 q 1032 368 1014 258 l 1060 368 q 978 163 1042 250 q 817 27 915 75 q 594 -21 718 -21 m 588 1090 l 574 1313 l 615 1313 l 601 1090 l 588 1090 z "},"D":{"ha":1069,"x_min":194,"x_max":972,"o":"m 194 0 l 194 972 l 465 972 q 729 910 614 972 q 908 738 844 849 q 972 486 972 628 q 908 234 972 344 q 729 62 844 124 q 465 0 614 0 l 194 0 m 465 28 q 715 85 606 28 q 884 247 824 143 q 944 486 944 351 q 884 725 944 621 q 715 887 824 829 q 465 944 606 944 l 222 944 l 222 28 l 465 28 z "},"Ð":{"ha":1069,"x_min":76,"x_max":972,"o":"m 465 972 q 729 910 614 972 q 908 738 844 849 q 972 486 972 628 q 908 234 972 344 q 729 62 844 124 q 465 0 614 0 l 194 0 l 194 472 l 76 472 l 76 500 l 194 500 l 194 972 l 465 972 m 465 28 q 715 85 606 28 q 884 247 824 143 q 944 486 944 351 q 884 725 944 621 q 715 887 824 829 q 465 944 606 944 l 222 944 l 222 500 l 472 500 l 472 472 l 222 472 l 222 28 l 465 28 z "},"Ď":{"ha":1069,"x_min":194,"x_max":972,"o":"m 194 0 l 194 972 l 465 972 q 729 910 614 972 q 908 738 844 849 q 972 486 972 628 q 908 234 972 344 q 729 62 844 124 q 465 0 614 0 l 194 0 m 465 28 q 715 85 606 28 q 884 247 824 143 q 944 486 944 351 q 884 725 944 621 q 715 887 824 829 q 465 944 606 944 l 222 944 l 222 28 l 465 28 m 224 1313 l 264 1313 l 463 1118 l 663 1313 l 701 1313 l 474 1090 l 451 1090 l 224 1313 z "},"Đ":{"ha":1069,"x_min":76,"x_max":972,"o":"m 465 972 q 729 910 614 972 q 908 738 844 849 q 972 486 972 628 q 908 234 972 344 q 729 62 844 124 q 465 0 614 0 l 194 0 l 194 472 l 76 472 l 76 500 l 194 500 l 194 972 l 465 972 m 465 28 q 715 85 606 28 q 884 247 824 143 q 944 486 944 351 q 884 725 944 621 q 715 887 824 829 q 465 944 606 944 l 222 944 l 222 500 l 472 500 l 472 472 l 222 472 l 222 28 l 465 28 z "},"E":{"ha":819,"x_min":194,"x_max":778,"o":"m 194 0 l 194 972 l 708 972 l 708 944 l 222 944 l 222 500 l 589 500 l 589 472 l 222 472 l 222 28 l 778 28 l 778 0 l 194 0 z "},"É":{"ha":819,"x_min":194,"x_max":778,"o":"m 194 0 l 194 972 l 708 972 l 708 944 l 222 944 l 222 500 l 589 500 l 589 472 l 222 472 l 222 28 l 778 28 l 778 0 l 194 0 m 453 1090 l 544 1313 l 575 1313 l 482 1090 l 453 1090 z "},"Ě":{"ha":819,"x_min":194,"x_max":778,"o":"m 194 0 l 194 972 l 708 972 l 708 944 l 222 944 l 222 500 l 589 500 l 589 472 l 222 472 l 222 28 l 778 28 l 778 0 l 194 0 m 214 1313 l 254 1313 l 453 1118 l 653 1313 l 692 1313 l 464 1090 l 442 1090 l 214 1313 z "},"Ê":{"ha":819,"x_min":194,"x_max":778,"o":"m 194 0 l 194 972 l 708 972 l 708 944 l 222 944 l 222 500 l 589 500 l 589 472 l 222 472 l 222 28 l 778 28 l 778 0 l 194 0 z "},"Ë":{"ha":819,"x_min":194,"x_max":778,"o":"m 194 0 l 194 972 l 708 972 l 708 944 l 222 944 l 222 500 l 589 500 l 589 472 l 222 472 l 222 28 l 778 28 l 778 0 l 194 0 m 361 1090 l 349 1313 l 386 1313 l 374 1090 l 361 1090 m 533 1090 l 521 1313 l 558 1313 l 546 1090 l 533 1090 z "},"Ė":{"ha":819,"x_min":194,"x_max":778,"o":"m 194 0 l 194 972 l 708 972 l 708 944 l 222 944 l 222 500 l 589 500 l 589 472 l 222 472 l 222 28 l 778 28 l 778 0 l 194 0 m 446 1090 l 432 1313 l 474 1313 l 460 1090 l 446 1090 z "},"È":{"ha":819,"x_min":194,"x_max":778,"o":"m 194 0 l 194 972 l 708 972 l 708 944 l 222 944 l 222 500 l 589 500 l 589 472 l 222 472 l 222 28 l 778 28 l 778 0 l 194 0 m 453 1090 l 424 1090 l 331 1313 l 361 1313 l 453 1090 z "},"Ē":{"ha":819,"x_min":194,"x_max":778,"o":"m 194 0 l 194 972 l 708 972 l 708 944 l 222 944 l 222 500 l 589 500 l 589 472 l 222 472 l 222 28 l 778 28 l 778 0 l 194 0 m 231 1222 l 675 1222 l 675 1194 l 231 1194 l 231 1222 z "},"Ę":{"ha":819,"x_min":194,"x_max":779,"o":"m 194 0 l 194 972 l 708 972 l 708 944 l 222 944 l 222 500 l 589 500 l 589 472 l 222 472 l 222 28 l 778 28 l 778 0 l 194 0 m 779 -118 l 688 -340 l 657 -340 l 750 -118 l 779 -118 z "},"F":{"ha":743,"x_min":194,"x_max":736,"o":"m 194 0 l 194 972 l 736 972 l 736 944 l 222 944 l 222 500 l 617 500 l 617 472 l 222 472 l 222 0 l 194 0 z "},"G":{"ha":1181,"x_min":97,"x_max":1065,"o":"m 594 -21 q 338 44 451 -21 q 161 224 225 108 q 97 486 97 339 q 161 749 97 633 q 338 928 225 864 q 594 993 451 993 q 813 947 715 993 q 974 817 910 901 q 1058 618 1038 732 l 1029 618 q 882 872 999 778 q 594 965 765 965 q 351 905 458 965 q 185 735 244 844 q 125 486 125 626 q 185 238 125 347 q 351 68 244 129 q 594 7 458 7 q 822 63 721 7 q 981 219 924 119 q 1038 444 1038 318 l 1038 472 l 619 472 l 619 500 l 1065 500 l 1065 0 l 1038 0 l 1038 290 q 874 63 993 146 q 594 -21 756 -21 z "},"Ğ":{"ha":1181,"x_min":97,"x_max":1065,"o":"m 594 -21 q 338 44 451 -21 q 161 224 225 108 q 97 486 97 339 q 161 749 97 633 q 338 928 225 864 q 594 993 451 993 q 813 947 715 993 q 974 817 910 901 q 1058 618 1038 732 l 1029 618 q 882 872 999 778 q 594 965 765 965 q 351 905 458 965 q 185 735 244 844 q 125 486 125 626 q 185 238 125 347 q 351 68 244 129 q 594 7 458 7 q 822 63 721 7 q 981 219 924 119 q 1038 444 1038 318 l 1038 472 l 619 472 l 619 500 l 1065 500 l 1065 0 l 1038 0 l 1038 290 q 874 63 993 146 q 594 -21 756 -21 m 594 1090 q 470 1117 524 1090 q 388 1190 417 1143 q 358 1301 358 1238 l 358 1313 l 386 1313 l 386 1301 q 442 1167 386 1217 q 594 1118 497 1118 q 747 1167 692 1118 q 803 1301 803 1217 l 803 1313 l 831 1313 l 831 1301 q 801 1190 831 1238 q 719 1117 772 1143 q 594 1090 665 1090 z "},"Ģ":{"ha":1181,"x_min":97,"x_max":1065,"o":"m 594 -21 q 338 44 451 -21 q 161 224 225 108 q 97 486 97 339 q 161 749 97 633 q 338 928 225 864 q 594 993 451 993 q 813 947 715 993 q 974 817 910 901 q 1058 618 1038 732 l 1029 618 q 882 872 999 778 q 594 965 765 965 q 351 905 458 965 q 185 735 244 844 q 125 486 125 626 q 185 238 125 347 q 351 68 244 129 q 594 7 458 7 q 822 63 721 7 q 981 219 924 119 q 1038 444 1038 318 l 1038 472 l 619 472 l 619 500 l 1065 500 l 1065 0 l 1038 0 l 1038 290 q 874 63 993 146 q 594 -21 756 -21 m 606 -340 l 578 -340 l 578 -340 q 623 -260 606 -300 q 642 -185 640 -221 q 638 -185 640 -185 q 635 -185 636 -185 q 610 -176 619 -185 q 601 -151 601 -167 q 611 -127 601 -137 q 636 -117 621 -117 q 661 -128 651 -117 q 671 -157 671 -139 q 650 -255 671 -199 q 606 -340 629 -311 z "},"Ġ":{"ha":1181,"x_min":97,"x_max":1065,"o":"m 594 -21 q 338 44 451 -21 q 161 224 225 108 q 97 486 97 339 q 161 749 97 633 q 338 928 225 864 q 594 993 451 993 q 813 947 715 993 q 974 817 910 901 q 1058 618 1038 732 l 1029 618 q 882 872 999 778 q 594 965 765 965 q 351 905 458 965 q 185 735 244 844 q 125 486 125 626 q 185 238 125 347 q 351 68 244 129 q 594 7 458 7 q 822 63 721 7 q 981 219 924 119 q 1038 444 1038 318 l 1038 472 l 619 472 l 619 500 l 1065 500 l 1065 0 l 1038 0 l 1038 290 q 874 63 993 146 q 594 -21 756 -21 m 588 1090 l 574 1313 l 615 1313 l 601 1090 l 588 1090 z "},"H":{"ha":1139,"x_min":194,"x_max":944,"o":"m 194 0 l 194 972 l 222 972 l 222 500 l 917 500 l 917 972 l 944 972 l 944 0 l 917 0 l 917 472 l 222 472 l 222 0 l 194 0 z "},"Ħ":{"ha":1139,"x_min":83,"x_max":1056,"o":"m 1056 778 l 1056 750 l 944 750 l 944 0 l 917 0 l 917 472 l 222 472 l 222 0 l 194 0 l 194 750 l 83 750 l 83 778 l 194 778 l 194 972 l 222 972 l 222 778 l 917 778 l 917 972 l 944 972 l 944 778 l 1056 778 m 917 500 l 917 750 l 222 750 l 222 500 l 917 500 z "},"I":{"ha":417,"x_min":194,"x_max":222,"o":"m 194 0 l 194 972 l 222 972 l 222 0 l 194 0 z "},"Í":{"ha":417,"x_min":194,"x_max":331,"o":"m 194 0 l 194 972 l 222 972 l 222 0 l 194 0 m 208 1090 l 300 1313 l 331 1313 l 238 1090 l 208 1090 z "},"Î":{"ha":417,"x_min":-31,"x_max":447,"o":"m 194 0 l 194 972 l 222 972 l 222 0 l 194 0 z "},"Ï":{"ha":417,"x_min":104,"x_max":314,"o":"m 194 0 l 194 972 l 222 972 l 222 0 l 194 0 m 117 1090 l 104 1313 l 142 1313 l 129 1090 l 117 1090 m 289 1090 l 276 1313 l 314 1313 l 301 1090 l 289 1090 z "},"İ":{"ha":417,"x_min":188,"x_max":229,"o":"m 194 0 l 194 972 l 222 972 l 222 0 l 194 0 m 201 1090 l 188 1313 l 229 1313 l 215 1090 l 201 1090 z "},"Ì":{"ha":417,"x_min":86,"x_max":222,"o":"m 194 0 l 194 972 l 222 972 l 222 0 l 194 0 m 208 1090 l 179 1090 l 86 1313 l 117 1313 l 208 1090 z "},"Ī":{"ha":417,"x_min":-14,"x_max":431,"o":"m 194 0 l 194 972 l 222 972 l 222 0 l 194 0 m -14 1222 l 431 1222 l 431 1194 l -14 1194 l -14 1222 z "},"Į":{"ha":417,"x_min":101,"x_max":224,"o":"m 194 0 l 194 972 l 222 972 l 222 0 l 194 0 m 224 -118 l 132 -340 l 101 -340 l 194 -118 l 224 -118 z "},"J":{"ha":858,"x_min":56,"x_max":692,"o":"m 381 -21 q 211 22 285 -21 q 97 144 138 65 q 56 328 56 224 l 56 375 l 83 375 l 83 328 q 121 158 83 231 q 226 47 158 86 q 381 7 293 7 q 588 94 511 7 q 664 328 664 181 l 664 972 l 692 972 l 692 328 q 653 144 692 224 q 544 22 615 65 q 381 -21 474 -21 z "},"K":{"ha":922,"x_min":194,"x_max":867,"o":"m 194 0 l 194 972 l 222 972 l 222 500 l 419 500 l 831 972 l 867 972 l 443 486 l 867 0 l 829 0 l 418 472 l 222 472 l 222 0 l 194 0 z "},"Ķ":{"ha":922,"x_min":194,"x_max":867,"o":"m 194 0 l 194 972 l 222 972 l 222 500 l 419 500 l 831 972 l 867 972 l 443 486 l 867 0 l 829 0 l 418 472 l 222 472 l 222 0 l 194 0 m 453 -340 l 425 -340 l 425 -340 q 470 -260 453 -300 q 489 -185 488 -221 q 485 -185 488 -185 q 482 -185 483 -185 q 458 -176 467 -185 q 449 -151 449 -167 q 458 -127 449 -137 q 483 -117 468 -117 q 508 -128 499 -117 q 518 -157 518 -139 q 497 -255 518 -199 q 453 -340 476 -311 z "},"L":{"ha":819,"x_min":194,"x_max":764,"o":"m 194 0 l 194 972 l 222 972 l 222 28 l 764 28 l 764 0 l 194 0 z "},"Ĺ":{"ha":819,"x_min":194,"x_max":764,"o":"m 194 0 l 194 972 l 222 972 l 222 28 l 764 28 l 764 0 l 194 0 m 208 1090 l 300 1313 l 331 1313 l 238 1090 l 208 1090 z "},"Ľ":{"ha":819,"x_min":194,"x_max":764,"o":"m 194 0 l 194 972 l 222 972 l 222 28 l 764 28 l 764 0 l 194 0 m 319 750 l 319 972 l 347 972 l 344 750 l 319 750 z "},"Ļ":{"ha":819,"x_min":194,"x_max":764,"o":"m 194 0 l 194 972 l 222 972 l 222 28 l 764 28 l 764 0 l 194 0 m 453 -340 l 425 -340 l 425 -340 q 470 -260 453 -300 q 489 -185 488 -221 q 485 -185 488 -185 q 482 -185 483 -185 q 458 -176 467 -185 q 449 -151 449 -167 q 458 -127 449 -137 q 483 -117 468 -117 q 508 -128 499 -117 q 518 -157 518 -139 q 497 -255 518 -199 q 453 -340 476 -311 z "},"Ł":{"ha":819,"x_min":76,"x_max":764,"o":"m 222 28 l 764 28 l 764 0 l 194 0 l 194 444 l 76 375 l 76 407 l 194 476 l 194 972 l 222 972 l 222 493 l 472 640 l 472 608 l 222 461 l 222 28 z "},"M":{"ha":1353,"x_min":194,"x_max":1158,"o":"m 194 0 l 194 972 l 239 972 l 678 25 l 1115 972 l 1158 972 l 1158 0 l 1131 0 l 1131 942 l 694 0 l 658 0 l 222 942 l 222 0 l 194 0 z "},"N":{"ha":1167,"x_min":194,"x_max":972,"o":"m 194 0 l 194 972 l 228 972 l 944 39 l 944 972 l 972 972 l 972 0 l 940 0 l 222 933 l 222 0 l 194 0 z "},"Ń":{"ha":1167,"x_min":194,"x_max":972,"o":"m 194 0 l 194 972 l 228 972 l 944 39 l 944 972 l 972 972 l 972 0 l 940 0 l 222 933 l 222 0 l 194 0 m 583 1090 l 675 1313 l 706 1313 l 613 1090 l 583 1090 z "},"Ň":{"ha":1167,"x_min":194,"x_max":972,"o":"m 194 0 l 194 972 l 228 972 l 944 39 l 944 972 l 972 972 l 972 0 l 940 0 l 222 933 l 222 0 l 194 0 m 344 1313 l 385 1313 l 583 1118 l 783 1313 l 822 1313 l 594 1090 l 572 1090 l 344 1313 z "},"Ņ":{"ha":1167,"x_min":194,"x_max":972,"o":"m 194 0 l 194 972 l 228 972 l 944 39 l 944 972 l 972 972 l 972 0 l 940 0 l 222 933 l 222 0 l 194 0 m 553 -340 l 525 -340 l 525 -340 q 570 -260 553 -300 q 589 -185 588 -221 q 585 -185 588 -185 q 582 -185 583 -185 q 558 -176 567 -185 q 549 -151 549 -167 q 558 -127 549 -137 q 583 -117 568 -117 q 608 -128 599 -117 q 618 -157 618 -139 q 597 -255 618 -199 q 553 -340 576 -311 z "},"Ŋ":{"ha":1167,"x_min":194,"x_max":972,"o":"m 750 -292 q 644 -272 692 -292 q 569 -215 596 -251 q 542 -135 542 -179 l 569 -135 l 569 -136 q 593 -201 569 -172 q 658 -247 617 -231 q 750 -264 700 -264 q 891 -213 838 -264 q 944 -65 944 -162 q 937 -6 944 -26 q 910 40 929 15 l 222 933 l 222 0 l 194 0 l 194 972 l 228 972 l 944 39 l 944 972 l 972 972 l 972 -67 q 913 -230 972 -168 q 750 -292 853 -292 z "},"Ñ":{"ha":1167,"x_min":194,"x_max":972,"o":"m 194 0 l 194 972 l 228 972 l 944 39 l 944 972 l 972 972 l 972 0 l 940 0 l 222 933 l 222 0 l 194 0 m 326 1158 q 362 1228 326 1199 q 444 1258 397 1258 q 512 1249 481 1258 q 588 1221 543 1239 q 663 1194 635 1203 q 722 1186 690 1186 q 785 1208 758 1186 q 813 1258 813 1231 l 840 1258 q 805 1188 840 1218 q 722 1158 769 1158 q 655 1168 686 1158 q 579 1196 624 1178 q 504 1222 532 1214 q 444 1231 476 1231 q 381 1208 408 1231 q 354 1158 354 1186 l 326 1158 z "},"O":{"ha":1194,"x_min":97,"x_max":1097,"o":"m 597 -21 q 342 45 456 -21 q 163 227 228 111 q 97 486 97 343 q 163 745 97 629 q 342 927 228 861 q 597 993 456 993 q 853 927 739 993 q 1032 745 967 861 q 1097 486 1097 629 q 1032 227 1097 343 q 853 45 967 111 q 597 -21 739 -21 m 597 7 q 838 69 731 7 q 1008 241 946 132 q 1069 486 1069 350 q 1008 731 1069 622 q 838 903 946 840 q 597 965 731 965 q 356 903 464 965 q 187 731 249 840 q 125 486 125 622 q 187 241 125 350 q 356 69 249 132 q 597 7 464 7 z "},"Ó":{"ha":1194,"x_min":97,"x_max":1097,"o":"m 597 -21 q 342 45 456 -21 q 163 227 228 111 q 97 486 97 343 q 163 745 97 629 q 342 927 228 861 q 597 993 456 993 q 853 927 739 993 q 1032 745 967 861 q 1097 486 1097 629 q 1032 227 1097 343 q 853 45 967 111 q 597 -21 739 -21 m 597 7 q 838 69 731 7 q 1008 241 946 132 q 1069 486 1069 350 q 1008 731 1069 622 q 838 903 946 840 q 597 965 731 965 q 356 903 464 965 q 187 731 249 840 q 125 486 125 622 q 187 241 125 350 q 356 69 249 132 q 597 7 464 7 m 597 1090 l 689 1313 l 719 1313 l 626 1090 l 597 1090 z "},"Ô":{"ha":1194,"x_min":97,"x_max":1097,"o":"m 597 -21 q 342 45 456 -21 q 163 227 228 111 q 97 486 97 343 q 163 745 97 629 q 342 927 228 861 q 597 993 456 993 q 853 927 739 993 q 1032 745 967 861 q 1097 486 1097 629 q 1032 227 1097 343 q 853 45 967 111 q 597 -21 739 -21 m 597 7 q 838 69 731 7 q 1008 241 946 132 q 1069 486 1069 350 q 1008 731 1069 622 q 838 903 946 840 q 597 965 731 965 q 356 903 464 965 q 187 731 249 840 q 125 486 125 622 q 187 241 125 350 q 356 69 249 132 q 597 7 464 7 z "},"Ö":{"ha":1194,"x_min":97,"x_max":1097,"o":"m 597 -21 q 342 45 456 -21 q 163 227 228 111 q 97 486 97 343 q 163 745 97 629 q 342 927 228 861 q 597 993 456 993 q 853 927 739 993 q 1032 745 967 861 q 1097 486 1097 629 q 1032 227 1097 343 q 853 45 967 111 q 597 -21 739 -21 m 597 7 q 838 69 731 7 q 1008 241 946 132 q 1069 486 1069 350 q 1008 731 1069 622 q 838 903 946 840 q 597 965 731 965 q 356 903 464 965 q 187 731 249 840 q 125 486 125 622 q 187 241 125 350 q 356 69 249 132 q 597 7 464 7 m 506 1090 l 493 1313 l 531 1313 l 518 1090 l 506 1090 m 678 1090 l 665 1313 l 703 1313 l 690 1090 l 678 1090 z "},"Ò":{"ha":1194,"x_min":97,"x_max":1097,"o":"m 597 -21 q 342 45 456 -21 q 163 227 228 111 q 97 486 97 343 q 163 745 97 629 q 342 927 228 861 q 597 993 456 993 q 853 927 739 993 q 1032 745 967 861 q 1097 486 1097 629 q 1032 227 1097 343 q 853 45 967 111 q 597 -21 739 -21 m 597 7 q 838 69 731 7 q 1008 241 946 132 q 1069 486 1069 350 q 1008 731 1069 622 q 838 903 946 840 q 597 965 731 965 q 356 903 464 965 q 187 731 249 840 q 125 486 125 622 q 187 241 125 350 q 356 69 249 132 q 597 7 464 7 m 597 1090 l 568 1090 l 475 1313 l 506 1313 l 597 1090 z "},"Ő":{"ha":1194,"x_min":97,"x_max":1097,"o":"m 597 -21 q 342 45 456 -21 q 163 227 228 111 q 97 486 97 343 q 163 745 97 629 q 342 927 228 861 q 597 993 456 993 q 853 927 739 993 q 1032 745 967 861 q 1097 486 1097 629 q 1032 227 1097 343 q 853 45 967 111 q 597 -21 739 -21 m 597 7 q 838 69 731 7 q 1008 241 946 132 q 1069 486 1069 350 q 1008 731 1069 622 q 838 903 946 840 q 597 965 731 965 q 356 903 464 965 q 187 731 249 840 q 125 486 125 622 q 187 241 125 350 q 356 69 249 132 q 597 7 464 7 z "},"Ō":{"ha":1194,"x_min":97,"x_max":1097,"o":"m 597 -21 q 342 45 456 -21 q 163 227 228 111 q 97 486 97 343 q 163 745 97 629 q 342 927 228 861 q 597 993 456 993 q 853 927 739 993 q 1032 745 967 861 q 1097 486 1097 629 q 1032 227 1097 343 q 853 45 967 111 q 597 -21 739 -21 m 597 7 q 838 69 731 7 q 1008 241 946 132 q 1069 486 1069 350 q 1008 731 1069 622 q 838 903 946 840 q 597 965 731 965 q 356 903 464 965 q 187 731 249 840 q 125 486 125 622 q 187 241 125 350 q 356 69 249 132 q 597 7 464 7 m 375 1222 l 819 1222 l 819 1194 l 375 1194 l 375 1222 z "},"Ø":{"ha":1194,"x_min":97,"x_max":1097,"o":"m 597 -21 q 410 13 497 -21 q 256 108 322 47 l 151 0 l 114 0 l 236 128 q 133 288 169 196 q 97 486 97 381 q 163 745 97 629 q 342 927 228 861 q 597 993 456 993 q 785 959 697 993 q 940 863 872 925 l 1044 972 l 1082 972 l 958 844 q 1061 684 1025 776 q 1097 486 1097 592 q 1032 227 1097 343 q 853 45 967 111 q 597 -21 739 -21 m 921 843 q 774 933 857 901 q 597 965 692 965 q 356 903 464 965 q 187 731 249 840 q 125 486 125 622 q 159 299 125 386 q 256 147 193 213 l 921 843 m 597 7 q 838 69 731 7 q 1008 241 946 132 q 1069 486 1069 350 q 1035 672 1069 586 q 940 824 1001 758 l 275 129 q 420 39 338 71 q 597 7 503 7 z "},"Õ":{"ha":1194,"x_min":97,"x_max":1097,"o":"m 597 -21 q 342 45 456 -21 q 163 227 228 111 q 97 486 97 343 q 163 745 97 629 q 342 927 228 861 q 597 993 456 993 q 853 927 739 993 q 1032 745 967 861 q 1097 486 1097 629 q 1032 227 1097 343 q 853 45 967 111 q 597 -21 739 -21 m 597 7 q 838 69 731 7 q 1008 241 946 132 q 1069 486 1069 350 q 1008 731 1069 622 q 838 903 946 840 q 597 965 731 965 q 356 903 464 965 q 187 731 249 840 q 125 486 125 622 q 187 241 125 350 q 356 69 249 132 q 597 7 464 7 m 340 1158 q 376 1228 340 1199 q 458 1258 411 1258 q 526 1249 494 1258 q 601 1221 557 1239 q 676 1194 649 1203 q 736 1186 704 1186 q 799 1208 772 1186 q 826 1258 826 1231 l 854 1258 q 819 1188 854 1218 q 736 1158 783 1158 q 669 1168 700 1158 q 593 1196 638 1178 q 518 1222 546 1214 q 458 1231 490 1231 q 395 1208 422 1231 q 368 1158 368 1186 l 340 1158 z "},"Œ":{"ha":1431,"x_min":97,"x_max":1389,"o":"m 604 0 q 340 62 456 0 q 161 234 225 124 q 97 486 97 344 q 161 738 97 628 q 340 910 225 849 q 604 972 456 972 l 1319 972 l 1319 944 l 833 944 l 833 500 l 1214 500 l 1214 472 l 833 472 l 833 28 l 1389 28 l 1389 0 l 604 0 m 604 28 l 806 28 l 806 944 l 604 944 q 355 887 464 944 q 185 725 246 829 q 125 486 125 621 q 185 247 125 351 q 355 85 246 143 q 604 28 464 28 z "},"P":{"ha":875,"x_min":194,"x_max":792,"o":"m 194 0 l 194 972 l 440 972 q 698 898 604 972 q 792 694 792 824 q 698 491 792 565 q 440 417 604 417 l 222 417 l 222 0 l 194 0 m 440 444 q 678 511 593 444 q 764 694 764 578 q 678 878 764 811 q 440 944 593 944 l 222 944 l 222 444 l 440 444 z "},"Þ":{"ha":875,"x_min":194,"x_max":792,"o":"m 194 0 l 194 972 l 222 972 l 222 771 l 440 771 q 628 738 549 771 q 749 642 707 704 q 792 493 792 579 q 749 344 792 407 q 628 249 707 282 q 440 215 549 215 l 222 215 l 222 0 l 194 0 m 440 243 q 678 310 593 243 q 764 493 764 376 q 678 676 764 610 q 440 743 593 743 l 222 743 l 222 243 l 440 243 z "},"Q":{"ha":1194,"x_min":97,"x_max":1097,"o":"m 583 -21 q 335 49 446 -18 q 160 231 224 117 q 97 486 97 344 q 163 745 97 629 q 342 927 228 861 q 597 993 456 993 q 853 927 739 993 q 1032 745 967 861 q 1097 486 1097 629 q 1034 231 1097 344 q 860 49 971 117 q 611 -21 749 -18 l 611 -278 l 583 -278 l 583 -21 m 597 7 q 838 69 731 7 q 1008 241 946 132 q 1069 486 1069 350 q 1008 731 1069 622 q 838 903 946 840 q 597 965 731 965 q 356 903 464 965 q 187 731 249 840 q 125 486 125 622 q 187 241 125 350 q 356 69 249 132 q 597 7 464 7 z "},"R":{"ha":915,"x_min":194,"x_max":888,"o":"m 194 0 l 194 972 l 440 972 q 698 898 604 972 q 792 694 792 824 q 719 510 792 582 q 519 422 647 439 l 888 0 l 850 0 l 485 418 q 463 417 474 417 q 440 417 451 417 l 222 417 l 222 0 l 194 0 m 440 444 q 678 511 593 444 q 764 694 764 578 q 678 878 764 811 q 440 944 593 944 l 222 944 l 222 444 l 440 444 z "},"Ŕ":{"ha":915,"x_min":194,"x_max":888,"o":"m 194 0 l 194 972 l 440 972 q 698 898 604 972 q 792 694 792 824 q 719 510 792 582 q 519 422 647 439 l 888 0 l 850 0 l 485 418 q 463 417 474 417 q 440 417 451 417 l 222 417 l 222 0 l 194 0 m 440 444 q 678 511 593 444 q 764 694 764 578 q 678 878 764 811 q 440 944 593 944 l 222 944 l 222 444 l 440 444 m 442 1090 l 533 1313 l 564 1313 l 471 1090 l 442 1090 z "},"Ř":{"ha":915,"x_min":194,"x_max":888,"o":"m 194 0 l 194 972 l 440 972 q 698 898 604 972 q 792 694 792 824 q 719 510 792 582 q 519 422 647 439 l 888 0 l 850 0 l 485 418 q 463 417 474 417 q 440 417 451 417 l 222 417 l 222 0 l 194 0 m 440 444 q 678 511 593 444 q 764 694 764 578 q 678 878 764 811 q 440 944 593 944 l 222 944 l 222 444 l 440 444 m 203 1313 l 243 1313 l 442 1118 l 642 1313 l 681 1313 l 453 1090 l 431 1090 l 203 1313 z "},"Ŗ":{"ha":915,"x_min":194,"x_max":888,"o":"m 194 0 l 194 972 l 440 972 q 698 898 604 972 q 792 694 792 824 q 719 510 792 582 q 519 422 647 439 l 888 0 l 850 0 l 485 418 q 463 417 474 417 q 440 417 451 417 l 222 417 l 222 0 l 194 0 m 440 444 q 678 511 593 444 q 764 694 764 578 q 678 878 764 811 q 440 944 593 944 l 222 944 l 222 444 l 440 444 m 453 -340 l 425 -340 l 425 -340 q 470 -260 453 -300 q 489 -185 488 -221 q 485 -185 488 -185 q 482 -185 483 -185 q 458 -176 467 -185 q 449 -151 449 -167 q 458 -127 449 -137 q 483 -117 468 -117 q 508 -128 499 -117 q 518 -157 518 -139 q 497 -255 518 -199 q 453 -340 476 -311 z "},"S":{"ha":889,"x_min":63,"x_max":814,"o":"m 467 -21 q 267 21 354 -21 q 127 138 179 63 q 63 311 75 213 l 89 311 q 151 151 103 219 q 281 44 200 82 q 467 7 361 7 q 702 67 618 7 q 786 238 786 128 q 740 365 786 318 q 625 434 694 413 q 449 474 556 456 l 447 474 q 263 514 335 492 q 140 586 190 536 q 89 725 89 636 q 132 867 89 806 q 252 960 175 928 q 431 993 329 993 q 617 953 536 993 q 747 840 697 914 q 806 667 796 767 l 778 667 q 669 886 761 807 q 431 965 576 965 q 267 936 338 965 q 156 852 196 907 q 117 725 117 797 q 160 607 117 650 q 267 544 203 564 q 435 506 332 524 q 442 504 438 504 q 449 503 446 504 q 454 501 451 501 q 460 500 457 501 q 647 456 576 479 q 765 381 717 433 q 814 238 814 329 q 772 98 814 156 q 653 10 731 40 q 467 -21 575 -21 z "},"Ś":{"ha":889,"x_min":63,"x_max":814,"o":"m 467 -21 q 267 21 354 -21 q 127 138 179 63 q 63 311 75 213 l 89 311 q 151 151 103 219 q 281 44 200 82 q 467 7 361 7 q 702 67 618 7 q 786 238 786 128 q 740 365 786 318 q 625 434 694 413 q 449 474 556 456 l 447 474 q 263 514 335 492 q 140 586 190 536 q 89 725 89 636 q 132 867 89 806 q 252 960 175 928 q 431 993 329 993 q 617 953 536 993 q 747 840 697 914 q 806 667 796 767 l 778 667 q 669 886 761 807 q 431 965 576 965 q 267 936 338 965 q 156 852 196 907 q 117 725 117 797 q 160 607 117 650 q 267 544 203 564 q 435 506 332 524 q 442 504 438 504 q 449 503 446 504 q 454 501 451 501 q 460 500 457 501 q 647 456 576 479 q 765 381 717 433 q 814 238 814 329 q 772 98 814 156 q 653 10 731 40 q 467 -21 575 -21 m 432 1090 l 524 1313 l 554 1313 l 461 1090 l 432 1090 z "},"Š":{"ha":889,"x_min":63,"x_max":814,"o":"m 467 -21 q 267 21 354 -21 q 127 138 179 63 q 63 311 75 213 l 89 311 q 151 151 103 219 q 281 44 200 82 q 467 7 361 7 q 702 67 618 7 q 786 238 786 128 q 740 365 786 318 q 625 434 694 413 q 449 474 556 456 l 447 474 q 263 514 335 492 q 140 586 190 536 q 89 725 89 636 q 132 867 89 806 q 252 960 175 928 q 431 993 329 993 q 617 953 536 993 q 747 840 697 914 q 806 667 796 767 l 778 667 q 669 886 761 807 q 431 965 576 965 q 267 936 338 965 q 156 852 196 907 q 117 725 117 797 q 160 607 117 650 q 267 544 203 564 q 435 506 332 524 q 442 504 438 504 q 449 503 446 504 q 454 501 451 501 q 460 500 457 501 q 647 456 576 479 q 765 381 717 433 q 814 238 814 329 q 772 98 814 156 q 653 10 731 40 q 467 -21 575 -21 m 193 1313 l 233 1313 l 432 1118 l 632 1313 l 671 1313 l 443 1090 l 421 1090 l 193 1313 z "},"Ş":{"ha":889,"x_min":63,"x_max":814,"o":"m 467 -21 q 267 21 354 -21 q 127 138 179 63 q 63 311 75 213 l 89 311 q 151 151 103 219 q 281 44 200 82 q 467 7 361 7 q 702 67 618 7 q 786 238 786 128 q 740 365 786 318 q 625 434 694 413 q 449 474 556 456 l 447 474 q 263 514 335 492 q 140 586 190 536 q 89 725 89 636 q 132 867 89 806 q 252 960 175 928 q 431 993 329 993 q 617 953 536 993 q 747 840 697 914 q 806 667 796 767 l 778 667 q 669 886 761 807 q 431 965 576 965 q 267 936 338 965 q 156 852 196 907 q 117 725 117 797 q 160 607 117 650 q 267 544 203 564 q 435 506 332 524 q 442 504 438 504 q 449 503 446 504 q 454 501 451 501 q 460 500 457 501 q 647 456 576 479 q 765 381 717 433 q 814 238 814 329 q 772 98 814 156 q 653 10 731 40 q 467 -21 575 -21 m 460 -118 l 368 -340 l 338 -340 l 431 -118 l 460 -118 z "},"Ș":{"ha":889,"x_min":63,"x_max":814,"o":"m 467 -21 q 267 21 354 -21 q 127 138 179 63 q 63 311 75 213 l 89 311 q 151 151 103 219 q 281 44 200 82 q 467 7 361 7 q 702 67 618 7 q 786 238 786 128 q 740 365 786 318 q 625 434 694 413 q 449 474 556 456 l 447 474 q 263 514 335 492 q 140 586 190 536 q 89 725 89 636 q 132 867 89 806 q 252 960 175 928 q 431 993 329 993 q 617 953 536 993 q 747 840 697 914 q 806 667 796 767 l 778 667 q 669 886 761 807 q 431 965 576 965 q 267 936 338 965 q 156 852 196 907 q 117 725 117 797 q 160 607 117 650 q 267 544 203 564 q 435 506 332 524 q 442 504 438 504 q 449 503 446 504 q 454 501 451 501 q 460 500 457 501 q 647 456 576 479 q 765 381 717 433 q 814 238 814 329 q 772 98 814 156 q 653 10 731 40 q 467 -21 575 -21 m 415 -340 l 388 -340 l 388 -340 q 433 -260 415 -300 q 451 -185 450 -221 q 448 -185 450 -185 q 444 -185 446 -185 q 420 -176 429 -185 q 411 -151 411 -167 q 421 -127 411 -137 q 446 -117 431 -117 q 471 -128 461 -117 q 481 -157 481 -139 q 460 -255 481 -199 q 415 -340 439 -311 z "},"ẞ":{"ha":1164,"x_min":194,"x_max":1081,"o":"m 728 -21 q 547 17 628 -21 q 421 124 467 56 q 375 276 375 192 l 403 276 q 445 138 403 199 q 561 42 488 76 q 728 7 635 7 q 894 43 821 7 q 1010 144 968 79 q 1053 289 1053 208 q 981 478 1053 407 q 789 550 908 550 q 690 537 739 550 q 611 501 642 524 l 596 490 l 578 511 l 996 944 l 222 944 l 222 0 l 194 0 l 194 972 l 1026 972 l 1026 936 l 647 544 q 718 569 682 561 q 790 578 754 578 q 941 542 875 578 q 1044 440 1007 506 q 1081 292 1081 375 q 1035 131 1081 203 q 909 19 989 60 q 728 -21 829 -21 z "},"T":{"ha":889,"x_min":28,"x_max":861,"o":"m 431 0 l 431 944 l 28 944 l 28 972 l 861 972 l 861 944 l 458 944 l 458 0 l 431 0 z "},"Ŧ":{"ha":889,"x_min":28,"x_max":861,"o":"m 861 944 l 458 944 l 458 500 l 674 500 l 674 472 l 458 472 l 458 0 l 431 0 l 431 472 l 215 472 l 215 500 l 431 500 l 431 944 l 28 944 l 28 972 l 861 972 l 861 944 z "},"Ť":{"ha":889,"x_min":28,"x_max":861,"o":"m 431 0 l 431 944 l 28 944 l 28 972 l 861 972 l 861 944 l 458 944 l 458 0 l 431 0 m 206 1313 l 246 1313 l 444 1118 l 644 1313 l 683 1313 l 456 1090 l 433 1090 l 206 1313 z "},"Ţ":{"ha":889,"x_min":28,"x_max":861,"o":"m 431 0 l 431 944 l 28 944 l 28 972 l 861 972 l 861 944 l 458 944 l 458 0 l 431 0 m 458 -118 l 367 -340 l 336 -340 l 429 -118 l 458 -118 z "},"Ț":{"ha":889,"x_min":28,"x_max":861,"o":"m 431 0 l 431 944 l 28 944 l 28 972 l 861 972 l 861 944 l 458 944 l 458 0 l 431 0 m 414 -340 l 386 -340 l 386 -340 q 431 -260 414 -300 q 450 -185 449 -221 q 447 -185 449 -185 q 443 -185 444 -185 q 419 -176 428 -185 q 410 -151 410 -167 q 419 -127 410 -137 q 444 -117 429 -117 q 469 -128 460 -117 q 479 -157 479 -139 q 458 -255 479 -199 q 414 -340 438 -311 z "},"U":{"ha":1139,"x_min":167,"x_max":972,"o":"m 569 -21 q 358 33 449 -21 q 217 183 267 86 q 167 411 167 281 l 167 972 l 194 972 l 194 411 q 240 197 194 289 q 371 56 286 106 q 569 7 456 7 q 768 56 683 7 q 899 197 853 106 q 944 411 944 289 l 944 972 l 972 972 l 972 411 q 922 183 972 281 q 781 33 872 86 q 569 -21 690 -21 z "},"Ú":{"ha":1139,"x_min":167,"x_max":972,"o":"m 569 -21 q 358 33 449 -21 q 217 183 267 86 q 167 411 167 281 l 167 972 l 194 972 l 194 411 q 240 197 194 289 q 371 56 286 106 q 569 7 456 7 q 768 56 683 7 q 899 197 853 106 q 944 411 944 289 l 944 972 l 972 972 l 972 411 q 922 183 972 281 q 781 33 872 86 q 569 -21 690 -21 m 569 1090 l 661 1313 l 692 1313 l 599 1090 l 569 1090 z "},"Û":{"ha":1139,"x_min":167,"x_max":972,"o":"m 569 -21 q 358 33 449 -21 q 217 183 267 86 q 167 411 167 281 l 167 972 l 194 972 l 194 411 q 240 197 194 289 q 371 56 286 106 q 569 7 456 7 q 768 56 683 7 q 899 197 853 106 q 944 411 944 289 l 944 972 l 972 972 l 972 411 q 922 183 972 281 q 781 33 872 86 q 569 -21 690 -21 z "},"Ü":{"ha":1139,"x_min":167,"x_max":972,"o":"m 569 -21 q 358 33 449 -21 q 217 183 267 86 q 167 411 167 281 l 167 972 l 194 972 l 194 411 q 240 197 194 289 q 371 56 286 106 q 569 7 456 7 q 768 56 683 7 q 899 197 853 106 q 944 411 944 289 l 944 972 l 972 972 l 972 411 q 922 183 972 281 q 781 33 872 86 q 569 -21 690 -21 m 478 1090 l 465 1313 l 503 1313 l 490 1090 l 478 1090 m 650 1090 l 638 1313 l 675 1313 l 663 1090 l 650 1090 z "},"Ù":{"ha":1139,"x_min":167,"x_max":972,"o":"m 569 -21 q 358 33 449 -21 q 217 183 267 86 q 167 411 167 281 l 167 972 l 194 972 l 194 411 q 240 197 194 289 q 371 56 286 106 q 569 7 456 7 q 768 56 683 7 q 899 197 853 106 q 944 411 944 289 l 944 972 l 972 972 l 972 411 q 922 183 972 281 q 781 33 872 86 q 569 -21 690 -21 m 569 1090 l 540 1090 l 447 1313 l 478 1313 l 569 1090 z "},"Ű":{"ha":1139,"x_min":167,"x_max":972,"o":"m 569 -21 q 358 33 449 -21 q 217 183 267 86 q 167 411 167 281 l 167 972 l 194 972 l 194 411 q 240 197 194 289 q 371 56 286 106 q 569 7 456 7 q 768 56 683 7 q 899 197 853 106 q 944 411 944 289 l 944 972 l 972 972 l 972 411 q 922 183 972 281 q 781 33 872 86 q 569 -21 690 -21 z "},"Ū":{"ha":1139,"x_min":167,"x_max":972,"o":"m 569 -21 q 358 33 449 -21 q 217 183 267 86 q 167 411 167 281 l 167 972 l 194 972 l 194 411 q 240 197 194 289 q 371 56 286 106 q 569 7 456 7 q 768 56 683 7 q 899 197 853 106 q 944 411 944 289 l 944 972 l 972 972 l 972 411 q 922 183 972 281 q 781 33 872 86 q 569 -21 690 -21 m 347 1222 l 792 1222 l 792 1194 l 347 1194 l 347 1222 z "},"Ų":{"ha":1139,"x_min":167,"x_max":972,"o":"m 569 -21 q 358 33 449 -21 q 217 183 267 86 q 167 411 167 281 l 167 972 l 194 972 l 194 411 q 240 197 194 289 q 371 56 286 106 q 569 7 456 7 q 768 56 683 7 q 899 197 853 106 q 944 411 944 289 l 944 972 l 972 972 l 972 411 q 922 183 972 281 q 781 33 872 86 q 569 -21 690 -21 m 946 -118 l 854 -340 l 824 -340 l 917 -118 l 946 -118 z "},"Ů":{"ha":1139,"x_min":167,"x_max":972,"o":"m 569 -21 q 358 33 449 -21 q 217 183 267 86 q 167 411 167 281 l 167 972 l 194 972 l 194 411 q 240 197 194 289 q 371 56 286 106 q 569 7 456 7 q 768 56 683 7 q 899 197 853 106 q 944 411 944 289 l 944 972 l 972 972 l 972 411 q 922 183 972 281 q 781 33 872 86 q 569 -21 690 -21 m 569 1090 q 485 1113 524 1090 q 425 1173 447 1135 q 403 1257 403 1211 q 425 1341 403 1303 q 485 1401 447 1379 q 569 1424 524 1424 q 653 1401 614 1424 q 714 1340 692 1379 q 736 1257 736 1301 q 714 1174 736 1213 q 653 1113 692 1135 q 569 1090 614 1090 m 569 1118 q 639 1137 607 1118 q 690 1188 671 1156 q 708 1257 708 1219 q 690 1326 708 1294 q 639 1377 671 1358 q 569 1396 607 1396 q 499 1377 531 1396 q 449 1327 468 1358 q 431 1257 431 1296 q 449 1187 431 1218 q 499 1137 468 1156 q 569 1118 531 1118 z "},"V":{"ha":950,"x_min":35,"x_max":915,"o":"m 457 0 l 35 972 l 65 972 l 474 32 l 478 32 l 886 972 l 915 972 l 493 0 l 457 0 z "},"W":{"ha":1419,"x_min":56,"x_max":1364,"o":"m 374 0 l 56 972 l 85 972 l 393 28 l 696 972 l 725 972 l 1028 28 l 1336 972 l 1364 972 l 1046 0 l 1007 0 l 710 929 l 413 0 l 374 0 z "},"Ẃ":{"ha":1419,"x_min":56,"x_max":1364,"o":"m 374 0 l 56 972 l 85 972 l 393 28 l 696 972 l 725 972 l 1028 28 l 1336 972 l 1364 972 l 1046 0 l 1007 0 l 710 929 l 413 0 l 374 0 m 710 1090 l 801 1313 l 832 1313 l 739 1090 l 710 1090 z "},"Ŵ":{"ha":1419,"x_min":56,"x_max":1364,"o":"m 374 0 l 56 972 l 85 972 l 393 28 l 696 972 l 725 972 l 1028 28 l 1336 972 l 1364 972 l 1046 0 l 1007 0 l 710 929 l 413 0 l 374 0 z "},"Ẅ":{"ha":1419,"x_min":56,"x_max":1364,"o":"m 374 0 l 56 972 l 85 972 l 393 28 l 696 972 l 725 972 l 1028 28 l 1336 972 l 1364 972 l 1046 0 l 1007 0 l 710 929 l 413 0 l 374 0 m 618 1090 l 606 1313 l 643 1313 l 631 1090 l 618 1090 m 790 1090 l 778 1313 l 815 1313 l 803 1090 l 790 1090 z "},"Ẁ":{"ha":1419,"x_min":56,"x_max":1364,"o":"m 374 0 l 56 972 l 85 972 l 393 28 l 696 972 l 725 972 l 1028 28 l 1336 972 l 1364 972 l 1046 0 l 1007 0 l 710 929 l 413 0 l 374 0 m 710 1090 l 681 1090 l 588 1313 l 618 1313 l 710 1090 z "},"X":{"ha":917,"x_min":35,"x_max":882,"o":"m 35 0 l 440 494 l 49 972 l 85 972 l 458 517 l 832 972 l 868 972 l 476 494 l 882 0 l 846 0 l 458 472 l 71 0 l 35 0 z "},"Y":{"ha":897,"x_min":7,"x_max":890,"o":"m 435 0 l 435 381 l 7 972 l 42 972 l 450 408 l 857 972 l 890 972 l 463 381 l 463 0 l 435 0 z "},"Ý":{"ha":897,"x_min":7,"x_max":890,"o":"m 435 0 l 435 381 l 7 972 l 42 972 l 450 408 l 857 972 l 890 972 l 463 381 l 463 0 l 435 0 m 449 1090 l 540 1313 l 571 1313 l 478 1090 l 449 1090 z "},"Ŷ":{"ha":897,"x_min":7,"x_max":890,"o":"m 435 0 l 435 381 l 7 972 l 42 972 l 450 408 l 857 972 l 890 972 l 463 381 l 463 0 l 435 0 z "},"Ÿ":{"ha":897,"x_min":7,"x_max":890,"o":"m 435 0 l 435 381 l 7 972 l 42 972 l 450 408 l 857 972 l 890 972 l 463 381 l 463 0 l 435 0 m 357 1090 l 344 1313 l 382 1313 l 369 1090 l 357 1090 m 529 1090 l 517 1313 l 554 1313 l 542 1090 l 529 1090 z "},"Ỳ":{"ha":897,"x_min":7,"x_max":890,"o":"m 435 0 l 435 381 l 7 972 l 42 972 l 450 408 l 857 972 l 890 972 l 463 381 l 463 0 l 435 0 m 449 1090 l 419 1090 l 326 1313 l 357 1313 l 449 1090 z "},"Z":{"ha":864,"x_min":69,"x_max":808,"o":"m 69 0 l 69 28 l 769 944 l 99 944 l 99 972 l 804 972 l 804 944 l 104 28 l 808 28 l 808 0 l 69 0 z "},"Ź":{"ha":864,"x_min":69,"x_max":808,"o":"m 69 0 l 69 28 l 769 944 l 99 944 l 99 972 l 804 972 l 804 944 l 104 28 l 808 28 l 808 0 l 69 0 m 463 1090 l 554 1313 l 585 1313 l 492 1090 l 463 1090 z "},"Ž":{"ha":864,"x_min":69,"x_max":808,"o":"m 69 0 l 69 28 l 769 944 l 99 944 l 99 972 l 804 972 l 804 944 l 104 28 l 808 28 l 808 0 l 69 0 m 224 1313 l 264 1313 l 463 1118 l 663 1313 l 701 1313 l 474 1090 l 451 1090 l 224 1313 z "},"Ż":{"ha":864,"x_min":69,"x_max":808,"o":"m 69 0 l 69 28 l 769 944 l 99 944 l 99 972 l 804 972 l 804 944 l 104 28 l 808 28 l 808 0 l 69 0 m 456 1090 l 442 1313 l 483 1313 l 469 1090 l 456 1090 z "},"a":{"ha":842,"x_min":83,"x_max":786,"o":"m 306 -17 q 140 32 197 -17 q 83 163 83 81 q 138 287 83 242 q 271 349 193 332 q 449 374 349 367 q 597 393 546 379 q 647 442 647 407 q 577 614 647 547 q 396 681 507 681 q 217 619 288 681 q 128 450 147 558 l 100 450 q 152 588 113 529 q 254 677 192 646 q 396 708 317 708 q 542 674 479 708 q 640 578 606 640 q 675 433 675 515 l 675 28 l 786 28 l 786 0 l 649 0 l 649 201 q 518 43 613 103 q 306 -17 424 -17 m 306 11 q 481 53 403 11 q 603 165 558 94 q 647 321 647 236 l 649 390 q 583 363 626 372 q 469 349 540 353 q 460 348 465 349 q 450 347 456 347 q 192 291 272 335 q 111 163 111 247 q 163 51 111 90 q 306 11 215 11 z "},"á":{"ha":842,"x_min":83,"x_max":786,"o":"m 306 -17 q 140 32 197 -17 q 83 163 83 81 q 138 287 83 242 q 271 349 193 332 q 449 374 349 367 q 597 393 546 379 q 647 442 647 407 q 577 614 647 547 q 396 681 507 681 q 217 619 288 681 q 128 450 147 558 l 100 450 q 152 588 113 529 q 254 677 192 646 q 396 708 317 708 q 542 674 479 708 q 640 578 606 640 q 675 433 675 515 l 675 28 l 786 28 l 786 0 l 649 0 l 649 201 q 518 43 613 103 q 306 -17 424 -17 m 306 11 q 481 53 403 11 q 603 165 558 94 q 647 321 647 236 l 649 390 q 583 363 626 372 q 469 349 540 353 q 460 348 465 349 q 450 347 456 347 q 192 291 272 335 q 111 163 111 247 q 163 51 111 90 q 306 11 215 11 m 396 813 l 488 1035 l 518 1035 l 425 813 l 396 813 z "},"ă":{"ha":842,"x_min":83,"x_max":786,"o":"m 306 -17 q 140 32 197 -17 q 83 163 83 81 q 138 287 83 242 q 271 349 193 332 q 449 374 349 367 q 597 393 546 379 q 647 442 647 407 q 577 614 647 547 q 396 681 507 681 q 217 619 288 681 q 128 450 147 558 l 100 450 q 152 588 113 529 q 254 677 192 646 q 396 708 317 708 q 542 674 479 708 q 640 578 606 640 q 675 433 675 515 l 675 28 l 786 28 l 786 0 l 649 0 l 649 201 q 518 43 613 103 q 306 -17 424 -17 m 306 11 q 481 53 403 11 q 603 165 558 94 q 647 321 647 236 l 649 390 q 583 363 626 372 q 469 349 540 353 q 460 348 465 349 q 450 347 456 347 q 192 291 272 335 q 111 163 111 247 q 163 51 111 90 q 306 11 215 11 m 396 813 q 272 839 325 813 q 189 913 218 865 q 160 1024 160 960 l 160 1035 l 188 1035 l 188 1024 q 243 890 188 939 q 396 840 299 840 q 549 890 493 840 q 604 1024 604 939 l 604 1035 l 632 1035 l 632 1024 q 603 913 632 960 q 520 839 574 865 q 396 813 467 813 z "},"â":{"ha":842,"x_min":83,"x_max":786,"o":"m 306 -17 q 140 32 197 -17 q 83 163 83 81 q 138 287 83 242 q 271 349 193 332 q 449 374 349 367 q 597 393 546 379 q 647 442 647 407 q 577 614 647 547 q 396 681 507 681 q 217 619 288 681 q 128 450 147 558 l 100 450 q 152 588 113 529 q 254 677 192 646 q 396 708 317 708 q 542 674 479 708 q 640 578 606 640 q 675 433 675 515 l 675 28 l 786 28 l 786 0 l 649 0 l 649 201 q 518 43 613 103 q 306 -17 424 -17 m 306 11 q 481 53 403 11 q 603 165 558 94 q 647 321 647 236 l 649 390 q 583 363 626 372 q 469 349 540 353 q 460 348 465 349 q 450 347 456 347 q 192 291 272 335 q 111 163 111 247 q 163 51 111 90 q 306 11 215 11 z "},"ä":{"ha":842,"x_min":83,"x_max":786,"o":"m 306 -17 q 140 32 197 -17 q 83 163 83 81 q 138 287 83 242 q 271 349 193 332 q 449 374 349 367 q 597 393 546 379 q 647 442 647 407 q 577 614 647 547 q 396 681 507 681 q 217 619 288 681 q 128 450 147 558 l 100 450 q 152 588 113 529 q 254 677 192 646 q 396 708 317 708 q 542 674 479 708 q 640 578 606 640 q 675 433 675 515 l 675 28 l 786 28 l 786 0 l 649 0 l 649 201 q 518 43 613 103 q 306 -17 424 -17 m 306 11 q 481 53 403 11 q 603 165 558 94 q 647 321 647 236 l 649 390 q 583 363 626 372 q 469 349 540 353 q 460 348 465 349 q 450 347 456 347 q 192 291 272 335 q 111 163 111 247 q 163 51 111 90 q 306 11 215 11 m 304 813 l 292 1035 l 329 1035 l 317 813 l 304 813 m 476 813 l 464 1035 l 501 1035 l 489 813 l 476 813 z "},"à":{"ha":842,"x_min":83,"x_max":786,"o":"m 306 -17 q 140 32 197 -17 q 83 163 83 81 q 138 287 83 242 q 271 349 193 332 q 449 374 349 367 q 597 393 546 379 q 647 442 647 407 q 577 614 647 547 q 396 681 507 681 q 217 619 288 681 q 128 450 147 558 l 100 450 q 152 588 113 529 q 254 677 192 646 q 396 708 317 708 q 542 674 479 708 q 640 578 606 640 q 675 433 675 515 l 675 28 l 786 28 l 786 0 l 649 0 l 649 201 q 518 43 613 103 q 306 -17 424 -17 m 306 11 q 481 53 403 11 q 603 165 558 94 q 647 321 647 236 l 649 390 q 583 363 626 372 q 469 349 540 353 q 460 348 465 349 q 450 347 456 347 q 192 291 272 335 q 111 163 111 247 q 163 51 111 90 q 306 11 215 11 m 396 813 l 367 813 l 274 1035 l 304 1035 l 396 813 z "},"ā":{"ha":842,"x_min":83,"x_max":786,"o":"m 306 -17 q 140 32 197 -17 q 83 163 83 81 q 138 287 83 242 q 271 349 193 332 q 449 374 349 367 q 597 393 546 379 q 647 442 647 407 q 577 614 647 547 q 396 681 507 681 q 217 619 288 681 q 128 450 147 558 l 100 450 q 152 588 113 529 q 254 677 192 646 q 396 708 317 708 q 542 674 479 708 q 640 578 606 640 q 675 433 675 515 l 675 28 l 786 28 l 786 0 l 649 0 l 649 201 q 518 43 613 103 q 306 -17 424 -17 m 306 11 q 481 53 403 11 q 603 165 558 94 q 647 321 647 236 l 649 390 q 583 363 626 372 q 469 349 540 353 q 460 348 465 349 q 450 347 456 347 q 192 291 272 335 q 111 163 111 247 q 163 51 111 90 q 306 11 215 11 m 174 944 l 618 944 l 618 917 l 174 917 l 174 944 z "},"ą":{"ha":842,"x_min":83,"x_max":788,"o":"m 306 -17 q 140 32 197 -17 q 83 163 83 81 q 138 287 83 242 q 271 349 193 332 q 449 374 349 367 q 597 393 546 379 q 647 442 647 407 q 577 614 647 547 q 396 681 507 681 q 217 619 288 681 q 128 450 147 558 l 100 450 q 152 588 113 529 q 254 677 192 646 q 396 708 317 708 q 542 674 479 708 q 640 578 606 640 q 675 433 675 515 l 675 28 l 786 28 l 786 0 l 649 0 l 649 201 q 518 43 613 103 q 306 -17 424 -17 m 306 11 q 481 53 403 11 q 603 165 558 94 q 647 321 647 236 l 649 390 q 583 363 626 372 q 469 349 540 353 q 460 348 465 349 q 450 347 456 347 q 192 291 272 335 q 111 163 111 247 q 163 51 111 90 q 306 11 215 11 m 788 -118 l 696 -340 l 665 -340 l 758 -118 l 788 -118 z "},"å":{"ha":842,"x_min":83,"x_max":786,"o":"m 306 -17 q 140 32 197 -17 q 83 163 83 81 q 138 287 83 242 q 271 349 193 332 q 449 374 349 367 q 597 393 546 379 q 647 442 647 407 q 577 614 647 547 q 396 681 507 681 q 217 619 288 681 q 128 450 147 558 l 100 450 q 152 588 113 529 q 254 677 192 646 q 396 708 317 708 q 542 674 479 708 q 640 578 606 640 q 675 433 675 515 l 675 28 l 786 28 l 786 0 l 649 0 l 649 201 q 518 43 613 103 q 306 -17 424 -17 m 306 11 q 481 53 403 11 q 603 165 558 94 q 647 321 647 236 l 649 390 q 583 363 626 372 q 469 349 540 353 q 460 348 465 349 q 450 347 456 347 q 192 291 272 335 q 111 163 111 247 q 163 51 111 90 q 306 11 215 11 m 396 813 q 312 835 350 813 q 251 895 274 857 q 229 979 229 933 q 251 1063 229 1025 q 312 1124 274 1101 q 396 1146 350 1146 q 479 1124 440 1146 q 540 1063 518 1101 q 563 979 563 1024 q 540 896 563 935 q 479 835 518 857 q 396 813 440 813 m 396 840 q 465 859 433 840 q 516 910 497 878 q 535 979 535 942 q 516 1049 535 1017 q 465 1099 497 1081 q 396 1118 433 1118 q 326 1099 357 1118 q 276 1049 294 1081 q 257 979 257 1018 q 276 909 257 940 q 326 859 294 878 q 396 840 357 840 z "},"ã":{"ha":842,"x_min":83,"x_max":786,"o":"m 306 -17 q 140 32 197 -17 q 83 163 83 81 q 138 287 83 242 q 271 349 193 332 q 449 374 349 367 q 597 393 546 379 q 647 442 647 407 q 577 614 647 547 q 396 681 507 681 q 217 619 288 681 q 128 450 147 558 l 100 450 q 152 588 113 529 q 254 677 192 646 q 396 708 317 708 q 542 674 479 708 q 640 578 606 640 q 675 433 675 515 l 675 28 l 786 28 l 786 0 l 649 0 l 649 201 q 518 43 613 103 q 306 -17 424 -17 m 306 11 q 481 53 403 11 q 603 165 558 94 q 647 321 647 236 l 649 390 q 583 363 626 372 q 469 349 540 353 q 460 348 465 349 q 450 347 456 347 q 192 291 272 335 q 111 163 111 247 q 163 51 111 90 q 306 11 215 11 m 139 881 q 174 951 139 921 q 257 981 210 981 q 324 971 293 981 q 400 943 356 961 q 475 917 447 925 q 535 908 503 908 q 598 931 571 908 q 625 981 625 953 l 653 981 q 617 910 653 940 q 535 881 582 881 q 467 890 499 881 q 392 918 436 900 q 317 944 344 936 q 257 953 289 953 q 194 931 221 953 q 167 881 167 908 l 139 881 z "},"æ":{"ha":1429,"x_min":83,"x_max":1360,"o":"m 306 -17 q 140 32 197 -17 q 83 163 83 81 q 138 287 83 242 q 271 349 193 332 q 449 374 349 367 q 597 393 546 379 q 647 442 647 407 q 577 614 647 547 q 396 681 507 681 q 217 619 288 681 q 128 450 147 558 l 100 450 q 152 588 113 529 q 254 677 192 646 q 396 708 317 708 q 583 647 510 708 q 672 481 657 586 q 801 646 711 583 q 1004 708 890 708 q 1185 660 1103 708 q 1313 530 1267 613 q 1360 347 1360 447 q 1360 344 1360 346 q 1360 340 1360 342 q 1360 337 1360 339 q 1360 333 1360 335 l 675 333 q 722 170 678 243 q 840 56 767 97 q 1004 14 914 14 q 1192 65 1111 14 q 1303 199 1274 115 l 1332 199 q 1265 87 1313 135 q 1149 13 1217 39 q 1004 -14 1082 -14 q 790 56 883 -14 q 664 239 697 126 q 586 99 642 157 q 456 13 531 42 q 306 -17 382 -17 m 306 11 q 481 53 403 11 q 603 165 558 94 q 647 321 647 236 l 649 390 q 583 363 626 372 q 469 349 540 353 q 460 348 465 349 q 450 347 456 347 q 192 291 272 335 q 111 163 111 247 q 163 51 111 90 q 306 11 215 11 m 1332 361 q 1285 524 1329 451 q 1167 639 1242 597 q 1004 681 1093 681 q 840 639 914 681 q 722 524 767 597 q 675 361 678 451 l 675 361 l 1332 361 z "},"b":{"ha":924,"x_min":153,"x_max":847,"o":"m 503 -14 q 303 47 389 -14 q 181 210 218 108 l 181 0 l 153 0 l 153 986 l 181 986 l 181 485 q 303 647 218 586 q 503 708 389 708 q 678 660 599 708 q 802 530 757 613 q 847 347 847 447 q 802 165 847 247 q 678 34 757 82 q 503 -14 599 -14 m 500 14 q 662 58 589 14 q 777 178 735 101 q 819 347 819 254 q 777 517 819 440 q 662 637 735 593 q 500 681 589 681 q 338 637 411 681 q 223 517 265 593 q 181 347 181 440 q 223 178 181 254 q 338 58 265 101 q 500 14 411 14 z "},"c":{"ha":839,"x_min":76,"x_max":769,"o":"m 432 -14 q 251 33 332 -14 q 123 163 169 81 q 76 347 76 246 q 123 531 76 449 q 251 661 169 614 q 432 708 332 708 q 592 676 522 708 q 708 585 663 644 q 769 443 754 525 l 742 443 q 636 617 718 554 q 432 681 554 681 q 265 637 340 681 q 147 517 190 593 q 104 347 104 440 q 147 178 104 254 q 265 58 190 101 q 432 14 340 14 q 636 77 554 14 q 742 251 718 140 l 769 251 q 708 110 754 169 q 592 18 663 50 q 432 -14 522 -14 z "},"ć":{"ha":839,"x_min":76,"x_max":769,"o":"m 432 -14 q 251 33 332 -14 q 123 163 169 81 q 76 347 76 246 q 123 531 76 449 q 251 661 169 614 q 432 708 332 708 q 592 676 522 708 q 708 585 663 644 q 769 443 754 525 l 742 443 q 636 617 718 554 q 432 681 554 681 q 265 637 340 681 q 147 517 190 593 q 104 347 104 440 q 147 178 104 254 q 265 58 190 101 q 432 14 340 14 q 636 77 554 14 q 742 251 718 140 l 769 251 q 708 110 754 169 q 592 18 663 50 q 432 -14 522 -14 m 432 813 l 524 1035 l 554 1035 l 461 813 l 432 813 z "},"č":{"ha":839,"x_min":76,"x_max":769,"o":"m 432 -14 q 251 33 332 -14 q 123 163 169 81 q 76 347 76 246 q 123 531 76 449 q 251 661 169 614 q 432 708 332 708 q 592 676 522 708 q 708 585 663 644 q 769 443 754 525 l 742 443 q 636 617 718 554 q 432 681 554 681 q 265 637 340 681 q 147 517 190 593 q 104 347 104 440 q 147 178 104 254 q 265 58 190 101 q 432 14 340 14 q 636 77 554 14 q 742 251 718 140 l 769 251 q 708 110 754 169 q 592 18 663 50 q 432 -14 522 -14 m 193 1035 l 233 1035 l 432 840 l 632 1035 l 671 1035 l 443 813 l 421 813 l 193 1035 z "},"ç":{"ha":839,"x_min":76,"x_max":769,"o":"m 432 -14 q 251 33 332 -14 q 123 163 169 81 q 76 347 76 246 q 123 531 76 449 q 251 661 169 614 q 432 708 332 708 q 592 676 522 708 q 708 585 663 644 q 769 443 754 525 l 742 443 q 636 617 718 554 q 432 681 554 681 q 265 637 340 681 q 147 517 190 593 q 104 347 104 440 q 147 178 104 254 q 265 58 190 101 q 432 14 340 14 q 636 77 554 14 q 742 251 718 140 l 769 251 q 708 110 754 169 q 592 18 663 50 q 432 -14 522 -14 m 446 -118 l 354 -340 l 324 -340 l 417 -118 l 446 -118 z "},"ċ":{"ha":839,"x_min":76,"x_max":769,"o":"m 432 -14 q 251 33 332 -14 q 123 163 169 81 q 76 347 76 246 q 123 531 76 449 q 251 661 169 614 q 432 708 332 708 q 592 676 522 708 q 708 585 663 644 q 769 443 754 525 l 742 443 q 636 617 718 554 q 432 681 554 681 q 265 637 340 681 q 147 517 190 593 q 104 347 104 440 q 147 178 104 254 q 265 58 190 101 q 432 14 340 14 q 636 77 554 14 q 742 251 718 140 l 769 251 q 708 110 754 169 q 592 18 663 50 q 432 -14 522 -14 m 425 813 l 411 1035 l 453 1035 l 439 813 l 425 813 z "},"d":{"ha":924,"x_min":76,"x_max":771,"o":"m 421 -14 q 246 34 325 -14 q 122 165 167 82 q 76 347 76 247 q 122 530 76 447 q 246 660 167 613 q 421 708 325 708 q 620 647 535 708 q 743 485 706 586 l 743 986 l 771 986 l 771 0 l 743 0 l 743 210 q 620 47 706 108 q 421 -14 535 -14 m 424 14 q 585 58 513 14 q 701 178 658 101 q 743 347 743 254 q 701 517 743 440 q 585 637 658 593 q 424 681 513 681 q 262 637 335 681 q 147 517 189 593 q 104 347 104 440 q 147 178 104 254 q 262 58 189 101 q 424 14 335 14 z "},"ð":{"ha":875,"x_min":76,"x_max":799,"o":"m 438 -14 q 255 34 338 -14 q 124 165 172 82 q 76 347 76 247 q 124 530 76 447 q 255 660 172 613 q 438 708 338 708 q 538 694 492 708 q 625 656 585 681 q 615 667 619 661 q 606 681 610 674 q 600 688 603 683 q 594 694 597 692 l 499 819 l 257 819 l 257 847 l 476 847 l 369 986 l 404 986 l 513 847 l 715 847 l 715 819 l 533 819 l 726 571 q 737 556 732 564 q 747 540 742 549 q 785 449 772 499 q 799 347 799 400 q 751 165 799 247 q 620 34 703 82 q 438 -14 538 -14 m 438 14 q 607 58 531 14 q 727 178 683 101 q 771 347 771 254 q 727 517 771 440 q 607 637 683 593 q 438 681 531 681 q 268 637 344 681 q 148 517 192 593 q 104 347 104 440 q 148 178 104 254 q 268 58 192 101 q 438 14 344 14 z "},"ď":{"ha":924,"x_min":76,"x_max":896,"o":"m 421 -14 q 246 34 325 -14 q 122 165 167 82 q 76 347 76 247 q 122 530 76 447 q 246 660 167 613 q 421 708 325 708 q 620 647 535 708 q 743 485 706 586 l 743 986 l 771 986 l 771 0 l 743 0 l 743 210 q 620 47 706 108 q 421 -14 535 -14 m 424 14 q 585 58 513 14 q 701 178 658 101 q 743 347 743 254 q 701 517 743 440 q 585 637 658 593 q 424 681 513 681 q 262 637 335 681 q 147 517 189 593 q 104 347 104 440 q 147 178 104 254 q 262 58 189 101 q 424 14 335 14 m 868 764 l 868 986 l 896 986 l 893 764 l 868 764 z "},"đ":{"ha":924,"x_min":76,"x_max":882,"o":"m 882 847 l 882 819 l 771 819 l 771 0 l 743 0 l 743 210 q 620 47 706 108 q 421 -14 535 -14 q 246 34 325 -14 q 122 165 167 82 q 76 347 76 247 q 122 530 76 447 q 246 660 167 613 q 421 708 325 708 q 620 647 535 708 q 743 485 706 586 l 743 819 l 424 819 l 424 847 l 743 847 l 743 986 l 771 986 l 771 847 l 882 847 m 424 14 q 585 58 513 14 q 701 178 658 101 q 743 347 743 254 q 701 517 743 440 q 585 637 658 593 q 424 681 513 681 q 262 637 335 681 q 147 517 189 593 q 104 347 104 440 q 147 178 104 254 q 262 58 189 101 q 424 14 335 14 z "},"e":{"ha":858,"x_min":76,"x_max":789,"o":"m 433 -14 q 253 34 335 -14 q 124 165 171 82 q 76 347 76 247 q 124 530 76 447 q 253 660 171 613 q 433 708 335 708 q 614 660 532 708 q 742 530 696 613 q 789 347 789 447 q 789 340 789 344 q 789 333 789 336 l 104 333 q 151 170 107 243 q 269 56 196 97 q 433 14 343 14 q 622 65 540 14 q 732 199 703 115 l 761 199 q 694 87 742 135 q 578 13 646 39 q 433 -14 511 -14 m 761 361 q 715 524 758 451 q 597 639 671 597 q 433 681 522 681 q 269 639 343 681 q 151 524 196 597 q 104 361 107 451 l 104 361 l 761 361 z "},"é":{"ha":858,"x_min":76,"x_max":789,"o":"m 433 -14 q 253 34 335 -14 q 124 165 171 82 q 76 347 76 247 q 124 530 76 447 q 253 660 171 613 q 433 708 335 708 q 614 660 532 708 q 742 530 696 613 q 789 347 789 447 q 789 340 789 344 q 789 333 789 336 l 104 333 q 151 170 107 243 q 269 56 196 97 q 433 14 343 14 q 622 65 540 14 q 732 199 703 115 l 761 199 q 694 87 742 135 q 578 13 646 39 q 433 -14 511 -14 m 761 361 q 715 524 758 451 q 597 639 671 597 q 433 681 522 681 q 269 639 343 681 q 151 524 196 597 q 104 361 107 451 l 104 361 l 761 361 m 424 813 l 515 1035 l 546 1035 l 453 813 l 424 813 z "},"ě":{"ha":858,"x_min":76,"x_max":789,"o":"m 433 -14 q 253 34 335 -14 q 124 165 171 82 q 76 347 76 247 q 124 530 76 447 q 253 660 171 613 q 433 708 335 708 q 614 660 532 708 q 742 530 696 613 q 789 347 789 447 q 789 340 789 344 q 789 333 789 336 l 104 333 q 151 170 107 243 q 269 56 196 97 q 433 14 343 14 q 622 65 540 14 q 732 199 703 115 l 761 199 q 694 87 742 135 q 578 13 646 39 q 433 -14 511 -14 m 761 361 q 715 524 758 451 q 597 639 671 597 q 433 681 522 681 q 269 639 343 681 q 151 524 196 597 q 104 361 107 451 l 104 361 l 761 361 m 185 1035 l 225 1035 l 424 840 l 624 1035 l 663 1035 l 435 813 l 413 813 l 185 1035 z "},"ê":{"ha":858,"x_min":76,"x_max":789,"o":"m 433 -14 q 253 34 335 -14 q 124 165 171 82 q 76 347 76 247 q 124 530 76 447 q 253 660 171 613 q 433 708 335 708 q 614 660 532 708 q 742 530 696 613 q 789 347 789 447 q 789 340 789 344 q 789 333 789 336 l 104 333 q 151 170 107 243 q 269 56 196 97 q 433 14 343 14 q 622 65 540 14 q 732 199 703 115 l 761 199 q 694 87 742 135 q 578 13 646 39 q 433 -14 511 -14 m 761 361 q 715 524 758 451 q 597 639 671 597 q 433 681 522 681 q 269 639 343 681 q 151 524 196 597 q 104 361 107 451 l 104 361 l 761 361 z "},"ë":{"ha":858,"x_min":76,"x_max":789,"o":"m 433 -14 q 253 34 335 -14 q 124 165 171 82 q 76 347 76 247 q 124 530 76 447 q 253 660 171 613 q 433 708 335 708 q 614 660 532 708 q 742 530 696 613 q 789 347 789 447 q 789 340 789 344 q 789 333 789 336 l 104 333 q 151 170 107 243 q 269 56 196 97 q 433 14 343 14 q 622 65 540 14 q 732 199 703 115 l 761 199 q 694 87 742 135 q 578 13 646 39 q 433 -14 511 -14 m 761 361 q 715 524 758 451 q 597 639 671 597 q 433 681 522 681 q 269 639 343 681 q 151 524 196 597 q 104 361 107 451 l 104 361 l 761 361 m 332 813 l 319 1035 l 357 1035 l 344 813 l 332 813 m 504 813 l 492 1035 l 529 1035 l 517 813 l 504 813 z "},"ė":{"ha":858,"x_min":76,"x_max":789,"o":"m 433 -14 q 253 34 335 -14 q 124 165 171 82 q 76 347 76 247 q 124 530 76 447 q 253 660 171 613 q 433 708 335 708 q 614 660 532 708 q 742 530 696 613 q 789 347 789 447 q 789 340 789 344 q 789 333 789 336 l 104 333 q 151 170 107 243 q 269 56 196 97 q 433 14 343 14 q 622 65 540 14 q 732 199 703 115 l 761 199 q 694 87 742 135 q 578 13 646 39 q 433 -14 511 -14 m 761 361 q 715 524 758 451 q 597 639 671 597 q 433 681 522 681 q 269 639 343 681 q 151 524 196 597 q 104 361 107 451 l 104 361 l 761 361 m 417 813 l 403 1035 l 444 1035 l 431 813 l 417 813 z "},"è":{"ha":858,"x_min":76,"x_max":789,"o":"m 433 -14 q 253 34 335 -14 q 124 165 171 82 q 76 347 76 247 q 124 530 76 447 q 253 660 171 613 q 433 708 335 708 q 614 660 532 708 q 742 530 696 613 q 789 347 789 447 q 789 340 789 344 q 789 333 789 336 l 104 333 q 151 170 107 243 q 269 56 196 97 q 433 14 343 14 q 622 65 540 14 q 732 199 703 115 l 761 199 q 694 87 742 135 q 578 13 646 39 q 433 -14 511 -14 m 761 361 q 715 524 758 451 q 597 639 671 597 q 433 681 522 681 q 269 639 343 681 q 151 524 196 597 q 104 361 107 451 l 104 361 l 761 361 m 424 813 l 394 813 l 301 1035 l 332 1035 l 424 813 z "},"ē":{"ha":858,"x_min":76,"x_max":789,"o":"m 433 -14 q 253 34 335 -14 q 124 165 171 82 q 76 347 76 247 q 124 530 76 447 q 253 660 171 613 q 433 708 335 708 q 614 660 532 708 q 742 530 696 613 q 789 347 789 447 q 789 340 789 344 q 789 333 789 336 l 104 333 q 151 170 107 243 q 269 56 196 97 q 433 14 343 14 q 622 65 540 14 q 732 199 703 115 l 761 199 q 694 87 742 135 q 578 13 646 39 q 433 -14 511 -14 m 761 361 q 715 524 758 451 q 597 639 671 597 q 433 681 522 681 q 269 639 343 681 q 151 524 196 597 q 104 361 107 451 l 104 361 l 761 361 m 201 944 l 646 944 l 646 917 l 201 917 l 201 944 z "},"ę":{"ha":858,"x_min":76,"x_max":789,"o":"m 433 -14 q 253 34 335 -14 q 124 165 171 82 q 76 347 76 247 q 124 530 76 447 q 253 660 171 613 q 433 708 335 708 q 614 660 532 708 q 742 530 696 613 q 789 347 789 447 q 789 340 789 344 q 789 333 789 336 l 104 333 q 151 170 107 243 q 269 56 196 97 q 433 14 343 14 q 622 65 540 14 q 732 199 703 115 l 761 199 q 694 87 742 135 q 578 13 646 39 q 433 -14 511 -14 m 761 361 q 715 524 758 451 q 597 639 671 597 q 433 681 522 681 q 269 639 343 681 q 151 524 196 597 q 104 361 107 451 l 104 361 l 761 361 m 690 -118 l 599 -340 l 568 -340 l 661 -118 l 690 -118 z "},"f":{"ha":594,"x_min":69,"x_max":704,"o":"m 222 0 l 222 667 l 69 667 l 69 694 l 222 694 l 222 788 q 253 915 222 861 q 340 999 283 969 q 475 1028 397 1028 q 593 1003 540 1028 q 675 932 646 978 q 704 829 704 886 l 676 829 l 676 831 q 619 953 675 906 q 474 1000 564 1000 q 310 945 371 1000 q 250 788 250 890 q 250 756 250 772 q 250 725 250 740 q 250 710 250 718 q 250 694 250 701 l 592 694 l 592 667 l 250 667 q 250 667 250 667 q 250 667 250 667 l 250 0 l 222 0 z "},"g":{"ha":919,"x_min":28,"x_max":878,"o":"m 488 -292 q 283 -265 371 -292 q 147 -188 194 -237 q 99 -72 99 -139 q 164 61 99 7 q 346 136 229 115 q 111 187 194 150 q 28 314 28 224 q 55 376 28 350 q 121 401 82 401 q 134 401 128 401 q 147 400 140 401 q 164 397 156 399 q 179 393 172 396 q 153 488 153 438 q 240 644 153 585 q 476 708 328 703 l 476 875 l 501 875 l 501 708 q 684 681 606 708 q 806 604 763 654 q 849 488 849 554 q 806 372 849 421 q 684 295 763 322 q 501 268 606 268 q 381 278 431 268 q 301 301 331 288 q 236 335 272 314 q 178 364 203 354 q 121 374 154 374 q 74 356 92 374 q 56 314 56 338 q 103 225 56 258 q 227 176 151 192 q 404 154 303 161 q 447 152 426 153 q 489 150 468 151 q 774 94 669 143 q 878 -72 878 46 q 830 -188 878 -139 q 694 -265 782 -237 q 488 -292 606 -292 m 488 -264 q 679 -240 597 -264 q 806 -173 761 -217 q 850 -72 850 -129 q 758 72 850 22 q 488 121 665 121 q 297 97 378 121 q 171 30 215 74 q 126 -72 126 -14 q 171 -173 126 -129 q 297 -240 215 -217 q 488 -264 378 -264 m 501 296 q 734 349 647 296 q 821 488 821 401 q 734 628 821 575 q 501 681 647 681 q 267 628 354 681 q 181 488 181 575 q 266 348 181 400 q 501 296 351 296 z "},"ğ":{"ha":919,"x_min":28,"x_max":878,"o":"m 488 -292 q 283 -265 371 -292 q 147 -188 194 -237 q 99 -72 99 -139 q 164 61 99 7 q 346 136 229 115 q 111 187 194 150 q 28 314 28 224 q 55 376 28 350 q 121 401 82 401 q 134 401 128 401 q 147 400 140 401 q 164 397 156 399 q 179 393 172 396 q 153 488 153 438 q 196 604 153 554 q 317 681 239 654 q 501 708 396 708 q 684 681 606 708 q 806 604 763 654 q 849 488 849 554 q 806 372 849 421 q 684 295 763 322 q 501 268 606 268 q 381 278 431 268 q 301 301 331 288 q 236 335 272 314 q 178 364 203 354 q 121 374 154 374 q 74 356 92 374 q 56 314 56 338 q 103 225 56 258 q 227 176 151 192 q 404 154 303 161 q 447 152 426 153 q 489 150 468 151 q 774 94 669 143 q 878 -72 878 46 q 830 -188 878 -139 q 694 -265 782 -237 q 488 -292 606 -292 m 488 -264 q 679 -240 597 -264 q 806 -173 761 -217 q 850 -72 850 -129 q 758 72 850 22 q 488 121 665 121 q 297 97 378 121 q 171 30 215 74 q 126 -72 126 -14 q 171 -173 126 -129 q 297 -240 215 -217 q 488 -264 378 -264 m 501 296 q 734 349 647 296 q 821 488 821 401 q 734 628 821 575 q 501 681 647 681 q 267 628 354 681 q 181 488 181 575 q 266 348 181 400 q 501 296 351 296 m 489 813 q 365 839 418 813 q 282 913 311 865 q 253 1024 253 960 l 253 1035 l 281 1035 l 281 1024 q 336 890 281 939 q 489 840 392 840 q 642 890 586 840 q 697 1024 697 939 l 697 1035 l 725 1035 l 725 1024 q 696 913 725 960 q 613 839 667 865 q 489 813 560 813 z "},"ģ":{"ha":919,"x_min":28,"x_max":878,"o":"m 488 -292 q 283 -265 371 -292 q 147 -188 194 -237 q 99 -72 99 -139 q 164 61 99 7 q 346 136 229 115 q 111 187 194 150 q 28 314 28 224 q 55 376 28 350 q 121 401 82 401 q 134 401 128 401 q 147 400 140 401 q 164 397 156 399 q 179 393 172 396 q 153 488 153 438 q 196 604 153 554 q 317 681 239 654 q 501 708 396 708 q 684 681 606 708 q 806 604 763 654 q 849 488 849 554 q 806 372 849 421 q 684 295 763 322 q 501 268 606 268 q 381 278 431 268 q 301 301 331 288 q 236 335 272 314 q 178 364 203 354 q 121 374 154 374 q 74 356 92 374 q 56 314 56 338 q 103 225 56 258 q 227 176 151 192 q 404 154 303 161 q 447 152 426 153 q 489 150 468 151 q 774 94 669 143 q 878 -72 878 46 q 830 -188 878 -139 q 694 -265 782 -237 q 488 -292 606 -292 m 488 -264 q 679 -240 597 -264 q 806 -173 761 -217 q 850 -72 850 -129 q 758 72 850 22 q 488 121 665 121 q 297 97 378 121 q 171 30 215 74 q 126 -72 126 -14 q 171 -173 126 -129 q 297 -240 215 -217 q 488 -264 378 -264 m 501 296 q 734 349 647 296 q 821 488 821 401 q 734 628 821 575 q 501 681 647 681 q 267 628 354 681 q 181 488 181 575 q 266 348 181 400 q 501 296 351 296 m 519 1035 l 547 1035 l 547 1035 q 502 955 519 994 q 483 879 485 915 q 487 879 485 879 q 490 879 489 879 q 514 870 504 879 q 524 846 524 861 q 513 822 524 832 q 489 811 503 811 q 464 822 474 811 q 454 851 454 833 q 475 949 454 893 q 519 1035 496 1006 z "},"ġ":{"ha":919,"x_min":28,"x_max":878,"o":"m 488 -292 q 283 -265 371 -292 q 147 -188 194 -237 q 99 -72 99 -139 q 164 61 99 7 q 346 136 229 115 q 111 187 194 150 q 28 314 28 224 q 55 376 28 350 q 121 401 82 401 q 134 401 128 401 q 147 400 140 401 q 164 397 156 399 q 179 393 172 396 q 153 488 153 438 q 196 604 153 554 q 317 681 239 654 q 501 708 396 708 q 684 681 606 708 q 806 604 763 654 q 849 488 849 554 q 806 372 849 421 q 684 295 763 322 q 501 268 606 268 q 381 278 431 268 q 301 301 331 288 q 236 335 272 314 q 178 364 203 354 q 121 374 154 374 q 74 356 92 374 q 56 314 56 338 q 103 225 56 258 q 227 176 151 192 q 404 154 303 161 q 447 152 426 153 q 489 150 468 151 q 774 94 669 143 q 878 -72 878 46 q 830 -188 878 -139 q 694 -265 782 -237 q 488 -292 606 -292 m 488 -264 q 679 -240 597 -264 q 806 -173 761 -217 q 850 -72 850 -129 q 758 72 850 22 q 488 121 665 121 q 297 97 378 121 q 171 30 215 74 q 126 -72 126 -14 q 171 -173 126 -129 q 297 -240 215 -217 q 488 -264 378 -264 m 501 296 q 734 349 647 296 q 821 488 821 401 q 734 628 821 575 q 501 681 647 681 q 267 628 354 681 q 181 488 181 575 q 266 348 181 400 q 501 296 351 296 m 482 813 l 468 1035 l 510 1035 l 496 813 l 482 813 z "},"h":{"ha":917,"x_min":153,"x_max":778,"o":"m 153 0 l 153 986 l 181 986 l 181 499 q 292 651 215 594 q 467 708 368 708 q 634 667 564 708 q 741 548 704 626 q 778 361 778 469 l 778 0 l 750 0 l 750 361 q 674 595 750 510 q 467 681 599 681 q 322 639 388 681 q 218 524 256 597 q 181 361 181 450 l 181 0 l 153 0 z "},"ħ":{"ha":917,"x_min":42,"x_max":778,"o":"m 467 708 q 634 667 564 708 q 741 548 704 626 q 778 361 778 469 l 778 0 l 750 0 l 750 361 q 674 595 750 510 q 467 681 599 681 q 322 639 388 681 q 218 524 256 597 q 181 361 181 450 l 181 0 l 153 0 l 153 819 l 42 819 l 42 847 l 153 847 l 153 986 l 181 986 l 181 847 l 500 847 l 500 819 l 181 819 l 181 499 q 292 651 215 594 q 467 708 368 708 z "},"i":{"ha":333,"x_min":146,"x_max":188,"o":"m 153 0 l 153 694 l 181 694 l 181 0 l 153 0 m 160 813 l 146 1035 l 188 1035 l 174 813 l 160 813 z "},"ı":{"ha":333,"x_min":153,"x_max":181,"o":"m 153 0 l 153 694 l 181 694 l 181 0 l 153 0 z "},"í":{"ha":333,"x_min":153,"x_max":289,"o":"m 153 0 l 153 694 l 181 694 l 181 0 l 153 0 m 167 813 l 258 1035 l 289 1035 l 196 813 l 167 813 z "},"ǐ":{"ha":333,"x_min":-72,"x_max":406,"o":"m 153 0 l 153 694 l 181 694 l 181 0 l 153 0 m -72 1035 l -32 1035 l 167 840 l 367 1035 l 406 1035 l 178 813 l 156 813 l -72 1035 z "},"î":{"ha":333,"x_min":-72,"x_max":406,"o":"m 153 0 l 153 694 l 181 694 l 181 0 l 153 0 z "},"ï":{"ha":333,"x_min":63,"x_max":272,"o":"m 153 0 l 153 694 l 181 694 l 181 0 l 153 0 m 75 813 l 63 1035 l 100 1035 l 88 813 l 75 813 m 247 813 l 235 1035 l 272 1035 l 260 813 l 247 813 z "},"ì":{"ha":333,"x_min":44,"x_max":181,"o":"m 153 0 l 153 694 l 181 694 l 181 0 l 153 0 m 167 813 l 138 813 l 44 1035 l 75 1035 l 167 813 z "},"ī":{"ha":333,"x_min":-56,"x_max":389,"o":"m 153 0 l 153 694 l 181 694 l 181 0 l 153 0 m -56 944 l 389 944 l 389 917 l -56 917 l -56 944 z "},"į":{"ha":333,"x_min":60,"x_max":188,"o":"m 153 0 l 153 694 l 181 694 l 181 0 l 153 0 m 160 813 l 146 1035 l 188 1035 l 174 813 l 160 813 m 182 -118 l 90 -340 l 60 -340 l 153 -118 l 182 -118 z "},"j":{"ha":403,"x_min":-181,"x_max":257,"o":"m 28 -292 q -78 -272 -31 -292 q -153 -215 -126 -251 q -181 -135 -181 -179 l -153 -135 l -153 -136 q -129 -201 -153 -172 q -64 -247 -106 -231 q 28 -264 -22 -264 q 169 -213 115 -264 q 222 -65 222 -162 q 222 -19 222 -42 q 222 28 222 4 q 222 91 222 60 q 222 153 222 122 l 222 694 l 250 694 l 250 -67 q 190 -230 250 -168 q 28 -292 131 -292 m 229 813 l 215 1035 l 257 1035 l 243 813 l 229 813 z "},"ȷ":{"ha":403,"x_min":-181,"x_max":250,"o":"m 28 -292 q -78 -272 -31 -292 q -153 -215 -126 -251 q -181 -135 -181 -179 l -153 -135 l -153 -136 q -129 -201 -153 -172 q -64 -247 -106 -231 q 28 -264 -22 -264 q 169 -213 115 -264 q 222 -65 222 -162 q 222 -19 222 -42 q 222 28 222 4 q 222 91 222 60 q 222 153 222 122 l 222 694 l 250 694 l 250 -67 q 190 -230 250 -168 q 28 -292 131 -292 z "},"k":{"ha":725,"x_min":153,"x_max":683,"o":"m 153 0 l 153 986 l 181 986 l 181 361 l 332 361 l 647 694 l 683 694 l 356 347 l 683 0 l 644 0 l 329 333 l 181 333 l 181 0 l 153 0 z "},"ķ":{"ha":725,"x_min":153,"x_max":683,"o":"m 153 0 l 153 986 l 181 986 l 181 361 l 332 361 l 647 694 l 683 694 l 356 347 l 683 0 l 644 0 l 329 333 l 181 333 l 181 0 l 153 0 m 386 -340 l 358 -340 l 358 -340 q 403 -260 386 -300 q 422 -185 421 -221 q 419 -185 421 -185 q 415 -185 417 -185 q 391 -176 400 -185 q 382 -151 382 -167 q 392 -127 382 -137 q 417 -117 401 -117 q 442 -128 432 -117 q 451 -157 451 -139 q 431 -255 451 -199 q 386 -340 410 -311 z "},"l":{"ha":333,"x_min":153,"x_max":181,"o":"m 153 0 l 153 986 l 181 986 l 181 0 l 153 0 z "},"ĺ":{"ha":333,"x_min":153,"x_max":289,"o":"m 153 0 l 153 986 l 181 986 l 181 0 l 153 0 m 167 1090 l 258 1313 l 289 1313 l 196 1090 l 167 1090 z "},"ľ":{"ha":333,"x_min":153,"x_max":306,"o":"m 153 0 l 153 986 l 181 986 l 181 0 l 153 0 m 278 764 l 278 986 l 306 986 l 303 764 l 278 764 z "},"ļ":{"ha":333,"x_min":108,"x_max":201,"o":"m 153 0 l 153 986 l 181 986 l 181 0 l 153 0 m 136 -340 l 108 -340 l 108 -340 q 153 -260 136 -300 q 172 -185 171 -221 q 169 -185 171 -185 q 165 -185 167 -185 q 141 -176 150 -185 q 132 -151 132 -167 q 142 -127 132 -137 q 167 -117 151 -117 q 192 -128 182 -117 q 201 -157 201 -139 q 181 -255 201 -199 q 136 -340 160 -311 z "},"ł":{"ha":333,"x_min":32,"x_max":324,"o":"m 324 675 l 324 643 l 181 560 l 181 0 l 153 0 l 153 543 l 32 472 l 32 504 l 153 575 l 153 986 l 181 986 l 181 592 l 324 675 z "},"m":{"ha":1403,"x_min":153,"x_max":1264,"o":"m 153 0 l 153 694 l 181 694 l 181 503 q 285 652 213 596 q 447 708 357 708 q 623 650 554 708 q 714 485 692 592 q 819 647 744 586 q 989 708 893 708 q 1137 670 1075 708 q 1231 560 1199 632 q 1264 389 1264 489 l 1264 0 l 1236 0 l 1236 389 q 1170 603 1236 525 q 989 681 1104 681 q 854 639 915 681 q 758 524 793 597 q 722 361 722 450 l 722 0 l 694 0 l 694 389 q 628 603 694 525 q 447 681 563 681 q 313 639 374 681 q 216 524 251 597 q 181 361 181 450 l 181 0 l 153 0 z "},"n":{"ha":917,"x_min":153,"x_max":778,"o":"m 153 0 l 153 694 l 181 694 l 181 499 q 292 651 215 594 q 467 708 368 708 q 634 667 564 708 q 741 548 704 626 q 778 361 778 469 l 778 0 l 750 0 l 750 361 q 674 595 750 510 q 467 681 599 681 q 322 639 388 681 q 218 524 256 597 q 181 361 181 450 l 181 0 l 153 0 z "},"ń":{"ha":917,"x_min":153,"x_max":778,"o":"m 153 0 l 153 694 l 181 694 l 181 499 q 292 651 215 594 q 467 708 368 708 q 634 667 564 708 q 741 548 704 626 q 778 361 778 469 l 778 0 l 750 0 l 750 361 q 674 595 750 510 q 467 681 599 681 q 322 639 388 681 q 218 524 256 597 q 181 361 181 450 l 181 0 l 153 0 m 468 813 l 560 1035 l 590 1035 l 497 813 l 468 813 z "},"ň":{"ha":917,"x_min":153,"x_max":778,"o":"m 153 0 l 153 694 l 181 694 l 181 499 q 292 651 215 594 q 467 708 368 708 q 634 667 564 708 q 741 548 704 626 q 778 361 778 469 l 778 0 l 750 0 l 750 361 q 674 595 750 510 q 467 681 599 681 q 322 639 388 681 q 218 524 256 597 q 181 361 181 450 l 181 0 l 153 0 m 229 1035 l 269 1035 l 468 840 l 668 1035 l 707 1035 l 479 813 l 457 813 l 229 1035 z "},"ņ":{"ha":917,"x_min":153,"x_max":778,"o":"m 153 0 l 153 694 l 181 694 l 181 499 q 292 651 215 594 q 467 708 368 708 q 634 667 564 708 q 741 548 704 626 q 778 361 778 469 l 778 0 l 750 0 l 750 361 q 674 595 750 510 q 467 681 599 681 q 322 639 388 681 q 218 524 256 597 q 181 361 181 450 l 181 0 l 153 0 m 438 -340 l 410 -340 l 410 -340 q 455 -260 438 -300 q 474 -185 472 -221 q 470 -185 472 -185 q 467 -185 468 -185 q 442 -176 451 -185 q 433 -151 433 -167 q 443 -127 433 -137 q 468 -117 453 -117 q 493 -128 483 -117 q 503 -157 503 -139 q 482 -255 503 -199 q 438 -340 461 -311 z "},"ŋ":{"ha":917,"x_min":153,"x_max":778,"o":"m 556 -292 q 449 -272 497 -292 q 374 -215 401 -251 q 347 -135 347 -179 l 375 -135 l 375 -136 q 399 -201 375 -172 q 464 -247 422 -231 q 556 -264 506 -264 q 697 -213 643 -264 q 750 -65 750 -162 q 750 -19 750 -42 q 750 28 750 4 q 750 91 750 60 q 750 153 750 122 l 750 361 q 674 595 750 510 q 467 681 599 681 q 322 639 388 681 q 218 524 256 597 q 181 361 181 450 l 181 0 l 153 0 l 153 694 l 181 694 l 181 499 q 292 651 215 594 q 467 708 368 708 q 634 667 564 708 q 741 548 704 626 q 778 361 778 469 l 778 -67 q 718 -230 778 -168 q 556 -292 658 -292 z "},"ñ":{"ha":917,"x_min":153,"x_max":778,"o":"m 153 0 l 153 694 l 181 694 l 181 499 q 292 651 215 594 q 467 708 368 708 q 634 667 564 708 q 741 548 704 626 q 778 361 778 469 l 778 0 l 750 0 l 750 361 q 674 595 750 510 q 467 681 599 681 q 322 639 388 681 q 218 524 256 597 q 181 361 181 450 l 181 0 l 153 0 m 211 881 q 247 951 211 921 q 329 981 282 981 q 397 971 365 981 q 472 943 428 961 q 547 917 519 925 q 607 908 575 908 q 670 931 643 908 q 697 981 697 953 l 725 981 q 690 910 725 940 q 607 881 654 881 q 540 890 571 881 q 464 918 508 900 q 389 944 417 936 q 329 953 361 953 q 266 931 293 953 q 239 881 239 908 l 211 881 z "},"o":{"ha":875,"x_min":76,"x_max":799,"o":"m 438 -14 q 255 34 338 -14 q 124 165 172 82 q 76 347 76 247 q 124 530 76 447 q 255 660 172 613 q 438 708 338 708 q 620 660 538 708 q 751 530 703 613 q 799 347 799 447 q 751 165 799 247 q 620 34 703 82 q 438 -14 538 -14 m 438 14 q 607 58 531 14 q 727 178 683 101 q 771 347 771 254 q 727 517 771 440 q 607 637 683 593 q 438 681 531 681 q 268 637 344 681 q 148 517 192 593 q 104 347 104 440 q 148 178 104 254 q 268 58 192 101 q 438 14 344 14 z "},"ó":{"ha":875,"x_min":76,"x_max":799,"o":"m 438 -14 q 255 34 338 -14 q 124 165 172 82 q 76 347 76 247 q 124 530 76 447 q 255 660 172 613 q 438 708 338 708 q 620 660 538 708 q 751 530 703 613 q 799 347 799 447 q 751 165 799 247 q 620 34 703 82 q 438 -14 538 -14 m 438 14 q 607 58 531 14 q 727 178 683 101 q 771 347 771 254 q 727 517 771 440 q 607 637 683 593 q 438 681 531 681 q 268 637 344 681 q 148 517 192 593 q 104 347 104 440 q 148 178 104 254 q 268 58 192 101 q 438 14 344 14 m 438 813 l 529 1035 l 560 1035 l 467 813 l 438 813 z "},"ô":{"ha":875,"x_min":76,"x_max":799,"o":"m 438 -14 q 255 34 338 -14 q 124 165 172 82 q 76 347 76 247 q 124 530 76 447 q 255 660 172 613 q 438 708 338 708 q 620 660 538 708 q 751 530 703 613 q 799 347 799 447 q 751 165 799 247 q 620 34 703 82 q 438 -14 538 -14 m 438 14 q 607 58 531 14 q 727 178 683 101 q 771 347 771 254 q 727 517 771 440 q 607 637 683 593 q 438 681 531 681 q 268 637 344 681 q 148 517 192 593 q 104 347 104 440 q 148 178 104 254 q 268 58 192 101 q 438 14 344 14 z "},"ö":{"ha":875,"x_min":76,"x_max":799,"o":"m 438 -14 q 255 34 338 -14 q 124 165 172 82 q 76 347 76 247 q 124 530 76 447 q 255 660 172 613 q 438 708 338 708 q 620 660 538 708 q 751 530 703 613 q 799 347 799 447 q 751 165 799 247 q 620 34 703 82 q 438 -14 538 -14 m 438 14 q 607 58 531 14 q 727 178 683 101 q 771 347 771 254 q 727 517 771 440 q 607 637 683 593 q 438 681 531 681 q 268 637 344 681 q 148 517 192 593 q 104 347 104 440 q 148 178 104 254 q 268 58 192 101 q 438 14 344 14 m 346 813 l 333 1035 l 371 1035 l 358 813 l 346 813 m 518 813 l 506 1035 l 543 1035 l 531 813 l 518 813 z "},"ò":{"ha":875,"x_min":76,"x_max":799,"o":"m 438 -14 q 255 34 338 -14 q 124 165 172 82 q 76 347 76 247 q 124 530 76 447 q 255 660 172 613 q 438 708 338 708 q 620 660 538 708 q 751 530 703 613 q 799 347 799 447 q 751 165 799 247 q 620 34 703 82 q 438 -14 538 -14 m 438 14 q 607 58 531 14 q 727 178 683 101 q 771 347 771 254 q 727 517 771 440 q 607 637 683 593 q 438 681 531 681 q 268 637 344 681 q 148 517 192 593 q 104 347 104 440 q 148 178 104 254 q 268 58 192 101 q 438 14 344 14 m 438 813 l 408 813 l 315 1035 l 346 1035 l 438 813 z "},"ő":{"ha":875,"x_min":76,"x_max":799,"o":"m 438 -14 q 255 34 338 -14 q 124 165 172 82 q 76 347 76 247 q 124 530 76 447 q 255 660 172 613 q 438 708 338 708 q 620 660 538 708 q 751 530 703 613 q 799 347 799 447 q 751 165 799 247 q 620 34 703 82 q 438 -14 538 -14 m 438 14 q 607 58 531 14 q 727 178 683 101 q 771 347 771 254 q 727 517 771 440 q 607 637 683 593 q 438 681 531 681 q 268 637 344 681 q 148 517 192 593 q 104 347 104 440 q 148 178 104 254 q 268 58 192 101 q 438 14 344 14 z "},"ō":{"ha":875,"x_min":76,"x_max":799,"o":"m 438 -14 q 255 34 338 -14 q 124 165 172 82 q 76 347 76 247 q 124 530 76 447 q 255 660 172 613 q 438 708 338 708 q 620 660 538 708 q 751 530 703 613 q 799 347 799 447 q 751 165 799 247 q 620 34 703 82 q 438 -14 538 -14 m 438 14 q 607 58 531 14 q 727 178 683 101 q 771 347 771 254 q 727 517 771 440 q 607 637 683 593 q 438 681 531 681 q 268 637 344 681 q 148 517 192 593 q 104 347 104 440 q 148 178 104 254 q 268 58 192 101 q 438 14 344 14 m 215 944 l 660 944 l 660 917 l 215 917 l 215 944 z "},"ø":{"ha":875,"x_min":76,"x_max":799,"o":"m 438 -14 q 306 10 368 -14 q 196 76 243 33 l 122 0 l 85 0 l 176 94 q 103 209 129 144 q 76 347 76 274 q 124 530 76 447 q 255 660 172 613 q 438 708 338 708 q 569 685 507 708 q 679 618 632 661 l 753 694 l 790 694 l 699 600 q 772 485 746 550 q 799 347 799 421 q 751 165 799 247 q 620 34 703 82 q 438 -14 538 -14 m 660 599 q 558 659 615 638 q 438 681 501 681 q 268 637 344 681 q 148 517 192 593 q 104 347 104 440 q 128 219 104 279 q 194 115 151 160 l 660 599 m 438 14 q 607 58 531 14 q 727 178 683 101 q 771 347 771 254 q 747 475 771 415 q 681 579 724 535 l 215 96 q 317 35 260 57 q 438 14 374 14 z "},"õ":{"ha":875,"x_min":76,"x_max":799,"o":"m 438 -14 q 255 34 338 -14 q 124 165 172 82 q 76 347 76 247 q 124 530 76 447 q 255 660 172 613 q 438 708 338 708 q 620 660 538 708 q 751 530 703 613 q 799 347 799 447 q 751 165 799 247 q 620 34 703 82 q 438 -14 538 -14 m 438 14 q 607 58 531 14 q 727 178 683 101 q 771 347 771 254 q 727 517 771 440 q 607 637 683 593 q 438 681 531 681 q 268 637 344 681 q 148 517 192 593 q 104 347 104 440 q 148 178 104 254 q 268 58 192 101 q 438 14 344 14 m 181 881 q 216 951 181 921 q 299 981 251 981 q 366 971 335 981 q 442 943 397 961 q 517 917 489 925 q 576 908 544 908 q 640 931 613 908 q 667 981 667 953 l 694 981 q 659 910 694 940 q 576 881 624 881 q 509 890 540 881 q 433 918 478 900 q 358 944 386 936 q 299 953 331 953 q 235 931 263 953 q 208 881 208 908 l 181 881 z "},"œ":{"ha":1553,"x_min":76,"x_max":1483,"o":"m 438 -14 q 255 34 338 -14 q 124 165 172 82 q 76 347 76 247 q 124 530 76 447 q 255 660 172 613 q 438 708 338 708 q 657 637 563 708 q 785 450 751 565 q 910 637 817 565 q 1128 708 1004 708 q 1308 660 1226 708 q 1437 530 1390 613 q 1483 347 1483 447 q 1483 340 1483 344 q 1483 333 1483 336 l 799 333 q 846 170 801 243 q 964 56 890 97 q 1128 14 1038 14 q 1316 65 1235 14 q 1426 199 1397 115 l 1456 199 q 1388 87 1436 135 q 1273 13 1340 39 q 1128 -14 1206 -14 q 910 58 1004 -14 q 785 244 817 129 q 657 58 751 129 q 438 -14 563 -14 m 438 14 q 607 58 531 14 q 727 178 683 101 q 771 347 771 254 q 727 517 771 440 q 607 637 683 593 q 438 681 531 681 q 268 637 344 681 q 148 517 192 593 q 104 347 104 440 q 148 178 104 254 q 268 58 192 101 q 438 14 344 14 m 1456 361 q 1409 524 1453 451 q 1291 639 1365 597 q 1128 681 1217 681 q 964 639 1038 681 q 846 524 890 597 q 799 361 801 451 l 799 361 l 1456 361 z "},"p":{"ha":924,"x_min":153,"x_max":847,"o":"m 153 -278 l 153 694 l 181 694 l 181 485 q 303 647 218 586 q 503 708 389 708 q 678 660 599 708 q 802 530 757 613 q 847 347 847 447 q 802 165 847 247 q 678 34 757 82 q 503 -14 599 -14 q 303 47 389 -14 q 181 210 218 108 l 181 -278 l 153 -278 m 500 14 q 662 58 589 14 q 777 178 735 101 q 819 347 819 254 q 777 517 819 440 q 662 637 735 593 q 500 681 589 681 q 338 637 411 681 q 223 517 265 593 q 181 347 181 440 q 223 178 181 254 q 338 58 265 101 q 500 14 411 14 z "},"þ":{"ha":924,"x_min":153,"x_max":847,"o":"m 153 -278 l 153 986 l 181 986 l 181 485 q 303 647 218 586 q 503 708 389 708 q 678 660 599 708 q 802 530 757 613 q 847 347 847 447 q 802 165 847 247 q 678 34 757 82 q 503 -14 599 -14 q 303 47 389 -14 q 181 210 218 108 l 181 -278 l 153 -278 m 500 14 q 662 58 589 14 q 777 178 735 101 q 819 347 819 254 q 777 517 819 440 q 662 637 735 593 q 500 681 589 681 q 338 637 411 681 q 223 517 265 593 q 181 347 181 440 q 223 178 181 254 q 338 58 265 101 q 500 14 411 14 z "},"q":{"ha":924,"x_min":76,"x_max":771,"o":"m 771 -278 l 743 -278 l 743 210 q 620 47 706 108 q 421 -14 535 -14 q 246 34 325 -14 q 122 165 167 82 q 76 347 76 247 q 122 530 76 447 q 246 660 167 613 q 421 708 325 708 q 620 647 535 708 q 743 485 706 586 l 743 694 l 771 694 l 771 -278 m 424 14 q 585 58 513 14 q 701 178 658 101 q 743 347 743 254 q 701 517 743 440 q 585 637 658 593 q 424 681 513 681 q 262 637 335 681 q 147 517 189 593 q 104 347 104 440 q 147 178 104 254 q 262 58 189 101 q 424 14 335 14 z "},"r":{"ha":701,"x_min":153,"x_max":674,"o":"m 153 0 l 153 694 l 181 694 l 181 494 q 283 649 213 590 q 444 708 354 708 q 568 679 517 708 q 647 594 619 650 q 674 458 674 538 l 674 431 l 646 431 l 646 458 q 594 623 646 565 q 444 681 542 681 q 312 638 372 681 q 216 522 251 594 q 181 361 181 449 l 181 0 l 153 0 z "},"ŕ":{"ha":701,"x_min":153,"x_max":674,"o":"m 153 0 l 153 694 l 181 694 l 181 494 q 283 649 213 590 q 444 708 354 708 q 568 679 517 708 q 647 594 619 650 q 674 458 674 538 l 674 431 l 646 431 l 646 458 q 594 623 646 565 q 444 681 542 681 q 312 638 372 681 q 216 522 251 594 q 181 361 181 449 l 181 0 l 153 0 m 413 813 l 504 1035 l 535 1035 l 442 813 l 413 813 z "},"ř":{"ha":701,"x_min":153,"x_max":674,"o":"m 153 0 l 153 694 l 181 694 l 181 494 q 283 649 213 590 q 444 708 354 708 q 568 679 517 708 q 647 594 619 650 q 674 458 674 538 l 674 431 l 646 431 l 646 458 q 594 623 646 565 q 444 681 542 681 q 312 638 372 681 q 216 522 251 594 q 181 361 181 449 l 181 0 l 153 0 m 174 1035 l 214 1035 l 413 840 l 613 1035 l 651 1035 l 424 813 l 401 813 l 174 1035 z "},"ŗ":{"ha":701,"x_min":108,"x_max":674,"o":"m 153 0 l 153 694 l 181 694 l 181 494 q 283 649 213 590 q 444 708 354 708 q 568 679 517 708 q 647 594 619 650 q 674 458 674 538 l 674 431 l 646 431 l 646 458 q 594 623 646 565 q 444 681 542 681 q 312 638 372 681 q 216 522 251 594 q 181 361 181 449 l 181 0 l 153 0 m 136 -340 l 108 -340 l 108 -340 q 153 -260 136 -300 q 172 -185 171 -221 q 169 -185 171 -185 q 165 -185 167 -185 q 141 -176 150 -185 q 132 -151 132 -167 q 142 -127 132 -137 q 167 -117 151 -117 q 192 -128 182 -117 q 201 -157 201 -139 q 181 -255 201 -199 q 136 -340 160 -311 z "},"s":{"ha":732,"x_min":58,"x_max":654,"o":"m 383 -14 q 167 46 258 -14 q 58 222 75 106 l 86 222 q 186 66 103 118 q 382 14 269 14 q 491 29 435 14 q 587 81 547 44 q 626 174 626 117 q 596 257 626 226 q 519 301 565 288 q 390 329 472 315 q 375 332 383 331 q 360 335 367 333 q 211 365 267 350 q 117 415 156 381 q 79 513 79 450 q 119 624 79 581 q 219 688 158 668 q 350 708 281 708 q 549 649 467 708 q 646 479 632 590 l 618 479 q 527 631 603 581 q 344 681 451 681 q 180 640 253 681 q 107 513 107 600 q 134 439 107 467 q 205 397 161 411 q 315 371 249 382 q 335 367 325 369 q 356 364 346 365 q 364 363 360 363 q 374 361 368 363 q 522 329 467 346 q 616 276 578 313 q 654 174 654 239 q 611 65 654 107 q 506 5 568 24 q 383 -14 444 -14 z "},"ś":{"ha":732,"x_min":58,"x_max":654,"o":"m 383 -14 q 167 46 258 -14 q 58 222 75 106 l 86 222 q 186 66 103 118 q 382 14 269 14 q 491 29 435 14 q 587 81 547 44 q 626 174 626 117 q 596 257 626 226 q 519 301 565 288 q 390 329 472 315 q 375 332 383 331 q 360 335 367 333 q 211 365 267 350 q 117 415 156 381 q 79 513 79 450 q 119 624 79 581 q 219 688 158 668 q 350 708 281 708 q 549 649 467 708 q 646 479 632 590 l 618 479 q 527 631 603 581 q 344 681 451 681 q 180 640 253 681 q 107 513 107 600 q 134 439 107 467 q 205 397 161 411 q 315 371 249 382 q 335 367 325 369 q 356 364 346 365 q 364 363 360 363 q 374 361 368 363 q 522 329 467 346 q 616 276 578 313 q 654 174 654 239 q 611 65 654 107 q 506 5 568 24 q 383 -14 444 -14 m 356 813 l 447 1035 l 478 1035 l 385 813 l 356 813 z "},"š":{"ha":732,"x_min":58,"x_max":654,"o":"m 383 -14 q 167 46 258 -14 q 58 222 75 106 l 86 222 q 186 66 103 118 q 382 14 269 14 q 491 29 435 14 q 587 81 547 44 q 626 174 626 117 q 596 257 626 226 q 519 301 565 288 q 390 329 472 315 q 375 332 383 331 q 360 335 367 333 q 211 365 267 350 q 117 415 156 381 q 79 513 79 450 q 119 624 79 581 q 219 688 158 668 q 350 708 281 708 q 549 649 467 708 q 646 479 632 590 l 618 479 q 527 631 603 581 q 344 681 451 681 q 180 640 253 681 q 107 513 107 600 q 134 439 107 467 q 205 397 161 411 q 315 371 249 382 q 335 367 325 369 q 356 364 346 365 q 364 363 360 363 q 374 361 368 363 q 522 329 467 346 q 616 276 578 313 q 654 174 654 239 q 611 65 654 107 q 506 5 568 24 q 383 -14 444 -14 m 117 1035 l 157 1035 l 356 840 l 556 1035 l 594 1035 l 367 813 l 344 813 l 117 1035 z "},"ş":{"ha":732,"x_min":58,"x_max":654,"o":"m 383 -14 q 167 46 258 -14 q 58 222 75 106 l 86 222 q 186 66 103 118 q 382 14 269 14 q 491 29 435 14 q 587 81 547 44 q 626 174 626 117 q 596 257 626 226 q 519 301 565 288 q 390 329 472 315 q 375 332 383 331 q 360 335 367 333 q 211 365 267 350 q 117 415 156 381 q 79 513 79 450 q 119 624 79 581 q 219 688 158 668 q 350 708 281 708 q 549 649 467 708 q 646 479 632 590 l 618 479 q 527 631 603 581 q 344 681 451 681 q 180 640 253 681 q 107 513 107 600 q 134 439 107 467 q 205 397 161 411 q 315 371 249 382 q 335 367 325 369 q 356 364 346 365 q 364 363 360 363 q 374 361 368 363 q 522 329 467 346 q 616 276 578 313 q 654 174 654 239 q 611 65 654 107 q 506 5 568 24 q 383 -14 444 -14 m 397 -118 l 306 -340 l 275 -340 l 368 -118 l 397 -118 z "},"ș":{"ha":732,"x_min":58,"x_max":654,"o":"m 383 -14 q 167 46 258 -14 q 58 222 75 106 l 86 222 q 186 66 103 118 q 382 14 269 14 q 491 29 435 14 q 587 81 547 44 q 626 174 626 117 q 596 257 626 226 q 519 301 565 288 q 390 329 472 315 q 375 332 383 331 q 360 335 367 333 q 211 365 267 350 q 117 415 156 381 q 79 513 79 450 q 119 624 79 581 q 219 688 158 668 q 350 708 281 708 q 549 649 467 708 q 646 479 632 590 l 618 479 q 527 631 603 581 q 344 681 451 681 q 180 640 253 681 q 107 513 107 600 q 134 439 107 467 q 205 397 161 411 q 315 371 249 382 q 335 367 325 369 q 356 364 346 365 q 364 363 360 363 q 374 361 368 363 q 522 329 467 346 q 616 276 578 313 q 654 174 654 239 q 611 65 654 107 q 506 5 568 24 q 383 -14 444 -14 m 353 -340 l 325 -340 l 325 -340 q 370 -260 353 -300 q 389 -185 388 -221 q 385 -185 388 -185 q 382 -185 383 -185 q 358 -176 367 -185 q 349 -151 349 -167 q 358 -127 349 -137 q 383 -117 368 -117 q 408 -128 399 -117 q 418 -157 418 -139 q 397 -255 418 -199 q 353 -340 376 -311 z "},"ß":{"ha":1040,"x_min":69,"x_max":999,"o":"m 222 -278 l 222 667 l 69 667 l 69 694 l 222 694 l 222 788 q 256 915 222 861 q 353 999 290 969 q 503 1028 417 1028 q 652 999 589 1028 q 749 915 715 969 q 783 788 783 861 l 783 678 q 689 681 719 681 q 524 640 597 681 q 451 513 451 600 q 484 434 451 463 q 565 392 517 406 q 694 365 613 379 q 697 364 696 364 q 700 364 699 364 q 708 363 704 363 q 718 361 713 363 q 867 329 811 346 q 960 276 922 313 q 999 174 999 239 q 956 65 999 107 q 851 5 913 24 q 728 -14 789 -14 q 511 46 603 -14 q 403 222 419 106 l 431 222 q 531 66 447 118 q 726 14 614 14 q 835 29 779 14 q 931 81 892 44 q 971 174 971 117 q 938 260 971 229 q 857 305 906 292 q 721 332 808 318 l 704 335 q 556 365 611 350 q 462 415 500 381 q 424 513 424 450 q 463 624 424 581 q 564 688 503 668 q 694 708 625 708 l 756 708 l 756 788 q 724 904 756 857 q 636 976 693 951 q 503 1000 579 1000 q 318 945 386 1000 q 250 788 250 890 q 250 767 250 778 q 250 746 250 757 q 250 714 250 731 q 250 682 250 697 l 250 -278 l 222 -278 z "},"t":{"ha":653,"x_min":42,"x_max":597,"o":"m 454 -14 q 279 42 336 -14 q 222 208 222 99 l 222 667 l 42 667 l 42 694 l 208 694 q 219 699 215 694 q 222 708 222 703 l 222 861 l 253 861 l 250 694 l 597 694 l 597 667 l 250 667 l 250 208 q 300 61 250 108 q 451 14 350 14 q 597 40 515 14 l 597 14 q 525 -6 567 3 q 454 -14 483 -14 z "},"ŧ":{"ha":653,"x_min":42,"x_max":597,"o":"m 597 667 l 250 667 l 250 361 l 597 361 l 597 333 l 250 333 l 250 208 q 300 61 250 108 q 451 14 350 14 q 597 40 515 14 l 597 14 q 525 -6 567 3 q 454 -14 483 -14 q 279 42 336 -14 q 222 208 222 99 l 222 333 l 43 333 l 43 361 l 222 361 l 222 667 l 42 667 l 42 694 l 208 694 q 219 699 215 694 q 222 708 222 703 l 222 861 l 253 861 l 250 694 l 597 694 l 597 667 z "},"ť":{"ha":653,"x_min":42,"x_max":597,"o":"m 454 -14 q 279 42 336 -14 q 222 208 222 99 l 222 667 l 42 667 l 42 694 l 208 694 q 219 699 215 694 q 222 708 222 703 l 222 861 l 253 861 l 250 694 l 597 694 l 597 667 l 250 667 l 250 208 q 300 61 250 108 q 451 14 350 14 q 597 40 515 14 l 597 14 q 525 -6 567 3 q 454 -14 483 -14 m 350 750 l 350 972 l 378 972 l 375 750 l 350 750 z "},"ţ":{"ha":653,"x_min":42,"x_max":597,"o":"m 454 -14 q 279 42 336 -14 q 222 208 222 99 l 222 667 l 42 667 l 42 694 l 208 694 q 219 699 215 694 q 222 708 222 703 l 222 861 l 253 861 l 250 694 l 597 694 l 597 667 l 250 667 l 250 208 q 300 61 250 108 q 451 14 350 14 q 597 40 515 14 l 597 14 q 525 -6 567 3 q 454 -14 483 -14 m 432 -118 l 340 -340 l 310 -340 l 403 -118 l 432 -118 z "},"ț":{"ha":653,"x_min":42,"x_max":597,"o":"m 454 -14 q 279 42 336 -14 q 222 208 222 99 l 222 667 l 42 667 l 42 694 l 208 694 q 219 699 215 694 q 222 708 222 703 l 222 861 l 253 861 l 250 694 l 597 694 l 597 667 l 250 667 l 250 208 q 300 61 250 108 q 451 14 350 14 q 597 40 515 14 l 597 14 q 525 -6 567 3 q 454 -14 483 -14 m 388 -340 l 360 -340 l 360 -340 q 405 -260 388 -300 q 424 -185 422 -221 q 420 -185 422 -185 q 417 -185 418 -185 q 392 -176 401 -185 q 383 -151 383 -167 q 393 -127 383 -137 q 418 -117 403 -117 q 443 -128 433 -117 q 453 -157 453 -139 q 432 -255 453 -199 q 388 -340 411 -311 z "},"u":{"ha":917,"x_min":139,"x_max":764,"o":"m 450 -14 q 283 27 353 -14 q 176 147 213 68 q 139 333 139 225 l 139 694 l 167 694 l 167 333 q 242 99 167 185 q 450 14 318 14 q 595 56 529 14 q 699 171 661 97 q 736 333 736 244 l 736 694 l 764 694 l 764 0 l 736 0 l 736 196 q 625 43 701 100 q 450 -14 549 -14 z "},"ú":{"ha":917,"x_min":139,"x_max":764,"o":"m 450 -14 q 283 27 353 -14 q 176 147 213 68 q 139 333 139 225 l 139 694 l 167 694 l 167 333 q 242 99 167 185 q 450 14 318 14 q 595 56 529 14 q 699 171 661 97 q 736 333 736 244 l 736 694 l 764 694 l 764 0 l 736 0 l 736 196 q 625 43 701 100 q 450 -14 549 -14 m 450 813 l 542 1035 l 572 1035 l 479 813 l 450 813 z "},"û":{"ha":917,"x_min":139,"x_max":764,"o":"m 450 -14 q 283 27 353 -14 q 176 147 213 68 q 139 333 139 225 l 139 694 l 167 694 l 167 333 q 242 99 167 185 q 450 14 318 14 q 595 56 529 14 q 699 171 661 97 q 736 333 736 244 l 736 694 l 764 694 l 764 0 l 736 0 l 736 196 q 625 43 701 100 q 450 -14 549 -14 z "},"ü":{"ha":917,"x_min":139,"x_max":764,"o":"m 450 -14 q 283 27 353 -14 q 176 147 213 68 q 139 333 139 225 l 139 694 l 167 694 l 167 333 q 242 99 167 185 q 450 14 318 14 q 595 56 529 14 q 699 171 661 97 q 736 333 736 244 l 736 694 l 764 694 l 764 0 l 736 0 l 736 196 q 625 43 701 100 q 450 -14 549 -14 m 358 813 l 346 1035 l 383 1035 l 371 813 l 358 813 m 531 813 l 518 1035 l 556 1035 l 543 813 l 531 813 z "},"ù":{"ha":917,"x_min":139,"x_max":764,"o":"m 450 -14 q 283 27 353 -14 q 176 147 213 68 q 139 333 139 225 l 139 694 l 167 694 l 167 333 q 242 99 167 185 q 450 14 318 14 q 595 56 529 14 q 699 171 661 97 q 736 333 736 244 l 736 694 l 764 694 l 764 0 l 736 0 l 736 196 q 625 43 701 100 q 450 -14 549 -14 m 450 813 l 421 813 l 328 1035 l 358 1035 l 450 813 z "},"ű":{"ha":917,"x_min":139,"x_max":764,"o":"m 450 -14 q 283 27 353 -14 q 176 147 213 68 q 139 333 139 225 l 139 694 l 167 694 l 167 333 q 242 99 167 185 q 450 14 318 14 q 595 56 529 14 q 699 171 661 97 q 736 333 736 244 l 736 694 l 764 694 l 764 0 l 736 0 l 736 196 q 625 43 701 100 q 450 -14 549 -14 z "},"ū":{"ha":917,"x_min":139,"x_max":764,"o":"m 450 -14 q 283 27 353 -14 q 176 147 213 68 q 139 333 139 225 l 139 694 l 167 694 l 167 333 q 242 99 167 185 q 450 14 318 14 q 595 56 529 14 q 699 171 661 97 q 736 333 736 244 l 736 694 l 764 694 l 764 0 l 736 0 l 736 196 q 625 43 701 100 q 450 -14 549 -14 m 228 944 l 672 944 l 672 917 l 228 917 l 228 944 z "},"ų":{"ha":917,"x_min":139,"x_max":765,"o":"m 450 -14 q 283 27 353 -14 q 176 147 213 68 q 139 333 139 225 l 139 694 l 167 694 l 167 333 q 242 99 167 185 q 450 14 318 14 q 595 56 529 14 q 699 171 661 97 q 736 333 736 244 l 736 694 l 764 694 l 764 0 l 736 0 l 736 196 q 625 43 701 100 q 450 -14 549 -14 m 765 -118 l 674 -340 l 643 -340 l 736 -118 l 765 -118 z "},"ů":{"ha":917,"x_min":139,"x_max":764,"o":"m 450 -14 q 283 27 353 -14 q 176 147 213 68 q 139 333 139 225 l 139 694 l 167 694 l 167 333 q 242 99 167 185 q 450 14 318 14 q 595 56 529 14 q 699 171 661 97 q 736 333 736 244 l 736 694 l 764 694 l 764 0 l 736 0 l 736 196 q 625 43 701 100 q 450 -14 549 -14 m 450 813 q 366 835 404 813 q 306 895 328 857 q 283 979 283 933 q 306 1063 283 1025 q 366 1124 328 1101 q 450 1146 404 1146 q 533 1124 494 1146 q 594 1063 572 1101 q 617 979 617 1024 q 594 896 617 935 q 533 835 572 857 q 450 813 494 813 m 450 840 q 519 859 488 840 q 570 910 551 878 q 589 979 589 942 q 570 1049 589 1017 q 519 1099 551 1081 q 450 1118 488 1118 q 380 1099 411 1118 q 330 1049 349 1081 q 311 979 311 1018 q 330 909 311 940 q 380 859 349 878 q 450 840 411 840 z "},"v":{"ha":719,"x_min":14,"x_max":706,"o":"m 340 0 l 14 694 l 44 694 l 360 24 l 360 24 l 675 694 l 706 694 l 378 0 l 340 0 z "},"w":{"ha":1094,"x_min":33,"x_max":1061,"o":"m 283 0 l 33 694 l 63 694 l 299 39 l 532 694 l 563 694 l 796 39 l 1032 694 l 1061 694 l 811 0 l 781 0 l 547 656 l 314 0 l 283 0 z "},"ẃ":{"ha":1094,"x_min":33,"x_max":1061,"o":"m 283 0 l 33 694 l 63 694 l 299 39 l 532 694 l 563 694 l 796 39 l 1032 694 l 1061 694 l 811 0 l 781 0 l 547 656 l 314 0 l 283 0 m 547 813 l 639 1035 l 669 1035 l 576 813 l 547 813 z "},"ŵ":{"ha":1094,"x_min":33,"x_max":1061,"o":"m 283 0 l 33 694 l 63 694 l 299 39 l 532 694 l 563 694 l 796 39 l 1032 694 l 1061 694 l 811 0 l 781 0 l 547 656 l 314 0 l 283 0 z "},"ẅ":{"ha":1094,"x_min":33,"x_max":1061,"o":"m 283 0 l 33 694 l 63 694 l 299 39 l 532 694 l 563 694 l 796 39 l 1032 694 l 1061 694 l 811 0 l 781 0 l 547 656 l 314 0 l 283 0 m 456 813 l 443 1035 l 481 1035 l 468 813 l 456 813 m 628 813 l 615 1035 l 653 1035 l 640 813 l 628 813 z "},"ẁ":{"ha":1094,"x_min":33,"x_max":1061,"o":"m 283 0 l 33 694 l 63 694 l 299 39 l 532 694 l 563 694 l 796 39 l 1032 694 l 1061 694 l 811 0 l 781 0 l 547 656 l 314 0 l 283 0 m 547 813 l 518 813 l 425 1035 l 456 1035 l 547 813 z "},"x":{"ha":772,"x_min":56,"x_max":717,"o":"m 56 0 l 368 353 l 67 694 l 104 694 l 386 375 l 669 694 l 706 694 l 406 353 l 717 0 l 679 0 l 386 332 l 93 0 l 56 0 z "},"y":{"ha":738,"x_min":21,"x_max":724,"o":"m 231 -292 q 128 -267 172 -292 q 60 -197 85 -242 q 36 -90 36 -151 l 36 -53 l 64 -53 l 64 -90 q 85 -182 64 -143 q 143 -242 106 -221 q 231 -264 181 -264 q 352 -217 307 -264 q 397 -90 397 -169 l 397 -65 q 391 -1 397 -29 q 368 56 385 26 l 21 694 l 53 694 l 393 68 q 403 44 399 57 q 410 15 408 31 q 417 44 413 32 q 426 71 421 57 l 693 694 l 724 694 l 451 57 q 431 -2 438 25 q 425 -62 425 -29 l 425 -90 q 401 -197 425 -151 q 333 -267 376 -242 q 231 -292 289 -292 z "},"ý":{"ha":738,"x_min":21,"x_max":724,"o":"m 231 -292 q 128 -267 172 -292 q 60 -197 85 -242 q 36 -90 36 -151 l 36 -53 l 64 -53 l 64 -90 q 85 -182 64 -143 q 143 -242 106 -221 q 231 -264 181 -264 q 352 -217 307 -264 q 397 -90 397 -169 l 397 -65 q 391 -1 397 -29 q 368 56 385 26 l 21 694 l 53 694 l 393 68 q 403 44 399 57 q 410 15 408 31 q 417 44 413 32 q 426 71 421 57 l 693 694 l 724 694 l 451 57 q 431 -2 438 25 q 425 -62 425 -29 l 425 -90 q 401 -197 425 -151 q 333 -267 376 -242 q 231 -292 289 -292 m 375 813 l 467 1035 l 497 1035 l 404 813 l 375 813 z "},"ŷ":{"ha":738,"x_min":21,"x_max":724,"o":"m 231 -292 q 128 -267 172 -292 q 60 -197 85 -242 q 36 -90 36 -151 l 36 -53 l 64 -53 l 64 -90 q 85 -182 64 -143 q 143 -242 106 -221 q 231 -264 181 -264 q 352 -217 307 -264 q 397 -90 397 -169 l 397 -65 q 391 -1 397 -29 q 368 56 385 26 l 21 694 l 53 694 l 393 68 q 403 44 399 57 q 410 15 408 31 q 417 44 413 32 q 426 71 421 57 l 693 694 l 724 694 l 451 57 q 431 -2 438 25 q 425 -62 425 -29 l 425 -90 q 401 -197 425 -151 q 333 -267 376 -242 q 231 -292 289 -292 z "},"ÿ":{"ha":738,"x_min":21,"x_max":724,"o":"m 231 -292 q 128 -267 172 -292 q 60 -197 85 -242 q 36 -90 36 -151 l 36 -53 l 64 -53 l 64 -90 q 85 -182 64 -143 q 143 -242 106 -221 q 231 -264 181 -264 q 352 -217 307 -264 q 397 -90 397 -169 l 397 -65 q 391 -1 397 -29 q 368 56 385 26 l 21 694 l 53 694 l 393 68 q 403 44 399 57 q 410 15 408 31 q 417 44 413 32 q 426 71 421 57 l 693 694 l 724 694 l 451 57 q 431 -2 438 25 q 425 -62 425 -29 l 425 -90 q 401 -197 425 -151 q 333 -267 376 -242 q 231 -292 289 -292 m 283 813 l 271 1035 l 308 1035 l 296 813 l 283 813 m 456 813 l 443 1035 l 481 1035 l 468 813 l 456 813 z "},"ỳ":{"ha":738,"x_min":21,"x_max":724,"o":"m 231 -292 q 128 -267 172 -292 q 60 -197 85 -242 q 36 -90 36 -151 l 36 -53 l 64 -53 l 64 -90 q 85 -182 64 -143 q 143 -242 106 -221 q 231 -264 181 -264 q 352 -217 307 -264 q 397 -90 397 -169 l 397 -65 q 391 -1 397 -29 q 368 56 385 26 l 21 694 l 53 694 l 393 68 q 403 44 399 57 q 410 15 408 31 q 417 44 413 32 q 426 71 421 57 l 693 694 l 724 694 l 451 57 q 431 -2 438 25 q 425 -62 425 -29 l 425 -90 q 401 -197 425 -151 q 333 -267 376 -242 q 231 -292 289 -292 m 375 813 l 346 813 l 253 1035 l 283 1035 l 375 813 z "},"z":{"ha":708,"x_min":56,"x_max":639,"o":"m 56 0 l 56 28 l 600 667 l 78 667 l 78 694 l 636 694 l 636 667 l 92 28 l 639 28 l 639 0 l 56 0 z "},"ź":{"ha":708,"x_min":56,"x_max":639,"o":"m 56 0 l 56 28 l 600 667 l 78 667 l 78 694 l 636 694 l 636 667 l 92 28 l 639 28 l 639 0 l 56 0 m 417 813 l 508 1035 l 539 1035 l 446 813 l 417 813 z "},"ž":{"ha":708,"x_min":56,"x_max":656,"o":"m 56 0 l 56 28 l 600 667 l 78 667 l 78 694 l 636 694 l 636 667 l 92 28 l 639 28 l 639 0 l 56 0 m 178 1035 l 218 1035 l 417 840 l 617 1035 l 656 1035 l 428 813 l 406 813 l 178 1035 z "},"ż":{"ha":708,"x_min":56,"x_max":639,"o":"m 56 0 l 56 28 l 600 667 l 78 667 l 78 694 l 636 694 l 636 667 l 92 28 l 639 28 l 639 0 l 56 0 m 410 813 l 396 1035 l 438 1035 l 424 813 l 410 813 z "},"А":{"ha":922,"x_min":21,"x_max":901,"o":"m 21 0 l 443 972 l 479 972 l 901 0 l 871 0 l 732 319 l 189 319 l 50 0 l 21 0 m 200 346 l 721 346 l 461 946 l 461 946 l 200 346 z "},"Б":{"ha":953,"x_min":194,"x_max":842,"o":"m 194 0 l 194 972 l 792 972 l 792 944 l 222 944 l 222 539 l 501 539 q 751 467 660 539 q 842 269 842 394 q 751 72 842 144 q 501 0 660 0 l 194 0 m 501 28 q 731 92 649 28 q 814 269 814 157 q 731 447 814 382 q 501 511 649 511 l 222 511 l 222 28 l 501 28 z "},"В":{"ha":968,"x_min":194,"x_max":878,"o":"m 194 0 l 194 972 l 522 972 q 753 906 669 972 q 838 722 838 839 q 789 576 838 635 q 647 493 740 517 l 647 488 q 819 408 760 469 q 878 250 878 346 q 840 116 878 172 q 731 30 801 60 q 563 0 660 0 l 194 0 m 563 28 q 774 87 699 28 q 850 250 850 146 q 773 413 850 354 q 563 472 696 472 l 222 472 l 222 28 l 563 28 m 522 500 q 734 559 658 500 q 810 722 810 618 q 734 885 810 826 q 522 944 658 944 l 222 944 l 222 500 l 522 500 z "},"Г":{"ha":833,"x_min":194,"x_max":778,"o":"m 194 0 l 194 972 l 778 972 l 778 944 l 222 944 l 222 0 l 194 0 z "},"Ґ":{"ha":833,"x_min":194,"x_max":778,"o":"m 750 1208 l 778 1208 l 778 944 l 222 944 l 222 0 l 194 0 l 194 972 l 750 972 l 750 1208 z "},"Д":{"ha":1042,"x_min":35,"x_max":958,"o":"m 35 -236 l 35 28 l 122 28 q 188 335 168 178 q 207 714 207 492 q 207 744 207 729 q 207 772 207 758 l 207 972 l 840 972 l 840 28 l 958 28 l 958 -236 l 931 -236 l 931 0 l 63 0 l 63 -236 l 35 -236 m 151 28 l 813 28 l 813 944 l 235 944 l 235 714 q 215 336 235 494 q 151 28 196 178 z "},"Е":{"ha":819,"x_min":194,"x_max":778,"o":"m 194 0 l 194 972 l 708 972 l 708 944 l 222 944 l 222 500 l 589 500 l 589 472 l 222 472 l 222 28 l 778 28 l 778 0 l 194 0 z "},"Ё":{"ha":819,"x_min":194,"x_max":778,"o":"m 194 0 l 194 972 l 708 972 l 708 944 l 222 944 l 222 500 l 589 500 l 589 472 l 222 472 l 222 28 l 778 28 l 778 0 l 194 0 m 361 1090 l 349 1313 l 386 1313 l 374 1090 l 361 1090 m 533 1090 l 521 1313 l 558 1313 l 546 1090 l 533 1090 z "},"Ж":{"ha":1358,"x_min":56,"x_max":1303,"o":"m 56 0 l 438 486 l 56 972 l 92 972 l 463 500 l 665 500 l 665 972 l 693 972 l 693 500 l 896 500 l 1267 972 l 1303 972 l 921 486 l 1303 0 l 1265 0 l 894 472 l 693 472 l 693 0 l 665 0 l 665 472 l 463 472 l 92 0 l 56 0 z "},"З":{"ha":883,"x_min":56,"x_max":832,"o":"m 474 -21 q 269 20 360 -21 q 124 136 179 61 q 56 311 68 211 l 81 311 q 208 89 103 171 q 474 7 313 7 q 716 71 626 7 q 806 243 806 135 q 769 359 806 307 q 668 442 732 411 q 526 472 604 472 l 425 472 l 425 500 l 526 500 q 660 531 599 500 q 756 615 721 563 q 792 731 792 668 q 751 853 792 800 q 639 936 711 907 q 472 965 567 965 q 224 885 321 965 q 110 667 128 804 l 82 667 q 144 840 93 767 q 279 953 194 914 q 472 993 364 993 q 654 960 575 993 q 776 868 733 928 q 819 731 819 808 q 763 578 819 643 q 611 488 707 513 q 768 401 704 469 q 832 246 832 332 q 789 103 832 163 q 665 11 746 43 q 474 -21 585 -21 z "},"И":{"ha":1167,"x_min":194,"x_max":972,"o":"m 194 0 l 194 972 l 222 972 l 222 44 l 939 972 l 972 972 l 972 0 l 944 0 l 944 936 l 222 0 l 194 0 z "},"Й":{"ha":1167,"x_min":194,"x_max":972,"o":"m 194 0 l 194 972 l 222 972 l 222 44 l 939 972 l 972 972 l 972 0 l 944 0 l 944 936 l 222 0 l 194 0 m 583 1090 q 459 1117 513 1090 q 376 1190 406 1143 q 347 1301 347 1238 l 347 1313 l 375 1313 l 375 1301 q 431 1167 375 1217 q 583 1118 486 1118 q 736 1167 681 1118 q 792 1301 792 1217 l 792 1313 l 819 1313 l 819 1301 q 790 1190 819 1238 q 708 1117 761 1143 q 583 1090 654 1090 z "},"К":{"ha":922,"x_min":194,"x_max":867,"o":"m 194 0 l 194 972 l 222 972 l 222 500 l 419 500 l 831 972 l 867 972 l 443 486 l 867 0 l 829 0 l 418 472 l 222 472 l 222 0 l 194 0 z "},"Л":{"ha":1097,"x_min":4,"x_max":903,"o":"m 86 -17 q 41 -13 58 -17 q 4 0 24 -10 l 4 29 q 5 29 4 29 q 6 29 6 29 q 44 15 29 18 q 86 11 58 11 q 145 26 118 11 q 193 71 172 42 q 224 140 214 100 q 263 411 251 244 q 275 811 275 578 l 275 972 l 903 972 l 903 0 l 875 0 l 875 944 l 303 944 l 303 811 q 290 401 303 567 q 250 133 276 236 q 188 24 232 64 q 86 -17 144 -17 z "},"М":{"ha":1353,"x_min":194,"x_max":1158,"o":"m 194 0 l 194 972 l 239 972 l 678 25 l 1115 972 l 1158 972 l 1158 0 l 1131 0 l 1131 942 l 694 0 l 658 0 l 222 942 l 222 0 l 194 0 z "},"Н":{"ha":1139,"x_min":194,"x_max":944,"o":"m 194 0 l 194 972 l 222 972 l 222 500 l 917 500 l 917 972 l 944 972 l 944 0 l 917 0 l 917 472 l 222 472 l 222 0 l 194 0 z "},"О":{"ha":1194,"x_min":97,"x_max":1097,"o":"m 597 -21 q 342 45 456 -21 q 163 227 228 111 q 97 486 97 343 q 163 745 97 629 q 342 927 228 861 q 597 993 456 993 q 853 927 739 993 q 1032 745 967 861 q 1097 486 1097 629 q 1032 227 1097 343 q 853 45 967 111 q 597 -21 739 -21 m 597 7 q 838 69 731 7 q 1008 241 946 132 q 1069 486 1069 350 q 1008 731 1069 622 q 838 903 946 840 q 597 965 731 965 q 356 903 464 965 q 187 731 249 840 q 125 486 125 622 q 187 241 125 350 q 356 69 249 132 q 597 7 464 7 z "},"П":{"ha":1139,"x_min":194,"x_max":944,"o":"m 194 0 l 194 972 l 944 972 l 944 0 l 917 0 l 917 944 l 222 944 l 222 0 l 194 0 z "},"Р":{"ha":875,"x_min":194,"x_max":792,"o":"m 194 0 l 194 972 l 440 972 q 698 898 604 972 q 792 694 792 824 q 698 491 792 565 q 440 417 604 417 l 222 417 l 222 0 l 194 0 m 440 444 q 678 511 593 444 q 764 694 764 578 q 678 878 764 811 q 440 944 593 944 l 222 944 l 222 444 l 440 444 z "},"С":{"ha":1150,"x_min":97,"x_max":1060,"o":"m 594 -21 q 338 44 451 -21 q 161 224 225 108 q 97 486 97 339 q 161 749 97 633 q 338 928 225 864 q 594 993 451 993 q 817 945 718 993 q 978 810 915 897 q 1060 604 1042 722 l 1032 604 q 955 795 1014 714 q 803 921 896 876 q 594 965 711 965 q 351 905 458 965 q 185 735 244 844 q 125 486 125 626 q 185 238 125 347 q 351 68 244 129 q 594 7 458 7 q 803 51 711 7 q 955 177 896 96 q 1032 368 1014 258 l 1060 368 q 978 163 1042 250 q 817 27 915 75 q 594 -21 718 -21 z "},"Т":{"ha":889,"x_min":28,"x_max":861,"o":"m 431 0 l 431 944 l 28 944 l 28 972 l 861 972 l 861 944 l 458 944 l 458 0 l 431 0 z "},"У":{"ha":847,"x_min":14,"x_max":833,"o":"m 339 -21 q 243 6 288 -21 q 172 84 199 33 q 144 204 144 135 l 144 238 l 172 238 l 172 204 q 219 63 172 118 q 339 7 267 7 q 447 43 407 7 q 486 138 486 79 q 444 267 486 196 l 14 972 l 46 972 l 464 289 q 497 224 483 258 q 514 150 510 190 l 804 972 l 833 972 l 553 176 q 469 26 517 74 q 339 -21 422 -21 z "},"Ў":{"ha":847,"x_min":14,"x_max":833,"o":"m 339 -21 q 243 6 288 -21 q 172 84 199 33 q 144 204 144 135 l 144 238 l 172 238 l 172 204 q 219 63 172 118 q 339 7 267 7 q 447 43 407 7 q 486 138 486 79 q 444 267 486 196 l 14 972 l 46 972 l 464 289 q 497 224 483 258 q 514 150 510 190 l 804 972 l 833 972 l 553 176 q 469 26 517 74 q 339 -21 422 -21 m 458 1090 q 334 1117 388 1090 q 251 1190 281 1143 q 222 1301 222 1238 l 222 1313 l 250 1313 l 250 1301 q 306 1167 250 1217 q 458 1118 361 1118 q 611 1167 556 1118 q 667 1301 667 1217 l 667 1313 l 694 1313 l 694 1301 q 665 1190 694 1238 q 583 1117 636 1143 q 458 1090 529 1090 z "},"Ф":{"ha":1361,"x_min":111,"x_max":1250,"o":"m 667 0 l 667 153 l 543 153 q 309 194 406 153 q 162 313 213 235 q 111 500 111 390 q 162 688 111 610 q 309 806 213 765 q 543 847 406 847 l 667 847 l 667 986 l 694 986 l 694 847 l 818 847 q 1052 806 956 847 q 1199 688 1149 765 q 1250 500 1250 610 q 1199 313 1250 390 q 1052 194 1149 235 q 818 153 956 153 l 694 153 l 694 0 l 667 0 m 543 181 l 667 181 l 667 819 l 543 819 q 243 737 347 819 q 139 500 139 654 q 185 327 139 399 q 323 218 232 256 q 543 181 414 181 m 818 181 q 1038 218 947 181 q 1176 327 1129 256 q 1222 500 1222 399 q 1118 737 1222 654 q 818 819 1014 819 l 694 819 l 694 181 l 818 181 z "},"Х":{"ha":917,"x_min":35,"x_max":882,"o":"m 35 0 l 440 494 l 49 972 l 85 972 l 458 517 l 832 972 l 868 972 l 476 494 l 882 0 l 846 0 l 458 472 l 71 0 l 35 0 z "},"Ч":{"ha":1000,"x_min":125,"x_max":806,"o":"m 778 0 l 778 417 l 476 417 q 219 491 313 417 q 125 694 125 565 l 125 972 l 153 972 l 153 694 q 238 511 153 578 q 476 444 324 444 l 778 444 l 778 972 l 806 972 l 806 0 l 778 0 z "},"Ц":{"ha":1146,"x_min":194,"x_max":1063,"o":"m 1035 -236 l 1035 0 l 194 0 l 194 972 l 222 972 l 222 28 l 917 28 l 917 972 l 944 972 l 944 28 l 1063 28 l 1063 -236 l 1035 -236 z "},"Ш":{"ha":1528,"x_min":194,"x_max":1333,"o":"m 194 0 l 194 972 l 222 972 l 222 28 l 750 28 l 750 972 l 778 972 l 778 28 l 1306 28 l 1306 972 l 1333 972 l 1333 0 l 194 0 z "},"Щ":{"ha":1535,"x_min":194,"x_max":1451,"o":"m 1424 -236 l 1424 0 l 194 0 l 194 972 l 222 972 l 222 28 l 750 28 l 750 972 l 778 972 l 778 28 l 1306 28 l 1306 972 l 1333 972 l 1333 28 l 1451 28 l 1451 -236 l 1424 -236 z "},"Ь":{"ha":906,"x_min":194,"x_max":801,"o":"m 194 0 l 194 972 l 222 972 l 222 556 l 450 556 q 708 481 614 556 q 801 278 801 407 q 759 129 801 192 q 638 33 717 67 q 450 0 558 0 l 194 0 m 450 28 q 688 94 603 28 q 774 278 774 161 q 688 461 774 394 q 450 528 603 528 l 222 528 l 222 28 l 450 28 z "},"Ъ":{"ha":1044,"x_min":28,"x_max":940,"o":"m 28 944 l 28 972 l 344 972 l 344 944 l 28 944 m 333 0 l 333 972 l 361 972 l 361 556 l 589 556 q 847 481 753 556 q 940 278 940 407 q 898 129 940 192 q 776 33 856 67 q 589 0 697 0 l 333 0 m 589 28 q 827 94 742 28 q 913 278 913 161 q 827 461 913 394 q 589 528 742 528 l 361 528 l 361 28 l 589 28 z "},"Ы":{"ha":1264,"x_min":194,"x_max":1069,"o":"m 194 0 l 194 972 l 222 972 l 222 556 l 450 556 q 708 481 614 556 q 801 278 801 407 q 759 129 801 192 q 638 33 717 67 q 450 0 558 0 l 194 0 m 450 28 q 688 94 603 28 q 774 278 774 161 q 688 461 774 394 q 450 528 603 528 l 222 528 l 222 28 l 450 28 m 1042 0 l 1042 972 l 1069 972 l 1069 0 l 1042 0 z "},"Є":{"ha":1149,"x_min":97,"x_max":1058,"o":"m 594 -21 q 338 44 451 -21 q 161 224 225 108 q 97 486 97 339 q 161 749 97 633 q 338 928 225 864 q 594 993 451 993 q 813 947 715 993 q 974 817 910 901 q 1058 618 1038 732 l 1029 618 q 950 802 1010 724 q 799 923 890 881 q 594 965 708 965 q 354 907 460 965 q 188 742 249 849 q 125 500 128 636 l 561 500 l 561 472 l 125 472 q 189 231 128 336 q 356 66 250 125 q 594 7 461 7 q 799 49 708 7 q 950 170 890 92 q 1029 354 1010 249 l 1058 354 q 974 156 1038 240 q 813 25 910 71 q 594 -21 715 -21 z "},"Э":{"ha":1113,"x_min":56,"x_max":1015,"o":"m 531 -21 q 306 25 407 -21 q 141 156 206 71 q 56 354 76 240 l 83 354 q 165 170 104 249 q 320 49 226 92 q 531 7 414 7 q 764 66 661 7 q 926 231 867 125 q 988 472 985 336 l 551 472 l 551 500 l 988 500 q 926 742 985 636 q 764 906 867 847 q 531 965 661 965 q 320 923 414 965 q 165 802 226 881 q 83 618 104 724 l 56 618 q 141 817 76 732 q 306 947 206 901 q 531 993 407 993 q 781 928 671 993 q 953 749 892 864 q 1015 486 1015 633 q 953 224 1015 339 q 781 44 892 108 q 531 -21 671 -21 z "},"І":{"ha":417,"x_min":194,"x_max":222,"o":"m 194 0 l 194 972 l 222 972 l 222 0 l 194 0 z "},"Ї":{"ha":417,"x_min":104,"x_max":314,"o":"m 194 0 l 194 972 l 222 972 l 222 0 l 194 0 m 117 1090 l 104 1313 l 142 1313 l 129 1090 l 117 1090 m 289 1090 l 276 1313 l 314 1313 l 301 1090 l 289 1090 z "},"Ю":{"ha":1556,"x_min":194,"x_max":1458,"o":"m 972 -21 q 728 43 838 -21 q 553 219 618 107 q 486 472 489 332 l 222 472 l 222 0 l 194 0 l 194 972 l 222 972 l 222 500 l 486 500 q 553 753 489 640 q 728 929 618 865 q 972 993 838 993 q 1221 927 1110 993 q 1395 745 1332 861 q 1458 486 1458 629 q 1395 227 1458 343 q 1221 45 1332 111 q 972 -21 1110 -21 m 972 7 q 1206 69 1101 7 q 1371 241 1311 132 q 1431 486 1431 350 q 1371 731 1431 622 q 1206 903 1311 840 q 972 965 1101 965 q 738 903 843 965 q 574 731 633 840 q 514 486 514 622 q 574 241 514 350 q 738 69 633 132 q 972 7 843 7 z "},"Я":{"ha":915,"x_min":28,"x_max":721,"o":"m 365 431 q 180 522 246 451 q 114 699 114 592 q 208 899 114 826 q 465 972 301 972 l 721 972 l 721 0 l 693 0 l 693 422 l 465 422 q 447 422 456 422 q 429 424 438 422 q 413 424 421 424 q 397 426 404 425 l 63 0 l 28 0 l 365 431 m 465 450 l 693 450 l 693 944 l 465 944 q 227 879 313 944 q 142 699 142 814 q 227 516 142 582 q 465 450 313 450 z "},"а":{"ha":842,"x_min":83,"x_max":786,"o":"m 306 -17 q 140 32 197 -17 q 83 163 83 81 q 138 287 83 242 q 271 349 193 332 q 449 374 349 367 q 597 393 546 379 q 647 442 647 407 q 577 614 647 547 q 396 681 507 681 q 217 619 288 681 q 128 450 147 558 l 100 450 q 152 588 113 529 q 254 677 192 646 q 396 708 317 708 q 542 674 479 708 q 640 578 606 640 q 675 433 675 515 l 675 28 l 786 28 l 786 0 l 649 0 l 649 201 q 518 43 613 103 q 306 -17 424 -17 m 306 11 q 481 53 403 11 q 603 165 558 94 q 647 321 647 236 l 649 390 q 583 363 626 372 q 469 349 540 353 q 460 348 465 349 q 450 347 456 347 q 192 291 272 335 q 111 163 111 247 q 163 51 111 90 q 306 11 215 11 z "},"б":{"ha":861,"x_min":90,"x_max":785,"o":"m 438 -14 q 261 30 340 -14 q 136 150 182 74 q 90 319 90 226 l 90 522 q 143 728 93 647 q 276 846 193 808 q 467 883 360 883 l 685 883 l 685 986 l 713 986 l 713 856 l 467 856 q 276 816 354 856 q 158 701 199 776 q 118 517 118 625 l 118 446 q 188 553 140 507 q 301 626 236 600 q 438 653 365 653 q 614 609 535 653 q 739 489 693 565 q 785 319 785 413 q 739 150 785 226 q 614 30 693 74 q 438 -14 535 -14 m 438 14 q 599 54 526 14 q 715 164 672 94 q 757 319 757 233 q 715 475 757 406 q 599 585 672 544 q 438 625 526 625 q 276 585 349 625 q 160 475 203 544 q 118 319 118 406 q 160 164 118 233 q 276 54 203 94 q 438 14 349 14 z "},"в":{"ha":754,"x_min":153,"x_max":692,"o":"m 153 0 l 153 694 l 422 694 q 599 647 535 694 q 664 515 664 600 q 627 411 664 453 q 521 353 590 369 l 521 347 q 647 290 603 333 q 692 179 692 247 q 627 47 692 94 q 444 0 563 0 l 153 0 m 446 28 q 607 68 550 28 q 664 182 664 108 q 605 294 664 254 q 440 333 546 333 l 181 333 l 181 28 l 446 28 m 414 361 q 578 401 519 361 q 636 513 636 440 q 581 626 636 586 q 426 667 526 667 l 181 667 l 181 361 l 414 361 z "},"г":{"ha":625,"x_min":153,"x_max":611,"o":"m 153 0 l 153 694 l 611 694 l 611 667 l 181 667 l 181 0 l 153 0 z "},"ґ":{"ha":625,"x_min":153,"x_max":611,"o":"m 153 -278 l 153 694 l 583 694 l 583 861 l 611 861 l 611 667 l 181 667 l 181 -278 l 153 -278 z "},"д":{"ha":794,"x_min":22,"x_max":729,"o":"m 22 -181 l 22 28 l 90 28 q 135 243 122 132 q 149 510 149 354 q 149 537 149 524 q 149 564 149 550 q 149 577 149 571 q 149 589 149 583 l 149 694 l 639 694 l 639 28 l 729 28 l 729 -181 l 701 -181 l 701 0 l 50 0 l 50 -181 l 22 -181 m 121 28 l 611 28 l 611 667 l 176 667 l 176 510 q 163 246 176 357 q 121 28 150 135 z "},"е":{"ha":858,"x_min":76,"x_max":789,"o":"m 433 -14 q 253 34 335 -14 q 124 165 171 82 q 76 347 76 247 q 124 530 76 447 q 253 660 171 613 q 433 708 335 708 q 614 660 532 708 q 742 530 696 613 q 789 347 789 447 q 789 340 789 344 q 789 333 789 336 l 104 333 q 151 170 107 243 q 269 56 196 97 q 433 14 343 14 q 622 65 540 14 q 732 199 703 115 l 761 199 q 694 87 742 135 q 578 13 646 39 q 433 -14 511 -14 m 761 361 q 715 524 758 451 q 597 639 671 597 q 433 681 522 681 q 269 639 343 681 q 151 524 196 597 q 104 361 107 451 l 104 361 l 761 361 z "},"ё":{"ha":858,"x_min":76,"x_max":789,"o":"m 433 -14 q 253 34 335 -14 q 124 165 171 82 q 76 347 76 247 q 124 530 76 447 q 253 660 171 613 q 433 708 335 708 q 614 660 532 708 q 742 530 696 613 q 789 347 789 447 q 789 340 789 344 q 789 333 789 336 l 104 333 q 151 170 107 243 q 269 56 196 97 q 433 14 343 14 q 622 65 540 14 q 732 199 703 115 l 761 199 q 694 87 742 135 q 578 13 646 39 q 433 -14 511 -14 m 761 361 q 715 524 758 451 q 597 639 671 597 q 433 681 522 681 q 269 639 343 681 q 151 524 196 597 q 104 361 107 451 l 104 361 l 761 361 m 332 813 l 319 1035 l 357 1035 l 344 813 l 332 813 m 504 813 l 492 1035 l 529 1035 l 517 813 l 504 813 z "},"ж":{"ha":1058,"x_min":42,"x_max":1017,"o":"m 42 0 l 342 347 l 42 694 l 78 694 l 365 361 l 514 361 l 514 986 l 542 986 l 542 361 l 694 361 l 982 694 l 1017 694 l 717 347 l 1017 0 l 979 0 l 692 333 l 542 333 l 542 0 l 514 0 l 514 333 l 367 333 l 79 0 l 42 0 z "},"з":{"ha":707,"x_min":40,"x_max":644,"o":"m 367 -15 q 201 17 274 -15 q 87 109 129 50 q 40 246 44 168 l 68 246 q 156 76 75 139 q 367 13 238 13 q 551 58 485 13 q 617 186 617 104 q 590 258 617 225 q 518 313 564 292 q 414 333 472 333 l 329 333 l 329 361 l 407 361 q 542 402 485 361 q 600 504 600 443 q 537 633 600 585 q 365 681 474 681 q 169 619 243 681 q 89 453 96 558 l 61 453 q 104 587 65 529 q 210 676 143 644 q 365 708 278 708 q 505 683 446 708 q 596 611 564 657 q 628 504 628 565 q 588 407 628 449 q 482 349 549 365 q 599 290 553 335 q 644 186 644 244 q 611 78 644 124 q 515 9 578 33 q 367 -15 453 -15 z "},"и":{"ha":903,"x_min":153,"x_max":750,"o":"m 153 0 l 153 694 l 181 694 l 181 35 l 715 694 l 750 694 l 750 0 l 722 0 l 722 660 l 188 0 l 153 0 z "},"й":{"ha":903,"x_min":153,"x_max":750,"o":"m 153 0 l 153 694 l 181 694 l 181 35 l 715 694 l 750 694 l 750 0 l 722 0 l 722 660 l 188 0 l 153 0 m 451 813 q 327 839 381 813 q 244 913 274 865 q 215 1024 215 960 l 215 1035 l 243 1035 l 243 1024 q 299 890 243 939 q 451 840 354 840 q 604 890 549 840 q 660 1024 660 939 l 660 1035 l 688 1035 l 688 1024 q 658 913 688 960 q 576 839 629 865 q 451 813 522 813 z "},"к":{"ha":725,"x_min":153,"x_max":683,"o":"m 153 0 l 153 986 l 181 986 l 181 361 l 332 361 l 647 694 l 683 694 l 356 347 l 683 0 l 644 0 l 329 333 l 181 333 l 181 0 l 153 0 z "},"л":{"ha":856,"x_min":6,"x_max":703,"o":"m 72 -15 q 38 -11 54 -15 q 6 1 21 -7 l 6 32 q 36 18 19 22 q 69 14 53 14 q 126 32 100 14 q 168 85 153 50 q 196 227 186 128 q 208 467 206 326 q 210 517 210 492 q 210 569 210 543 l 210 694 l 703 694 l 703 0 l 675 0 l 675 667 l 238 667 l 238 569 q 227 256 238 383 q 193 74 217 128 q 142 7 174 29 q 72 -15 111 -15 z "},"м":{"ha":1064,"x_min":153,"x_max":911,"o":"m 153 0 l 153 694 l 201 694 l 533 31 l 864 694 l 911 694 l 911 0 l 883 0 l 883 672 l 549 0 l 517 0 l 181 672 l 181 0 l 153 0 z "},"н":{"ha":889,"x_min":153,"x_max":736,"o":"m 153 0 l 153 694 l 181 694 l 181 361 l 708 361 l 708 694 l 736 694 l 736 0 l 708 0 l 708 333 l 181 333 l 181 0 l 153 0 z "},"о":{"ha":875,"x_min":76,"x_max":799,"o":"m 438 -14 q 255 34 338 -14 q 124 165 172 82 q 76 347 76 247 q 124 530 76 447 q 255 660 172 613 q 438 708 338 708 q 620 660 538 708 q 751 530 703 613 q 799 347 799 447 q 751 165 799 247 q 620 34 703 82 q 438 -14 538 -14 m 438 14 q 607 58 531 14 q 727 178 683 101 q 771 347 771 254 q 727 517 771 440 q 607 637 683 593 q 438 681 531 681 q 268 637 344 681 q 148 517 192 593 q 104 347 104 440 q 148 178 104 254 q 268 58 192 101 q 438 14 344 14 z "},"п":{"ha":889,"x_min":153,"x_max":736,"o":"m 153 0 l 153 694 l 736 694 l 736 0 l 708 0 l 708 667 l 181 667 l 181 0 l 153 0 z "},"р":{"ha":924,"x_min":153,"x_max":847,"o":"m 153 -278 l 153 694 l 181 694 l 181 485 q 303 647 218 586 q 503 708 389 708 q 678 660 599 708 q 802 530 757 613 q 847 347 847 447 q 802 165 847 247 q 678 34 757 82 q 503 -14 599 -14 q 303 47 389 -14 q 181 210 218 108 l 181 -278 l 153 -278 m 500 14 q 662 58 589 14 q 777 178 735 101 q 819 347 819 254 q 777 517 819 440 q 662 637 735 593 q 500 681 589 681 q 338 637 411 681 q 223 517 265 593 q 181 347 181 440 q 223 178 181 254 q 338 58 265 101 q 500 14 411 14 z "},"с":{"ha":839,"x_min":76,"x_max":769,"o":"m 432 -14 q 251 33 332 -14 q 123 163 169 81 q 76 347 76 246 q 123 531 76 449 q 251 661 169 614 q 432 708 332 708 q 592 676 522 708 q 708 585 663 644 q 769 443 754 525 l 742 443 q 636 617 718 554 q 432 681 554 681 q 265 637 340 681 q 147 517 190 593 q 104 347 104 440 q 147 178 104 254 q 265 58 190 101 q 432 14 340 14 q 636 77 554 14 q 742 251 718 140 l 769 251 q 708 110 754 169 q 592 18 663 50 q 432 -14 522 -14 z "},"т":{"ha":731,"x_min":42,"x_max":689,"o":"m 351 0 l 351 667 l 42 667 l 42 694 l 689 694 l 689 667 l 379 667 l 379 0 l 351 0 z "},"у":{"ha":738,"x_min":21,"x_max":724,"o":"m 231 -292 q 128 -267 172 -292 q 60 -197 85 -242 q 36 -90 36 -151 l 36 -53 l 64 -53 l 64 -90 q 85 -182 64 -143 q 143 -242 106 -221 q 231 -264 181 -264 q 352 -217 307 -264 q 397 -90 397 -169 l 397 -65 q 391 -1 397 -29 q 368 56 385 26 l 21 694 l 53 694 l 393 68 q 403 44 399 57 q 410 15 408 31 q 417 44 413 32 q 426 71 421 57 l 693 694 l 724 694 l 451 57 q 431 -2 438 25 q 425 -62 425 -29 l 425 -90 q 401 -197 425 -151 q 333 -267 376 -242 q 231 -292 289 -292 z "},"ў":{"ha":738,"x_min":21,"x_max":724,"o":"m 231 -292 q 128 -267 172 -292 q 60 -197 85 -242 q 36 -90 36 -151 l 36 -53 l 64 -53 l 64 -90 q 85 -182 64 -143 q 143 -242 106 -221 q 231 -264 181 -264 q 352 -217 307 -264 q 397 -90 397 -169 l 397 -65 q 391 -1 397 -29 q 368 56 385 26 l 21 694 l 53 694 l 393 68 q 403 44 399 57 q 410 15 408 31 q 417 44 413 32 q 426 71 421 57 l 693 694 l 724 694 l 451 57 q 431 -2 438 25 q 425 -62 425 -29 l 425 -90 q 401 -197 425 -151 q 333 -267 376 -242 q 231 -292 289 -292 m 375 813 q 251 839 304 813 q 168 913 197 865 q 139 1024 139 960 l 139 1035 l 167 1035 l 167 1024 q 222 890 167 939 q 375 840 278 840 q 528 890 472 840 q 583 1024 583 939 l 583 1035 l 611 1035 l 611 1024 q 582 913 611 960 q 499 839 553 865 q 375 813 446 813 z "},"ф":{"ha":1328,"x_min":76,"x_max":1251,"o":"m 650 196 q 545 42 617 99 q 375 -14 474 -14 q 222 33 290 -14 q 115 162 154 79 q 76 347 76 244 q 115 533 76 450 q 222 662 154 615 q 375 708 290 708 q 545 652 474 708 q 650 499 617 596 l 650 986 l 678 986 l 678 499 q 783 652 711 596 q 953 708 854 708 q 1106 662 1038 708 q 1213 533 1174 615 q 1251 347 1251 450 q 1213 162 1251 244 q 1106 33 1174 79 q 953 -14 1038 -14 q 783 42 854 -14 q 678 196 711 99 l 678 -278 l 650 -278 l 650 196 m 376 14 q 517 57 454 14 q 615 176 579 100 q 650 347 650 251 q 615 519 650 443 q 517 638 579 594 q 376 681 454 681 q 237 638 299 681 q 140 519 175 594 q 104 347 104 443 q 140 176 104 251 q 237 57 175 100 q 376 14 299 14 m 951 14 q 1091 57 1029 14 q 1188 176 1153 100 q 1224 347 1224 251 q 1188 519 1224 443 q 1091 638 1153 594 q 951 681 1029 681 q 811 638 874 681 q 713 519 749 594 q 678 347 678 443 q 713 176 678 251 q 811 57 749 100 q 951 14 874 14 z "},"х":{"ha":772,"x_min":56,"x_max":717,"o":"m 56 0 l 368 353 l 67 694 l 104 694 l 386 375 l 669 694 l 706 694 l 406 353 l 717 0 l 679 0 l 386 332 l 93 0 l 56 0 z "},"ч":{"ha":776,"x_min":97,"x_max":624,"o":"m 596 0 l 596 297 l 349 297 q 165 351 232 297 q 97 496 97 404 l 97 694 l 125 694 l 125 496 q 184 370 125 415 q 349 325 243 325 l 596 325 l 596 694 l 624 694 l 624 0 l 596 0 z "},"ц":{"ha":885,"x_min":153,"x_max":819,"o":"m 792 -181 l 792 0 l 153 0 l 153 694 l 181 694 l 181 28 l 701 28 l 701 694 l 729 694 l 729 28 l 819 28 l 819 -181 l 792 -181 z "},"ш":{"ha":1194,"x_min":153,"x_max":1042,"o":"m 153 0 l 153 694 l 181 694 l 181 28 l 583 28 l 583 694 l 611 694 l 611 28 l 1014 28 l 1014 694 l 1042 694 l 1042 0 l 153 0 z "},"щ":{"ha":1197,"x_min":153,"x_max":1132,"o":"m 1104 -181 l 1104 0 l 153 0 l 153 694 l 181 694 l 181 28 l 583 28 l 583 694 l 611 694 l 611 28 l 1014 28 l 1014 694 l 1042 694 l 1042 28 l 1132 28 l 1132 -181 l 1104 -181 z "},"ь":{"ha":697,"x_min":153,"x_max":621,"o":"m 153 0 l 153 694 l 181 694 l 181 403 l 363 403 q 551 349 482 403 q 621 201 621 294 q 551 54 621 108 q 363 0 482 0 l 153 0 m 363 28 q 532 74 471 28 q 593 201 593 119 q 532 329 593 283 q 363 375 471 375 l 181 375 l 181 28 l 363 28 z "},"ъ":{"ha":807,"x_min":28,"x_max":731,"o":"m 28 667 l 28 694 l 275 694 l 275 667 l 28 667 m 263 0 l 263 694 l 290 694 l 290 403 l 472 403 q 661 349 592 403 q 731 201 731 294 q 661 54 731 108 q 472 0 592 0 l 263 0 m 472 28 q 642 74 581 28 q 703 201 703 119 q 642 329 703 283 q 472 375 581 375 l 290 375 l 290 28 l 472 28 z "},"ы":{"ha":953,"x_min":153,"x_max":800,"o":"m 153 0 l 153 694 l 181 694 l 181 403 l 363 403 q 551 349 482 403 q 621 201 621 294 q 551 54 621 108 q 363 0 482 0 l 153 0 m 363 28 q 532 74 471 28 q 593 201 593 119 q 532 329 593 283 q 363 375 471 375 l 181 375 l 181 28 l 363 28 m 772 0 l 772 694 l 800 694 l 800 0 l 772 0 z "},"є":{"ha":839,"x_min":76,"x_max":769,"o":"m 432 -14 q 251 33 332 -14 q 123 163 169 81 q 76 347 76 246 q 123 531 76 449 q 251 661 169 614 q 432 708 332 708 q 592 676 522 708 q 708 585 663 644 q 769 443 754 525 l 742 443 q 636 617 718 554 q 432 681 554 681 q 268 639 342 681 q 151 524 194 597 q 104 361 107 451 l 418 361 l 418 333 l 104 333 q 151 170 107 243 q 268 56 194 97 q 432 14 342 14 q 636 77 554 14 q 742 251 718 140 l 769 251 q 708 110 754 169 q 592 18 663 50 q 432 -14 522 -14 z "},"э":{"ha":839,"x_min":69,"x_max":763,"o":"m 419 -14 q 253 18 326 -14 q 133 110 179 50 q 69 251 86 169 l 99 251 q 207 77 122 140 q 419 14 292 14 q 575 56 504 14 q 689 171 646 97 q 735 333 732 244 l 421 333 l 421 361 l 735 361 q 689 524 732 450 q 575 639 646 597 q 419 681 504 681 q 207 617 292 681 q 99 443 122 554 l 69 443 q 133 585 86 525 q 253 676 179 644 q 419 708 326 708 q 592 661 514 708 q 717 531 671 614 q 763 347 763 449 q 717 163 763 246 q 592 33 671 81 q 419 -14 514 -14 z "},"і":{"ha":333,"x_min":146,"x_max":188,"o":"m 153 0 l 153 694 l 181 694 l 181 0 l 153 0 m 160 813 l 146 1035 l 188 1035 l 174 813 l 160 813 z "},"ї":{"ha":333,"x_min":63,"x_max":272,"o":"m 153 0 l 153 694 l 181 694 l 181 0 l 153 0 m 75 813 l 63 1035 l 100 1035 l 88 813 l 75 813 m 247 813 l 235 1035 l 272 1035 l 260 813 l 247 813 z "},"ю":{"ha":1153,"x_min":153,"x_max":1076,"o":"m 729 -14 q 556 32 635 -14 q 431 157 478 78 q 382 333 385 236 l 181 333 l 181 0 l 153 0 l 153 694 l 181 694 l 181 361 l 382 361 q 431 538 385 458 q 556 663 478 617 q 729 708 635 708 q 905 660 825 708 q 1031 530 985 613 q 1076 347 1076 447 q 1031 165 1076 247 q 905 34 985 82 q 729 -14 825 -14 m 729 14 q 891 58 818 14 q 1006 178 964 101 q 1049 347 1049 254 q 1006 517 1049 440 q 891 637 964 593 q 729 681 818 681 q 567 637 640 681 q 452 517 494 593 q 410 347 410 440 q 452 178 410 254 q 567 58 494 101 q 729 14 640 14 z "},"я":{"ha":747,"x_min":42,"x_max":594,"o":"m 282 297 q 152 363 199 313 q 106 493 106 414 q 171 641 106 588 q 350 694 236 694 l 594 694 l 594 0 l 567 0 l 567 292 l 350 292 q 332 292 340 292 q 315 293 324 292 l 78 0 l 42 0 l 282 297 m 350 319 l 567 319 l 567 667 l 350 667 q 191 621 249 667 q 133 493 133 575 q 191 366 133 413 q 350 319 249 319 z "},".":{"ha":306,"x_min":118,"x_max":188,"o":"m 153 -7 q 128 3 139 -7 q 118 28 118 14 q 128 53 118 43 q 153 63 139 63 q 178 53 168 63 q 188 28 188 43 q 178 3 188 14 q 153 -7 168 -7 z "},",":{"ha":306,"x_min":94,"x_max":188,"o":"m 122 -167 l 94 -167 l 94 -167 q 140 -85 122 -126 q 158 -6 157 -43 q 155 -6 157 -6 q 151 -6 153 -6 q 128 4 138 -6 q 118 28 118 14 q 123 45 118 38 q 135 58 128 53 q 153 63 143 63 q 178 51 168 63 q 188 22 188 40 q 167 -79 188 -21 q 122 -167 146 -137 z "},":":{"ha":306,"x_min":118,"x_max":188,"o":"m 153 -7 q 128 3 139 -7 q 118 28 118 14 q 128 53 118 43 q 153 63 139 63 q 178 53 168 63 q 188 28 188 43 q 178 3 188 14 q 153 -7 168 -7 m 153 549 q 128 559 139 549 q 118 583 118 569 q 128 608 118 599 q 153 618 139 618 q 178 608 168 618 q 188 583 188 599 q 178 559 188 569 q 153 549 168 549 z "},";":{"ha":306,"x_min":94,"x_max":188,"o":"m 122 -167 l 94 -167 l 94 -167 q 140 -85 122 -126 q 158 -6 157 -43 q 155 -6 157 -6 q 151 -6 153 -6 q 128 4 138 -6 q 118 28 118 14 q 123 45 118 38 q 135 58 128 53 q 153 63 143 63 q 178 51 168 63 q 188 22 188 40 q 167 -79 188 -21 q 122 -167 146 -137 m 153 549 q 128 559 139 549 q 118 583 118 569 q 128 608 118 599 q 153 618 139 618 q 178 608 168 618 q 188 583 188 599 q 178 559 188 569 q 153 549 168 549 z "},"…":{"ha":972,"x_min":118,"x_max":854,"o":"m 153 -7 q 128 3 139 -7 q 118 28 118 14 q 128 53 118 43 q 153 63 139 63 q 178 53 168 63 q 188 28 188 43 q 178 3 188 14 q 153 -7 168 -7 m 486 -7 q 462 3 472 -7 q 451 28 451 14 q 462 53 451 43 q 486 63 472 63 q 511 53 501 63 q 521 28 521 43 q 511 3 521 14 q 486 -7 501 -7 m 819 -7 q 795 3 806 -7 q 785 28 785 14 q 795 53 785 43 q 819 63 806 63 q 844 53 835 63 q 854 28 854 43 q 844 3 854 14 q 819 -7 835 -7 z "},"!":{"ha":361,"x_min":146,"x_max":215,"o":"m 168 250 l 167 972 l 194 972 l 193 250 l 168 250 m 181 -7 q 156 3 167 -7 q 146 28 146 14 q 156 53 146 43 q 181 63 167 63 q 206 53 196 63 q 215 28 215 43 q 206 3 215 14 q 181 -7 196 -7 z "},"¡":{"ha":361,"x_min":146,"x_max":215,"o":"m 193 444 l 194 -278 l 167 -278 l 168 444 l 193 444 m 181 701 q 206 692 196 701 q 215 667 215 682 q 206 642 215 653 q 181 632 196 632 q 156 642 167 632 q 146 667 146 653 q 156 692 146 682 q 181 701 167 701 z "},"?":{"ha":760,"x_min":72,"x_max":663,"o":"m 346 250 q 346 253 346 251 q 346 256 346 254 q 367 370 346 322 q 419 451 388 418 q 497 519 450 483 l 497 519 q 500 522 499 521 q 503 524 501 522 q 574 588 549 561 q 617 652 599 614 q 635 742 635 690 q 560 907 635 849 q 374 965 486 965 q 169 882 239 965 q 103 664 99 799 l 76 664 q 107 836 72 761 q 211 952 142 911 q 375 993 281 993 q 519 964 454 993 q 624 878 585 935 q 663 740 663 821 q 630 613 663 660 q 543 522 597 565 q 542 522 543 522 q 542 521 542 521 q 448 438 482 472 q 393 358 414 404 q 372 250 372 313 l 346 250 m 368 -7 q 344 3 354 -7 q 333 28 333 14 q 344 53 333 43 q 368 63 354 63 q 393 53 383 63 q 403 28 403 43 q 393 3 403 14 q 368 -7 383 -7 z "},"¿":{"ha":760,"x_min":97,"x_max":688,"o":"m 414 444 q 414 442 414 443 q 414 439 414 440 q 393 324 414 372 q 341 244 372 276 q 263 175 310 211 l 263 175 l 257 171 q 186 107 211 133 q 143 42 161 81 q 125 -47 125 4 q 199 -212 125 -154 q 386 -271 274 -271 q 591 -187 521 -271 q 657 31 661 -104 l 683 31 q 653 -142 688 -67 q 549 -258 618 -217 q 385 -299 479 -299 q 240 -269 306 -299 q 136 -183 175 -240 q 97 -46 97 -126 q 130 82 97 35 q 217 172 163 129 q 217 173 217 172 q 218 174 218 174 q 312 256 278 222 q 367 336 346 290 q 388 444 388 382 l 414 444 m 392 701 q 417 692 407 701 q 426 667 426 682 q 417 642 426 653 q 392 632 407 632 q 367 642 378 632 q 357 667 357 653 q 367 692 357 682 q 392 701 378 701 z "},"·":{"ha":306,"x_min":118,"x_max":188,"o":"m 153 382 q 128 392 139 382 q 118 417 118 403 q 128 442 118 432 q 153 451 139 451 q 178 442 168 451 q 188 417 188 432 q 178 392 188 403 q 153 382 168 382 z "},"•":{"ha":625,"x_min":222,"x_max":403,"o":"m 313 326 q 267 338 288 326 q 234 371 246 350 q 222 417 222 392 q 234 463 222 442 q 267 495 246 483 q 313 507 288 507 q 358 495 338 507 q 391 463 379 483 q 403 417 403 442 q 391 371 403 392 q 358 338 379 350 q 313 326 338 326 z "},"*":{"ha":542,"x_min":42,"x_max":500,"o":"m 244 631 l 257 769 l 150 674 l 54 701 l 81 797 l 246 797 l 42 860 l 42 956 l 131 979 l 253 833 l 183 1029 l 271 1103 l 358 1029 l 289 833 l 411 979 l 500 956 l 500 860 l 294 797 l 460 797 l 486 701 l 392 674 l 283 769 l 296 631 l 244 631 z "},"#":{"ha":972,"x_min":125,"x_max":847,"o":"m 333 -21 l 333 278 l 125 278 l 125 306 l 333 306 l 333 667 l 125 667 l 125 694 l 333 694 l 333 993 l 361 993 l 361 694 l 611 694 l 611 993 l 639 993 l 639 694 l 847 694 l 847 667 l 639 667 l 639 306 l 847 306 l 847 278 l 639 278 l 639 -21 l 611 -21 l 611 278 l 361 278 l 361 -21 l 333 -21 m 361 306 l 611 306 l 611 667 l 361 667 l 361 306 z "},"/":{"ha":636,"x_min":69,"x_max":567,"o":"m 69 0 l 539 972 l 567 972 l 97 0 l 69 0 z "},"\\":{"ha":636,"x_min":69,"x_max":567,"o":"m 539 0 l 69 972 l 97 972 l 567 0 l 539 0 z "},"(":{"ha":694,"x_min":160,"x_max":500,"o":"m 500 -160 q 320 -80 397 -160 q 201 147 243 0 q 160 486 160 293 q 201 826 160 679 q 320 1052 243 972 q 500 1132 397 1132 l 500 1104 q 336 1028 407 1104 q 226 811 265 951 q 188 486 188 671 q 226 161 188 301 q 336 -56 265 21 q 500 -132 407 -132 l 500 -160 z "},")":{"ha":694,"x_min":194,"x_max":535,"o":"m 194 1132 q 374 1052 297 1132 q 493 826 451 972 q 535 486 535 679 q 493 147 535 293 q 374 -80 451 0 q 194 -160 297 -160 l 194 -132 q 358 -56 288 -132 q 468 161 429 21 q 507 486 507 301 q 468 811 507 671 q 358 1028 429 951 q 194 1104 288 1104 l 194 1132 z "},"{":{"ha":694,"x_min":139,"x_max":532,"o":"m 422 -160 q 300 -117 350 -160 q 250 10 250 -74 q 257 84 250 36 q 272 181 264 132 q 288 274 281 228 q 294 346 294 319 q 266 439 294 406 q 188 472 238 472 l 139 472 l 139 500 l 188 500 q 266 533 238 500 q 294 626 294 567 q 288 699 294 653 q 272 792 281 744 q 257 888 264 840 q 250 963 250 936 q 300 1089 250 1046 q 422 1132 350 1132 q 480 1126 451 1132 q 532 1111 508 1121 l 532 1081 q 419 1107 483 1107 q 319 1071 360 1107 q 278 963 278 1035 q 285 893 278 938 q 299 803 292 849 q 316 701 310 746 q 322 626 322 657 q 299 536 322 572 q 235 486 276 500 q 299 436 276 472 q 322 346 322 400 q 316 271 322 315 q 299 169 310 226 q 285 79 292 124 q 278 10 278 35 q 319 -99 278 -62 q 419 -135 360 -135 q 532 -108 483 -135 l 532 -139 q 480 -154 508 -149 q 422 -160 451 -160 z "},"}":{"ha":694,"x_min":163,"x_max":556,"o":"m 272 1132 q 394 1089 344 1132 q 444 963 444 1046 q 438 888 444 936 q 422 792 431 840 q 407 699 414 744 q 400 626 400 653 q 428 533 400 567 q 507 500 457 500 l 556 500 l 556 472 l 507 472 q 428 439 457 472 q 400 346 400 406 q 407 274 400 319 q 422 181 414 228 q 438 84 431 132 q 444 10 444 36 q 394 -117 444 -74 q 272 -160 344 -160 q 215 -154 243 -160 q 163 -139 186 -149 l 163 -108 q 275 -135 211 -135 q 376 -99 335 -135 q 417 10 417 -62 q 410 79 417 35 q 396 169 403 124 q 378 271 385 226 q 372 346 372 315 q 395 436 372 400 q 460 486 418 472 q 395 536 418 500 q 372 626 372 572 q 378 701 372 657 q 396 803 385 746 q 410 893 403 849 q 417 963 417 938 q 376 1071 417 1035 q 275 1107 335 1107 q 163 1081 211 1107 l 163 1111 q 215 1126 186 1121 q 272 1132 243 1132 z "},"[":{"ha":694,"x_min":222,"x_max":542,"o":"m 222 -139 l 222 1111 l 542 1111 l 542 1083 l 250 1083 l 250 -111 l 542 -111 l 542 -139 l 222 -139 z "},"]":{"ha":694,"x_min":153,"x_max":472,"o":"m 472 1111 l 472 -139 l 153 -139 l 153 -111 l 444 -111 l 444 1083 l 153 1083 l 153 1111 l 472 1111 z "},"-":{"ha":556,"x_min":111,"x_max":444,"o":"m 111 403 l 111 431 l 444 431 l 444 403 l 111 403 z "},"–":{"ha":750,"x_min":111,"x_max":639,"o":"m 111 403 l 111 431 l 639 431 l 639 403 l 111 403 z "},"—":{"ha":972,"x_min":111,"x_max":861,"o":"m 111 403 l 111 431 l 861 431 l 861 403 l 111 403 z "},"_":{"ha":611,"x_min":42,"x_max":569,"o":"m 42 -28 l 42 0 l 569 0 l 569 -28 l 42 -28 z "},"‚":{"ha":204,"x_min":56,"x_max":149,"o":"m 83 -167 l 56 -167 l 56 -167 q 101 -85 83 -126 q 119 -6 118 -43 q 116 -6 118 -6 q 113 -6 114 -6 q 89 4 99 -6 q 79 28 79 14 q 84 45 79 38 q 97 58 89 53 q 114 63 104 63 q 139 51 129 63 q 149 22 149 40 q 128 -79 149 -21 q 83 -167 107 -137 z "},"„":{"ha":371,"x_min":56,"x_max":315,"o":"m 83 -167 l 56 -167 l 56 -167 q 101 -85 83 -126 q 119 -6 118 -43 q 116 -6 118 -6 q 113 -6 114 -6 q 89 4 99 -6 q 79 28 79 14 q 84 45 79 38 q 97 58 89 53 q 114 63 104 63 q 139 51 129 63 q 149 22 149 40 q 128 -79 149 -21 q 83 -167 107 -137 m 250 -167 l 222 -167 l 222 -167 q 267 -85 250 -126 q 286 -6 285 -43 q 283 -6 285 -6 q 279 -6 281 -6 q 256 4 265 -6 q 246 28 246 14 q 251 45 246 38 q 263 58 256 53 q 281 63 271 63 q 306 51 296 63 q 315 22 315 40 q 294 -79 315 -21 q 250 -167 274 -137 z "},"“":{"ha":371,"x_min":94,"x_max":354,"o":"z "},"”":{"ha":371,"x_min":17,"x_max":276,"o":"m 44 760 l 17 760 l 17 760 q 62 842 44 800 q 81 921 79 883 q 77 921 79 921 q 74 921 75 921 q 50 931 60 921 q 40 954 40 940 q 45 972 40 964 q 58 984 50 979 q 75 989 65 989 q 100 978 90 989 q 110 949 110 967 q 89 847 110 906 q 44 760 68 789 m 211 760 l 183 760 l 183 760 q 228 842 211 800 q 247 921 246 883 q 244 921 246 921 q 240 921 242 921 q 217 931 226 921 q 207 954 207 940 q 212 972 207 964 q 224 984 217 979 q 242 989 232 989 q 267 978 257 989 q 276 949 276 967 q 256 847 276 906 q 211 760 235 789 z "},"‘":{"ha":204,"x_min":56,"x_max":149,"o":"m 121 1028 l 149 1028 l 149 1028 q 103 946 121 988 q 85 867 86 904 q 88 867 86 867 q 92 867 90 867 q 115 857 106 867 q 125 833 125 847 q 120 816 125 824 q 108 803 115 808 q 90 799 100 799 q 65 810 75 799 q 56 839 56 821 q 76 940 56 882 q 121 1028 97 999 z "},"’":{"ha":204,"x_min":56,"x_max":149,"o":"m 83 760 l 56 760 l 56 760 q 101 842 83 800 q 119 921 118 883 q 116 921 118 921 q 113 921 114 921 q 89 931 99 921 q 79 954 79 940 q 84 972 79 964 q 97 984 89 979 q 114 989 104 989 q 139 978 129 989 q 149 949 149 967 q 128 847 149 906 q 83 760 107 789 z "},"«":{"ha":732,"x_min":208,"x_max":607,"o":"z "},"»":{"ha":649,"x_min":125,"x_max":524,"o":"z "},"‹":{"ha":426,"x_min":125,"x_max":301,"o":"z "},"›":{"ha":426,"x_min":125,"x_max":301,"o":"m 125 139 l 276 417 l 125 694 l 154 694 l 301 425 l 301 408 l 154 139 l 125 139 z "},"\"":{"ha":403,"x_min":76,"x_max":326,"o":"m 90 764 l 76 986 l 118 986 l 104 764 l 90 764 m 299 764 l 285 986 l 326 986 l 313 764 l 299 764 z "},"'":{"ha":194,"x_min":76,"x_max":118,"o":"m 90 764 l 76 986 l 118 986 l 104 764 l 90 764 z "}," ":{"ha":347,"x_min":0,"x_max":0,"o":""},"¢":{"ha":972,"x_min":121,"x_max":814,"o":"m 476 156 q 681 219 599 156 q 786 393 763 282 l 814 393 q 755 253 799 313 q 643 162 711 194 q 488 128 575 129 l 488 -42 l 460 -42 l 460 128 q 285 180 363 132 q 165 309 208 228 q 121 489 121 390 q 165 669 121 588 q 285 798 208 750 q 460 850 363 846 l 460 1014 l 488 1014 l 488 850 q 643 816 575 849 q 755 724 711 783 q 814 585 799 665 l 786 585 q 681 759 763 696 q 476 822 599 822 q 310 778 385 822 q 192 658 235 735 q 149 489 149 582 q 192 319 149 396 q 310 199 235 243 q 476 156 385 156 z "},"¤":{"ha":972,"x_min":153,"x_max":819,"o":"m 172 153 l 153 172 l 281 300 q 228 385 247 338 q 208 486 208 433 q 228 587 208 539 q 281 672 247 635 l 153 800 l 172 819 l 300 692 q 385 744 338 725 q 486 764 433 764 q 587 744 539 764 q 672 692 635 725 l 800 819 l 819 800 l 692 672 q 744 587 725 635 q 764 486 764 539 q 744 385 764 433 q 692 300 725 338 l 819 172 l 800 153 l 672 281 q 587 228 635 247 q 486 208 539 208 q 385 228 433 208 q 300 281 338 247 l 172 153 m 486 236 q 611 270 554 236 q 702 361 668 304 q 736 486 736 418 q 702 611 736 554 q 611 702 668 668 q 486 736 554 736 q 361 702 418 736 q 270 611 304 668 q 236 486 236 554 q 270 361 236 418 q 361 270 304 304 q 486 236 418 236 z "},"$":{"ha":972,"x_min":122,"x_max":874,"o":"m 500 -21 q 313 28 394 -15 q 183 144 232 71 q 122 311 133 217 l 149 311 q 211 151 163 219 q 340 44 260 82 q 526 7 421 7 q 762 67 678 7 q 846 238 846 128 q 800 365 846 318 q 685 434 754 413 q 508 474 615 456 q 508 474 508 474 q 507 474 507 474 q 322 514 394 492 q 199 586 250 536 q 149 725 149 636 q 190 864 149 804 q 306 958 231 924 q 478 993 381 992 l 478 1153 l 506 1153 l 506 993 q 754 901 658 989 q 865 667 850 814 l 838 667 q 728 886 821 807 q 490 965 636 965 q 326 936 397 965 q 216 852 256 907 q 176 725 176 797 q 219 607 176 650 q 327 544 263 564 q 494 506 392 524 q 501 504 497 504 q 508 503 506 504 q 514 501 511 501 q 519 500 517 501 q 706 456 636 479 q 825 381 776 433 q 874 238 874 329 q 832 99 874 157 q 713 10 790 40 q 528 -21 635 -21 l 528 -181 l 500 -181 l 500 -21 z "},"€":{"ha":972,"x_min":28,"x_max":910,"o":"m 528 -21 q 342 31 426 -21 q 203 176 258 83 q 132 389 149 268 l 28 389 l 28 417 l 128 417 l 126 451 q 125 468 125 460 q 125 486 125 476 q 125 504 125 496 q 126 522 125 513 l 128 556 l 28 556 l 28 583 l 132 583 q 203 797 149 704 q 342 941 258 889 q 528 993 426 993 q 705 947 621 993 q 844 816 789 900 q 910 625 899 732 l 882 625 q 819 801 871 724 q 691 922 768 879 q 528 965 614 965 q 356 917 433 965 q 226 783 278 869 q 160 583 175 696 l 582 583 l 582 556 l 156 556 l 154 522 q 153 504 153 513 q 153 486 153 496 q 153 468 153 476 q 154 450 153 460 l 156 417 l 582 417 l 582 389 l 160 389 q 226 190 175 276 q 356 55 278 103 q 528 7 433 7 q 691 50 614 7 q 819 171 768 93 q 882 347 871 249 l 910 347 q 844 156 899 240 q 705 26 789 72 q 528 -21 621 -21 z "},"₴":{"ha":972,"x_min":72,"x_max":903,"o":"m 467 -21 q 288 10 365 -21 q 168 97 211 40 q 125 228 125 154 q 140 316 125 275 q 185 389 156 357 l 72 389 l 72 417 l 215 417 q 322 464 261 446 q 486 507 383 482 q 583 529 535 517 q 668 556 632 542 l 72 556 l 72 583 l 714 583 q 792 739 792 638 q 711 903 792 842 q 497 965 631 965 q 270 894 358 965 q 160 694 182 824 l 132 694 q 251 915 156 836 q 497 993 347 993 q 665 961 592 993 q 779 872 739 929 q 819 739 819 814 q 757 583 819 643 l 903 583 l 903 556 l 731 556 q 628 517 686 533 q 489 482 571 500 q 369 451 431 468 q 267 417 308 435 l 903 417 l 903 389 l 225 389 q 153 228 153 328 q 192 111 153 161 q 302 34 231 61 q 467 7 374 7 q 709 81 614 7 q 828 286 804 154 l 856 286 q 728 60 831 142 q 467 -21 625 -21 z "},"₽":{"ha":972,"x_min":83,"x_max":847,"o":"m 250 0 l 250 278 l 83 278 l 83 306 l 250 306 l 250 417 l 83 417 l 83 444 l 250 444 l 250 972 l 496 972 q 753 898 660 972 q 847 694 847 824 q 753 491 847 565 q 496 417 660 417 l 278 417 l 278 306 l 776 306 l 776 278 l 278 278 l 278 0 l 250 0 m 496 444 q 734 511 649 444 q 819 694 819 578 q 734 878 819 811 q 496 944 649 944 l 278 944 l 278 444 l 496 444 z "},"£":{"ha":972,"x_min":17,"x_max":896,"o":"m 165 -21 q 58 15 100 -21 q 17 108 17 51 q 34 172 17 144 q 82 215 51 200 q 151 231 113 231 q 236 213 193 231 q 333 164 279 196 q 322 267 343 208 q 258 417 301 326 q 244 446 251 432 q 232 472 238 460 l 54 472 l 54 500 l 221 500 q 191 593 201 547 q 181 688 181 639 q 219 847 181 778 q 329 956 258 917 q 493 994 400 994 q 657 957 585 994 q 773 851 729 919 q 822 694 817 783 l 794 694 q 702 892 785 817 q 492 967 619 967 q 285 889 363 967 q 208 683 208 811 q 214 617 208 650 q 229 551 219 585 q 238 526 233 539 q 249 500 243 513 l 711 500 l 711 472 l 261 472 q 278 435 269 453 q 296 399 288 417 q 352 263 336 314 q 360 147 368 211 q 380 135 369 142 q 400 122 390 128 q 551 36 488 65 q 681 7 615 7 q 818 65 768 7 q 868 226 868 124 q 858 314 868 269 l 886 314 q 896 225 896 269 q 870 94 896 150 q 796 9 844 39 q 682 -21 747 -21 q 541 11 610 -21 q 378 104 472 43 q 365 111 371 107 q 353 119 358 115 q 283 18 333 57 q 165 -21 232 -21 m 164 7 q 267 42 222 7 q 328 135 313 78 q 322 138 325 136 q 317 142 319 140 q 226 187 265 171 q 150 203 186 203 q 74 176 103 203 q 44 108 44 150 q 78 35 44 63 q 164 7 111 7 z "},"¥":{"ha":972,"x_min":44,"x_max":928,"o":"m 472 0 l 472 250 l 135 250 l 135 278 l 472 278 l 472 381 l 446 417 l 135 417 l 135 444 l 426 444 l 44 972 l 79 972 l 488 408 l 488 408 l 894 972 l 928 972 l 546 444 l 867 444 l 867 417 l 526 417 l 500 381 l 500 278 l 867 278 l 867 250 l 500 250 l 500 0 l 472 0 z "},"+":{"ha":778,"x_min":111,"x_max":667,"o":"m 667 500 l 667 472 l 403 472 l 403 208 l 375 208 l 375 472 l 111 472 l 111 500 l 375 500 l 375 764 l 403 764 l 403 500 l 667 500 z "},"−":{"ha":778,"x_min":111,"x_max":667,"o":"m 111 472 l 111 500 l 667 500 l 667 472 l 111 472 z "},"×":{"ha":778,"x_min":163,"x_max":615,"o":"m 183 260 l 163 281 l 368 486 l 163 692 l 183 713 l 389 507 l 594 713 l 615 692 l 410 486 l 615 281 l 594 260 l 389 465 l 183 260 z "},"÷":{"ha":778,"x_min":111,"x_max":667,"o":"m 389 681 q 359 692 371 681 q 347 722 347 704 q 359 752 347 740 q 389 764 371 764 q 419 752 407 764 q 431 722 431 740 q 419 692 431 704 q 389 681 407 681 m 389 208 q 359 220 371 208 q 347 250 347 232 q 359 280 347 268 q 389 292 371 292 q 419 280 407 292 q 431 250 431 268 q 419 220 431 232 q 389 208 407 208 m 111 472 l 111 500 l 667 500 l 667 472 l 111 472 z "},"=":{"ha":778,"x_min":111,"x_max":667,"o":"m 111 347 l 111 375 l 667 375 l 667 347 l 111 347 m 111 597 l 111 625 l 667 625 l 667 597 l 111 597 z "},"≠":{"ha":778,"x_min":111,"x_max":667,"o":"m 667 597 l 460 597 l 349 375 l 667 375 l 667 347 l 335 347 l 265 208 l 235 208 l 304 347 l 111 347 l 111 375 l 318 375 l 429 597 l 111 597 l 111 625 l 443 625 l 513 764 l 543 764 l 474 625 l 667 625 l 667 597 z "},">":{"ha":778,"x_min":111,"x_max":667,"o":"m 111 208 l 111 240 l 632 486 l 111 732 l 111 764 l 667 500 l 667 472 l 111 208 z "},"<":{"ha":778,"x_min":111,"x_max":667,"o":"m 667 764 l 667 732 l 146 486 l 667 240 l 667 208 l 111 472 l 111 500 l 667 764 z "},"≥":{"ha":778,"x_min":111,"x_max":667,"o":"m 111 278 l 111 310 l 632 556 l 111 801 l 111 833 l 667 569 l 667 542 l 111 278 m 111 153 l 111 181 l 667 181 l 667 153 l 111 153 z "},"≤":{"ha":778,"x_min":111,"x_max":667,"o":"m 667 833 l 667 801 l 146 556 l 667 310 l 667 278 l 111 542 l 111 569 l 667 833 m 111 153 l 111 181 l 667 181 l 667 153 l 111 153 z "},"±":{"ha":778,"x_min":111,"x_max":667,"o":"m 111 542 l 111 569 l 667 569 l 667 542 l 111 542 m 375 833 l 403 833 l 403 278 l 375 278 l 375 833 m 111 153 l 111 181 l 667 181 l 667 153 l 111 153 z "},"≈":{"ha":778,"x_min":111,"x_max":667,"o":"m 111 304 q 149 381 111 349 q 238 414 186 414 q 306 404 272 414 q 388 375 339 394 q 391 374 389 374 q 394 372 393 374 l 399 371 q 475 343 443 353 q 540 333 507 333 q 609 358 579 333 q 639 415 639 383 l 667 415 q 629 338 667 371 q 540 306 592 306 q 472 315 506 306 q 390 344 439 325 q 387 346 389 346 q 383 347 385 346 q 381 348 382 347 q 379 349 381 349 q 303 376 335 367 q 238 386 271 386 q 169 361 199 386 q 139 304 139 336 l 111 304 m 111 554 q 149 631 111 599 q 238 664 186 664 q 306 654 272 664 q 388 625 339 644 q 391 624 389 624 q 394 622 393 624 l 399 621 q 475 593 443 603 q 540 583 507 583 q 609 608 579 583 q 639 665 639 633 l 667 665 q 629 588 667 621 q 540 556 592 556 q 472 565 506 556 q 390 594 439 575 q 387 596 389 596 q 383 597 385 596 q 381 598 382 597 q 379 599 381 599 q 303 626 335 617 q 238 636 271 636 q 169 611 199 636 q 139 554 139 586 l 111 554 z "},"~":{"ha":778,"x_min":111,"x_max":667,"o":"m 111 429 q 149 506 111 474 q 238 539 186 539 q 306 529 272 539 q 388 500 339 519 q 391 499 389 499 q 394 497 393 499 l 399 496 q 475 468 443 478 q 540 458 507 458 q 609 483 579 458 q 639 540 639 508 l 667 540 q 629 463 667 496 q 540 431 592 431 q 472 440 506 431 q 390 469 439 450 q 387 471 389 471 q 383 472 385 471 q 381 473 382 472 q 379 474 381 474 q 303 501 335 492 q 238 511 271 511 q 169 486 199 511 q 139 429 139 461 l 111 429 z "},"¬":{"ha":778,"x_min":111,"x_max":667,"o":"m 639 208 l 639 500 l 667 500 l 667 208 l 639 208 m 111 472 l 111 500 l 667 500 l 667 472 l 111 472 z "},"^":{"ha":778,"x_min":143,"x_max":635,"o":"m 143 569 l 375 972 l 403 972 l 635 569 l 603 569 l 389 940 l 175 569 l 143 569 z "},"%":{"ha":1028,"x_min":56,"x_max":972,"o":"m 278 535 q 165 564 217 535 q 85 644 114 593 q 56 757 56 696 q 85 869 56 818 q 165 950 114 921 q 278 979 217 979 q 390 950 339 979 q 471 869 442 921 q 500 757 500 818 q 471 644 500 696 q 390 564 442 593 q 278 535 339 535 m 278 563 q 376 588 332 563 q 447 658 421 614 q 472 757 472 703 q 447 856 472 811 q 376 926 421 900 q 278 951 332 951 q 179 926 224 951 q 109 856 135 900 q 83 757 83 811 q 109 658 83 703 q 179 588 135 614 q 278 563 224 563 m 222 0 l 775 972 l 806 972 l 253 0 l 222 0 m 750 -7 q 638 22 689 -7 q 557 103 586 51 q 528 215 528 154 q 557 328 528 276 q 638 408 586 379 q 750 438 689 438 q 863 408 811 438 q 943 328 914 379 q 972 215 972 276 q 943 103 972 154 q 863 22 914 51 q 750 -7 811 -7 m 750 21 q 849 47 804 21 q 919 117 893 72 q 944 215 944 161 q 919 314 944 269 q 849 384 893 358 q 750 410 804 410 q 651 384 696 410 q 581 314 607 358 q 556 215 556 269 q 581 117 556 161 q 651 47 607 72 q 750 21 696 21 z "},"‰":{"ha":1556,"x_min":56,"x_max":1500,"o":"m 278 535 q 165 564 217 535 q 85 644 114 593 q 56 757 56 696 q 85 869 56 818 q 165 950 114 921 q 278 979 217 979 q 390 950 339 979 q 471 869 442 921 q 500 757 500 818 q 471 644 500 696 q 390 564 442 593 q 278 535 339 535 m 278 563 q 376 588 332 563 q 447 658 421 614 q 472 757 472 703 q 447 856 472 811 q 376 926 421 900 q 278 951 332 951 q 179 926 224 951 q 109 856 135 900 q 83 757 83 811 q 109 658 83 703 q 179 588 135 614 q 278 563 224 563 m 222 0 l 775 972 l 806 972 l 253 0 l 222 0 m 750 -7 q 638 22 689 -7 q 557 103 586 51 q 528 215 528 154 q 557 328 528 276 q 638 408 586 379 q 750 438 689 438 q 863 408 811 438 q 943 328 914 379 q 972 215 972 276 q 943 103 972 154 q 863 22 914 51 q 750 -7 811 -7 m 750 21 q 849 47 804 21 q 919 117 893 72 q 944 215 944 161 q 919 314 944 269 q 849 384 893 358 q 750 410 804 410 q 651 384 696 410 q 581 314 607 358 q 556 215 556 269 q 581 117 556 161 q 651 47 607 72 q 750 21 696 21 m 1278 -7 q 1165 22 1217 -7 q 1085 103 1114 51 q 1056 215 1056 154 q 1085 328 1056 276 q 1165 408 1114 379 q 1278 438 1217 438 q 1390 408 1339 438 q 1471 328 1442 379 q 1500 215 1500 276 q 1471 103 1500 154 q 1390 22 1442 51 q 1278 -7 1339 -7 m 1278 21 q 1376 47 1332 21 q 1447 117 1421 72 q 1472 215 1472 161 q 1447 314 1472 269 q 1376 384 1421 358 q 1278 410 1332 410 q 1179 384 1224 410 q 1109 314 1135 358 q 1083 215 1083 269 q 1109 117 1083 161 q 1179 47 1135 72 q 1278 21 1224 21 z "},"↑":{"ha":972,"x_min":222,"x_max":750,"o":"m 472 0 l 472 894 l 467 894 l 247 474 l 222 486 l 476 972 l 496 972 l 750 486 l 725 474 l 506 894 l 500 894 l 500 0 l 472 0 z "},"↗":{"ha":972,"x_min":132,"x_max":836,"o":"m 153 133 l 132 154 l 765 786 l 761 790 l 308 647 l 300 674 l 824 838 l 836 825 l 672 301 l 646 310 l 789 763 l 785 767 l 153 133 z "},"→":{"ha":972,"x_min":0,"x_max":972,"o":"m 486 222 l 474 247 l 894 467 l 894 472 l 0 472 l 0 500 l 894 500 l 894 506 l 474 725 l 486 750 l 972 496 l 972 476 l 486 222 z "},"↘":{"ha":972,"x_min":132,"x_max":836,"o":"m 824 136 l 300 300 l 308 326 l 761 183 l 765 188 l 132 819 l 153 840 l 785 207 l 789 211 l 646 664 l 672 672 l 836 149 l 824 136 z "},"↓":{"ha":972,"x_min":222,"x_max":750,"o":"m 476 0 l 222 486 l 247 499 l 467 78 l 472 78 l 472 972 l 500 972 l 500 78 l 506 78 l 725 499 l 750 486 l 496 0 l 476 0 z "},"↙":{"ha":972,"x_min":136,"x_max":840,"o":"m 149 136 l 136 149 l 300 672 l 326 664 l 183 211 l 188 207 l 819 840 l 840 819 l 207 188 l 211 183 l 664 326 l 672 300 l 149 136 z "},"←":{"ha":972,"x_min":0,"x_max":972,"o":"m 486 224 l 0 478 l 0 497 l 486 751 l 499 726 l 78 507 l 78 501 l 972 501 l 972 474 l 78 474 l 78 468 l 499 249 l 486 224 z "},"↖":{"ha":972,"x_min":136,"x_max":840,"o":"m 819 133 l 188 767 l 183 763 l 326 310 l 300 301 l 136 825 l 149 838 l 672 674 l 664 647 l 211 790 l 207 786 l 840 154 l 819 133 z "},"↔":{"ha":1278,"x_min":0,"x_max":1278,"o":"m 486 222 l 0 476 l 0 496 l 486 750 l 499 725 l 78 506 l 78 500 l 1200 500 l 1200 506 l 779 725 l 792 750 l 1278 496 l 1278 476 l 792 222 l 779 247 l 1200 467 l 1200 472 l 78 472 l 78 467 l 499 247 l 486 222 z "},"↕":{"ha":972,"x_min":222,"x_max":750,"o":"m 476 -153 l 222 333 l 247 346 l 467 -75 l 472 -75 l 472 1047 l 467 1047 l 247 626 l 222 639 l 476 1125 l 496 1125 l 750 639 l 725 626 l 506 1047 l 500 1047 l 500 -75 l 506 -75 l 725 346 l 750 333 l 496 -153 l 476 -153 z "},"↰":{"ha":1014,"x_min":0,"x_max":972,"o":"m 944 0 l 944 472 l 78 472 l 78 467 l 499 247 l 486 222 l 0 476 l 0 496 l 486 750 l 499 725 l 78 506 l 78 500 l 972 500 l 972 0 l 944 0 z "},"↱":{"ha":1014,"x_min":42,"x_max":1014,"o":"m 42 0 l 42 500 l 936 500 l 936 506 l 515 725 l 528 750 l 1014 496 l 1014 476 l 528 222 l 515 247 l 936 467 l 936 472 l 69 472 l 69 0 l 42 0 z "},"↲":{"ha":1014,"x_min":0,"x_max":972,"o":"m 486 222 l 0 476 l 0 496 l 486 750 l 499 725 l 78 506 l 78 500 l 944 500 l 944 972 l 972 972 l 972 472 l 78 472 l 78 467 l 499 247 l 486 222 z "},"↳":{"ha":1014,"x_min":42,"x_max":1014,"o":"m 528 222 l 515 247 l 936 467 l 936 472 l 42 472 l 42 972 l 69 972 l 69 500 l 936 500 l 936 506 l 515 725 l 528 750 l 1014 496 l 1014 476 l 528 222 z "},"★":{"ha":1478,"x_min":167,"x_max":1311,"o":"m 675 -54 l 706 293 l 436 53 l 199 124 l 265 363 l 678 363 l 167 519 l 167 760 l 389 817 l 694 451 l 519 942 l 739 1126 l 958 942 l 783 451 l 1089 817 l 1311 760 l 1311 519 l 800 363 l 1213 363 l 1279 124 l 1042 53 l 772 293 l 803 -54 l 675 -54 z "},"@":{"ha":1139,"x_min":63,"x_max":1076,"o":"m 569 -232 q 313 -165 429 -232 q 129 18 196 -99 q 63 275 63 135 q 129 532 63 415 q 313 715 196 649 q 569 782 429 782 q 826 715 710 782 q 1010 532 943 649 q 1076 275 1076 415 q 999 0 1076 119 l 778 0 l 778 164 q 672 35 749 83 q 499 -14 596 -14 q 369 25 418 -14 q 319 128 319 64 q 393 252 319 211 q 640 304 467 293 q 747 324 717 310 q 778 368 778 338 q 752 457 778 415 q 681 523 726 499 q 576 547 635 547 q 433 499 490 547 q 361 365 375 451 l 333 365 q 376 478 343 431 q 460 550 408 525 q 576 575 511 575 q 743 514 681 575 q 806 351 806 453 l 806 28 l 983 28 q 1049 275 1049 139 q 985 518 1049 408 q 813 691 922 628 q 569 754 703 754 q 326 691 436 754 q 153 518 217 628 q 90 275 90 408 q 153 32 90 142 q 326 -141 217 -78 q 569 -204 436 -204 q 754 -169 667 -204 q 908 -69 842 -135 l 928 -87 q 765 -194 858 -157 q 569 -232 672 -232 m 503 14 q 642 47 579 14 q 741 135 704 79 q 778 261 778 192 l 778 311 q 715 288 753 296 q 615 276 678 279 q 413 233 478 268 q 347 132 347 197 q 388 45 347 76 q 503 14 429 14 z "},"&":{"ha":958,"x_min":56,"x_max":899,"o":"m 393 -21 q 215 17 292 -21 q 97 122 139 54 q 56 279 56 190 q 97 428 56 364 q 215 527 139 492 q 393 563 292 563 l 404 563 l 101 933 l 101 972 l 750 972 l 750 944 l 128 944 l 740 193 q 840 500 824 317 l 868 500 q 758 172 849 301 l 899 0 l 863 0 l 742 149 q 590 23 679 67 q 393 -21 500 -21 m 393 7 q 580 49 496 7 q 724 169 664 90 l 426 535 l 393 535 q 167 465 251 535 q 83 279 83 396 q 167 81 83 156 q 393 7 251 7 z "},"¶":{"ha":653,"x_min":83,"x_max":431,"o":"m 403 -278 l 403 417 l 390 417 q 234 453 304 417 q 124 553 164 490 q 83 694 83 617 q 124 835 83 772 q 234 935 164 899 q 390 972 304 972 l 431 972 l 431 -278 l 403 -278 z "},"§":{"ha":972,"x_min":182,"x_max":815,"o":"m 514 -139 q 365 -112 435 -139 q 247 -28 294 -85 q 189 111 200 28 l 217 111 q 272 -13 229 36 q 378 -85 315 -62 q 513 -108 440 -108 q 622 -92 565 -108 q 717 -38 678 -76 q 757 60 757 0 q 726 148 757 117 q 651 194 696 179 q 522 224 606 208 q 506 226 514 225 q 490 229 499 228 q 488 229 489 229 q 485 231 486 229 q 324 265 385 247 q 223 322 264 282 q 182 432 182 363 q 239 556 182 510 q 386 617 296 601 q 256 675 303 638 q 210 786 210 713 q 249 903 210 857 q 350 972 289 950 q 481 993 411 993 q 680 931 597 993 q 776 750 763 868 l 749 750 q 658 910 733 857 q 475 963 582 963 q 310 920 383 963 q 238 786 238 878 q 271 703 238 733 q 353 658 304 672 q 486 629 401 644 l 486 629 q 503 626 494 628 q 519 624 511 625 q 677 588 618 606 q 776 532 736 571 q 815 425 815 493 q 755 300 815 346 q 606 238 694 254 q 738 177 692 217 q 785 60 785 138 q 742 -56 785 -11 q 637 -119 699 -100 q 514 -139 575 -139 m 517 256 q 638 276 576 258 q 744 331 700 293 q 788 425 788 368 q 760 510 788 481 q 681 555 733 539 q 511 593 628 571 q 491 598 501 596 q 469 601 481 600 q 288 553 367 594 q 210 432 210 513 q 235 355 210 386 q 307 303 260 324 q 425 269 354 283 q 469 262 446 265 q 517 256 492 258 z "},"©":{"ha":1139,"x_min":63,"x_max":1076,"o":"m 569 -21 q 313 46 429 -21 q 129 229 196 113 q 63 486 63 346 q 129 743 63 626 q 313 926 196 860 q 569 993 429 993 q 826 926 710 993 q 1010 743 943 860 q 1076 486 1076 626 q 1010 229 1076 346 q 826 46 943 113 q 569 -21 710 -21 m 569 7 q 813 70 703 7 q 985 243 922 133 q 1049 486 1049 353 q 985 729 1049 619 q 813 902 922 839 q 569 965 703 965 q 326 902 436 965 q 153 729 217 839 q 90 486 90 619 q 153 243 90 353 q 326 70 217 133 q 569 7 436 7 m 574 197 q 428 235 493 197 q 326 340 363 274 q 289 486 289 406 q 326 633 289 567 q 428 737 363 699 q 574 775 493 775 q 702 749 646 775 q 794 676 758 724 q 843 563 831 628 l 815 563 q 734 699 797 650 q 574 747 671 747 q 442 713 501 747 q 350 619 383 679 q 317 486 317 560 q 350 353 317 413 q 442 259 383 293 q 574 225 501 225 q 734 274 671 225 q 815 410 797 322 l 843 410 q 794 297 831 344 q 702 223 758 249 q 574 197 646 197 z "},"®":{"ha":611,"x_min":69,"x_max":569,"o":"m 319 493 q 192 526 250 493 q 102 616 135 558 q 69 743 69 674 q 102 870 69 813 q 192 960 135 928 q 319 993 250 993 q 447 960 389 993 q 537 870 504 928 q 569 743 569 813 q 537 616 569 674 q 447 526 504 558 q 319 493 389 493 m 319 518 q 433 548 382 518 q 515 629 485 578 q 544 743 544 681 q 515 857 544 806 q 433 938 485 908 q 319 968 382 968 q 206 938 257 968 q 124 857 154 908 q 94 743 94 806 q 124 629 94 681 q 206 548 154 578 q 319 518 257 518 m 224 608 l 224 892 l 307 892 q 385 869 357 892 q 414 808 414 847 q 396 755 414 776 q 346 725 378 733 l 447 608 l 411 608 l 314 721 l 249 721 l 249 608 l 224 608 m 307 746 q 367 763 346 746 q 388 808 388 779 q 367 850 388 835 q 307 865 346 865 l 249 865 l 249 746 l 307 746 z "},"™":{"ha":1111,"x_min":22,"x_max":986,"o":"m 524 556 l 524 972 l 560 972 l 756 589 l 950 972 l 986 972 l 986 556 l 961 556 l 961 936 l 767 556 l 743 556 l 549 936 l 549 556 l 524 556 m 207 556 l 207 947 l 22 947 l 22 972 l 418 972 l 418 947 l 232 947 l 232 556 l 207 556 z "},"°":{"ha":431,"x_min":49,"x_max":382,"o":"m 215 660 q 132 682 171 660 q 71 743 93 704 q 49 826 49 782 q 71 910 49 871 q 132 971 93 949 q 215 993 171 993 q 299 971 260 993 q 360 910 338 949 q 382 826 382 871 q 360 743 382 782 q 299 682 338 704 q 215 660 260 660 m 215 688 q 313 728 272 688 q 354 826 354 769 q 313 924 354 883 q 215 965 272 965 q 117 924 158 965 q 76 826 76 883 q 117 728 76 769 q 215 688 158 688 z "},"|":{"ha":472,"x_min":222,"x_max":250,"o":"m 222 -139 l 222 1111 l 250 1111 l 250 -139 l 222 -139 z "},"¦":{"ha":472,"x_min":222,"x_max":250,"o":"m 222 583 l 222 1111 l 250 1111 l 250 583 l 222 583 m 222 -139 l 222 389 l 250 389 l 250 -139 l 222 -139 z "},"†":{"ha":419,"x_min":8,"x_max":411,"o":"m 196 583 l 196 813 l 8 813 l 8 840 l 196 840 l 196 986 l 224 986 l 224 840 l 411 840 l 411 813 l 224 813 l 224 583 l 196 583 z "},"‡":{"ha":419,"x_min":8,"x_max":411,"o":"m 196 583 l 196 708 l 8 708 l 8 736 l 196 736 l 196 833 l 8 833 l 8 861 l 196 861 l 196 986 l 224 986 l 224 861 l 411 861 l 411 833 l 224 833 l 224 736 l 411 736 l 411 708 l 224 708 l 224 583 l 196 583 z "},"№":{"ha":1667,"x_min":194,"x_max":1622,"o":"m 1400 528 q 1288 557 1339 528 q 1207 638 1236 586 q 1178 750 1178 689 q 1207 863 1178 811 q 1288 943 1236 914 q 1400 972 1339 972 q 1513 943 1461 972 q 1593 863 1564 914 q 1622 750 1622 811 q 1593 638 1622 689 q 1513 557 1564 586 q 1400 528 1461 528 m 1400 556 q 1499 581 1454 556 q 1569 651 1543 607 q 1594 750 1594 696 q 1569 849 1594 804 q 1499 919 1543 893 q 1400 944 1454 944 q 1301 919 1346 944 q 1231 849 1257 893 q 1206 750 1206 804 q 1231 651 1206 696 q 1301 581 1257 607 q 1400 556 1346 556 m 194 0 l 194 972 l 228 972 l 944 39 l 944 972 l 972 972 l 972 0 l 940 0 l 222 933 l 222 0 l 194 0 z "},"ʼ":{"ha":204,"x_min":56,"x_max":149,"o":"m 83 760 l 56 760 l 56 760 q 101 842 83 800 q 119 921 118 883 q 116 921 118 921 q 113 921 114 921 q 89 931 99 921 q 79 954 79 940 q 84 972 79 964 q 97 984 89 979 q 114 989 104 989 q 139 978 129 989 q 149 949 149 967 q 128 847 149 906 q 83 760 107 789 z "},"̈":{"ha":0,"x_min":-521,"x_max":-311,"o":"m -508 813 l -521 1035 l -483 1035 l -496 813 l -508 813 m -336 813 l -349 1035 l -311 1035 l -324 813 l -336 813 z "},"̇":{"ha":0,"x_min":-437,"x_max":-396,"o":"m -424 813 l -437 1035 l -396 1035 l -410 813 l -424 813 z "},"̀":{"ha":0,"x_min":-539,"x_max":-417,"o":"m -417 813 l -446 813 l -539 1035 l -508 1035 l -417 813 z "},"́":{"ha":0,"x_min":-417,"x_max":-294,"o":"m -417 813 l -325 1035 l -294 1035 l -387 813 l -417 813 z "},"̋":{"ha":0,"x_min":-531,"x_max":-253,"o":"m -531 813 l -448 1035 l -421 1035 l -504 813 l -531 813 m -362 813 l -280 1035 l -252 1035 l -336 813 l -362 813 z "},"̂":{"ha":0,"x_min":-656,"x_max":-178,"o":"m -178 813 l -218 813 l -417 1007 l -617 813 l -656 813 l -428 1035 l -406 1035 l -178 813 z "},"̌":{"ha":0,"x_min":-656,"x_max":-178,"o":"m -656 1035 l -615 1035 l -417 840 l -217 1035 l -178 1035 l -406 813 l -428 813 l -656 1035 z "},"̆":{"ha":0,"x_min":-653,"x_max":-181,"o":"m -417 813 q -541 839 -487 813 q -624 913 -594 865 q -653 1024 -653 960 l -653 1035 l -625 1035 l -625 1024 q -569 890 -625 939 q -417 840 -514 840 q -264 890 -319 840 q -208 1024 -208 939 l -208 1035 l -181 1035 l -181 1024 q -210 913 -181 960 q -292 839 -239 865 q -417 813 -346 813 z "},"̊":{"ha":0,"x_min":-583,"x_max":-250,"o":"m -417 813 q -501 835 -462 813 q -561 895 -539 857 q -583 979 -583 933 q -561 1063 -583 1025 q -501 1124 -539 1101 q -417 1146 -462 1146 q -333 1124 -372 1146 q -272 1063 -294 1101 q -250 979 -250 1024 q -272 896 -250 935 q -333 835 -294 857 q -417 813 -372 813 m -417 840 q -347 859 -379 840 q -297 910 -315 878 q -278 979 -278 942 q -297 1049 -278 1017 q -347 1099 -315 1081 q -417 1118 -379 1118 q -487 1099 -456 1118 q -537 1049 -518 1081 q -556 979 -556 1018 q -537 909 -556 940 q -487 859 -518 878 q -417 840 -456 840 z "},"̃":{"ha":0,"x_min":-674,"x_max":-160,"o":"m -674 881 q -638 951 -674 921 q -556 981 -603 981 q -488 971 -519 981 q -412 943 -457 961 q -337 917 -365 925 q -278 908 -310 908 q -215 931 -242 908 q -187 981 -187 953 l -160 981 q -195 910 -160 940 q -278 881 -231 881 q -345 890 -314 881 q -421 918 -376 900 q -496 944 -468 936 q -556 953 -524 953 q -619 931 -592 953 q -646 881 -646 908 l -674 881 z "},"̄":{"ha":0,"x_min":-639,"x_max":-194,"o":"m -639 944 l -194 944 l -194 917 l -639 917 l -639 944 z "},"̒":{"ha":0,"x_min":-451,"x_max":-358,"o":"m -386 1035 l -358 1035 l -358 1035 q -403 955 -386 994 q -422 879 -421 915 q -419 879 -421 879 q -415 879 -417 879 q -392 870 -401 879 q -382 846 -382 861 q -392 822 -382 832 q -417 811 -403 811 q -442 822 -432 811 q -451 851 -451 833 q -431 949 -451 893 q -386 1035 -410 1006 z "},"̦":{"ha":0,"x_min":-475,"x_max":-382,"o":"m -447 -340 l -475 -340 l -475 -340 q -430 -260 -447 -300 q -411 -185 -412 -221 q -415 -185 -412 -185 q -418 -185 -417 -185 q -442 -176 -433 -185 q -451 -151 -451 -167 q -442 -127 -451 -137 q -417 -117 -432 -117 q -392 -128 -401 -117 q -382 -157 -382 -139 q -403 -255 -382 -199 q -447 -340 -424 -311 z "},"̧":{"ha":0,"x_min":-525,"x_max":-403,"o":"m -403 -118 l -494 -340 l -525 -340 l -432 -118 l -403 -118 z "},"̨":{"ha":0,"x_min":-537,"x_max":-415,"o":"m -415 -118 l -507 -340 l -537 -340 l -444 -118 l -415 -118 z "},"̵":{"ha":0,"x_min":-646,"x_max":-187,"o":"m -646 847 l -187 847 l -187 819 l -646 819 l -646 847 z "}}}
